<svg width="85" height="48" viewBox="0 0 85 48" fill="none" xmlns="http://www.w3.org/2000/svg">
<path fill-rule="evenodd" clip-rule="evenodd" d="M24 47C36.7025 47 47 36.7025 47 24C47 11.2975 36.7025 1 24 1C11.2975 1 1 11.2975 1 24C1 36.7025 11.2975 47 24 47ZM24 48C37.2548 48 48 37.2548 48 24C48 10.7452 37.2548 0 24 0C10.7452 0 0 10.7452 0 24C0 37.2548 10.7452 48 24 48Z" fill="white"/>
<path fill-rule="evenodd" clip-rule="evenodd" d="M84.9775 25.0479L83.9785 25.005C83.9928 24.6718 84 24.3368 84 24C84 23.6632 83.9928 23.3282 83.9785 22.995L84.9775 22.9521C84.9925 23.2995 85 23.6489 85 24C85 24.3511 84.9925 24.7005 84.9775 25.0479ZM84.7971 20.8654C84.7062 20.1681 84.5853 19.4803 84.4358 18.8032L83.4594 19.0188C83.6026 19.6675 83.7184 20.3265 83.8055 20.9947L84.7971 20.8654ZM83.8953 16.7809C83.6845 16.1118 83.4452 15.4554 83.1789 14.8131L82.2551 15.1961C82.5103 15.8115 82.7396 16.4404 82.9415 17.0813L83.8953 16.7809ZM82.2926 12.9158L81.406 13.3782C81.0958 12.7836 80.7604 12.2042 80.4011 11.6414L81.244 11.1033C81.6189 11.6906 81.9689 12.2952 82.2926 12.9158ZM80.0416 9.38918L79.2487 9.99851C78.8406 9.46743 78.4098 8.95465 77.9577 8.46162L78.6948 7.78583C79.1664 8.30016 79.6158 8.83511 80.0416 9.38918ZM77.2142 6.30515L76.5384 7.04225C76.0453 6.59023 75.5326 6.15944 75.0015 5.75133L75.6108 4.95841C76.1649 5.38419 76.6998 5.83361 77.2142 6.30515ZM73.8967 3.75597L73.3586 4.59886C72.7958 4.23959 72.2164 3.90416 71.6217 3.59399L72.0842 2.70736C72.7048 3.03106 73.3094 3.38109 73.8967 3.75597ZM70.1869 1.82113L69.8039 2.74486C69.1885 2.48967 68.5596 2.26044 67.9187 2.05854L68.2191 1.10474C68.8882 1.3155 69.5446 1.55477 70.1869 1.82113ZM66.1968 0.56415L65.9812 1.54064C65.3325 1.39744 64.6735 1.28161 64.0053 1.19445L64.1346 0.202854C64.8319 0.293804 65.5197 0.414679 66.1968 0.56415ZM62.0479 0.0224667C61.7005 0.00753992 61.3511 0 61 0C60.6489 0 60.2995 0.00753994 59.9521 0.0224667L59.995 1.02155C60.3282 1.00723 60.6632 1 61 1C61.3368 1 61.6718 1.00723 62.005 1.02155L62.0479 0.0224667ZM57.8654 0.202855L57.9947 1.19445C57.3265 1.28161 56.6675 1.39744 56.0188 1.54064L55.8032 0.564151C56.4803 0.41468 57.1681 0.293804 57.8654 0.202855ZM53.7809 1.10474L54.0813 2.05854C53.4404 2.26044 52.8115 2.48967 52.1961 2.74486L51.8131 1.82113C52.4554 1.55477 53.1118 1.3155 53.7809 1.10474ZM49.9158 2.70737L50.3782 3.59399C49.7836 3.90416 49.2042 4.23959 48.6414 4.59886L48.1033 3.75598C48.6906 3.38109 49.2952 3.03106 49.9158 2.70737ZM46.3892 4.95842L46.9985 5.75133C46.4674 6.15945 45.9546 6.59024 45.4616 7.04225L44.7858 6.30516C45.3002 5.83361 45.8351 5.38419 46.3892 4.95842ZM43.3052 7.78583L44.0423 8.46162C43.5902 8.95465 43.1594 9.46743 42.7513 9.99851L41.9584 9.38918C42.3842 8.83512 42.8336 8.30016 43.3052 7.78583ZM40.756 11.1033L41.5989 11.6414C41.2396 12.2042 40.9042 12.7836 40.594 13.3782L39.7074 12.9158C40.0311 12.2952 40.3811 11.6906 40.756 11.1033ZM38.8211 14.8131L39.7449 15.1961C39.4897 15.8115 39.2604 16.4404 39.0585 17.0813L38.1047 16.7809C38.3155 16.1118 38.5548 15.4554 38.8211 14.8131ZM37.5642 18.8032L38.5406 19.0188C38.3974 19.6675 38.2816 20.3265 38.1945 20.9947L37.2029 20.8654C37.2938 20.1681 37.4147 19.4803 37.5642 18.8032ZM37.0225 22.9521C37.0075 23.2995 37 23.6489 37 24C37 24.3511 37.0075 24.7005 37.0225 25.0479L38.0215 25.005C38.0072 24.6718 38 24.3368 38 24C38 23.6632 38.0072 23.3282 38.0215 22.995L37.0225 22.9521ZM37.2029 27.1346L38.1945 27.0053C38.2816 27.6735 38.3974 28.3325 38.5406 28.9812L37.5642 29.1968C37.4147 28.5197 37.2938 27.8319 37.2029 27.1346ZM38.1047 31.2191L39.0585 30.9187C39.2604 31.5596 39.4897 32.1885 39.7449 32.8039L38.8211 33.1869C38.5548 32.5446 38.3155 31.8882 38.1047 31.2191ZM39.7074 35.0842L40.594 34.6218C40.9042 35.2164 41.2396 35.7958 41.5989 36.3586L40.756 36.8967C40.3811 36.3094 40.0311 35.7048 39.7074 35.0842ZM41.9584 38.6108L42.7513 38.0015C43.1594 38.5326 43.5902 39.0454 44.0423 39.5384L43.3052 40.2142C42.8336 39.6998 42.3842 39.1649 41.9584 38.6108ZM44.7858 41.6948L45.4616 40.9577C45.9546 41.4098 46.4674 41.8406 46.9985 42.2487L46.3892 43.0416C45.8351 42.6158 45.3002 42.1664 44.7858 41.6948ZM48.1033 44.244L48.6414 43.4011C49.2042 43.7604 49.7836 44.0958 50.3782 44.406L49.9158 45.2926C49.2952 44.9689 48.6906 44.6189 48.1033 44.244ZM51.8131 46.1789L52.1961 45.2551C52.8115 45.5103 53.4404 45.7396 54.0813 45.9415L53.7809 46.8953C53.1118 46.6845 52.4554 46.4452 51.8131 46.1789ZM55.8032 47.4358L56.0188 46.4594C56.6675 46.6026 57.3265 46.7184 57.9947 46.8055L57.8654 47.7971C57.1681 47.7062 56.4803 47.5853 55.8032 47.4358ZM59.9521 47.9775L59.995 46.9785C60.3282 46.9928 60.6632 47 61 47C61.3368 47 61.6718 46.9928 62.005 46.9785L62.0479 47.9775C61.7005 47.9925 61.3511 48 61 48C60.6489 48 60.2995 47.9925 59.9521 47.9775ZM64.1346 47.7971C64.8319 47.7062 65.5197 47.5853 66.1968 47.4358L65.9812 46.4594C65.3325 46.6026 64.6735 46.7184 64.0053 46.8055L64.1346 47.7971ZM68.2191 46.8953C68.8882 46.6845 69.5446 46.4452 70.1869 46.1789L69.8039 45.2551C69.1885 45.5103 68.5596 45.7396 67.9187 45.9415L68.2191 46.8953ZM72.0842 45.2926L71.6218 44.406C72.2164 44.0958 72.7958 43.7604 73.3586 43.4011L73.8967 44.244C73.3094 44.6189 72.7048 44.9689 72.0842 45.2926ZM75.6108 43.0416L75.0015 42.2487C75.5326 41.8406 76.0454 41.4098 76.5384 40.9577L77.2142 41.6948C76.6998 42.1664 76.1649 42.6158 75.6108 43.0416ZM78.6948 40.2142L77.9577 39.5384C78.4098 39.0453 78.8406 38.5326 79.2487 38.0015L80.0416 38.6108C79.6158 39.1649 79.1664 39.6998 78.6948 40.2142ZM81.244 36.8967L80.4011 36.3586C80.7604 35.7958 81.0958 35.2164 81.406 34.6217L82.2926 35.0842C81.9689 35.7048 81.6189 36.3094 81.244 36.8967ZM83.1789 33.1869L82.2551 32.8039C82.5103 32.1885 82.7396 31.5596 82.9415 30.9187L83.8953 31.2191C83.6845 31.8882 83.4452 32.5446 83.1789 33.1869ZM84.4358 29.1968L83.4594 28.9812C83.6026 28.3325 83.7184 27.6735 83.8055 27.0053L84.7971 27.1346C84.7062 27.8319 84.5853 28.5197 84.4358 29.1968Z" fill="white"/>
</svg>
