<svg width="85" height="49" viewBox="0 0 85 49" fill="none" xmlns="http://www.w3.org/2000/svg">
<path fill-rule="evenodd" clip-rule="evenodd" d="M59.25 0L59.9571 0.707107L59.2835 1.38072L59.25 1.34722L59.2165 1.38072L58.5429 0.707107L59.25 0ZM35.7071 23.5429L35 24.25L35.7071 24.9571L36.3807 24.2835L36.3472 24.25L36.3807 24.2165L35.7071 23.5429ZM58.5429 47.7929L59.25 48.5L59.9571 47.7929L59.2835 47.1193L59.25 47.1528L59.2165 47.1193L58.5429 47.7929ZM82.7929 24.9571L83.5 24.25L82.7929 23.5429L82.1193 24.2165L82.1528 24.25L82.1193 24.2835L82.7929 24.9571ZM61.2708 2.02083L60.5637 2.72794L61.9109 4.07516L62.6181 3.36805L61.2708 2.02083ZM63.9653 4.71528L63.2582 5.42238L64.6054 6.76961L65.3125 6.0625L63.9653 4.71528ZM66.6597 7.40972L65.9526 8.11683L67.2998 9.46405L68.0069 8.75694L66.6597 7.40972ZM69.3542 10.1042L68.6471 10.8113L69.9943 12.1585L70.7014 11.4514L69.3542 10.1042ZM72.0486 12.7986L71.3415 13.5057L72.6887 14.8529L73.3958 14.1458L72.0486 12.7986ZM74.7431 15.4931L74.0359 16.2002L75.3832 17.5474L76.0903 16.8403L74.7431 15.4931ZM77.4375 18.1875L76.7304 18.8946L78.0776 20.2418L78.7847 19.5347L77.4375 18.1875ZM80.1319 20.8819L79.4248 21.5891L80.7721 22.9363L81.4792 22.2292L80.1319 20.8819ZM81.4792 26.2708L80.7721 25.5637L79.4248 26.9109L80.1319 27.6181L81.4792 26.2708ZM78.7847 28.9653L78.0776 28.2582L76.7304 29.6054L77.4375 30.3125L78.7847 28.9653ZM76.0903 31.6597L75.3832 30.9526L74.0359 32.2998L74.7431 33.0069L76.0903 31.6597ZM73.3958 34.3542L72.6887 33.6471L71.3415 34.9943L72.0486 35.7014L73.3958 34.3542ZM70.7014 37.0486L69.9943 36.3415L68.6471 37.6887L69.3542 38.3958L70.7014 37.0486ZM68.0069 39.7431L67.2998 39.0359L65.9526 40.3832L66.6597 41.0903L68.0069 39.7431ZM65.3125 42.4375L64.6054 41.7304L63.2582 43.0776L63.9653 43.7847L65.3125 42.4375ZM62.6181 45.1319L61.9109 44.4248L60.5637 45.7721L61.2708 46.4792L62.6181 45.1319ZM57.2292 46.4792L57.9363 45.7721L56.5891 44.4248L55.8819 45.1319L57.2292 46.4792ZM54.5347 43.7847L55.2418 43.0776L53.8946 41.7304L53.1875 42.4375L54.5347 43.7847ZM51.8403 41.0903L52.5474 40.3832L51.2002 39.0359L50.4931 39.7431L51.8403 41.0903ZM49.1458 38.3958L49.8529 37.6887L48.5057 36.3415L47.7986 37.0486L49.1458 38.3958ZM46.4514 35.7014L47.1585 34.9943L45.8113 33.6471L45.1042 34.3542L46.4514 35.7014ZM43.7569 33.0069L44.4641 32.2998L43.1168 30.9526L42.4097 31.6597L43.7569 33.0069ZM41.0625 30.3125L41.7696 29.6054L40.4224 28.2582L39.7153 28.9653L41.0625 30.3125ZM38.3681 27.6181L39.0752 26.9109L37.7279 25.5637L37.0208 26.2708L38.3681 27.6181ZM37.0208 22.2292L37.7279 22.9363L39.0752 21.5891L38.3681 20.8819L37.0208 22.2292ZM39.7153 19.5347L40.4224 20.2418L41.7696 18.8946L41.0625 18.1875L39.7153 19.5347ZM42.4097 16.8403L43.1168 17.5474L44.4641 16.2002L43.7569 15.4931L42.4097 16.8403ZM45.1042 14.1458L45.8113 14.8529L47.1585 13.5057L46.4514 12.7986L45.1042 14.1458ZM47.7986 11.4514L48.5057 12.1585L49.8529 10.8113L49.1458 10.1042L47.7986 11.4514ZM50.4931 8.75694L51.2002 9.46405L52.5474 8.11683L51.8403 7.40972L50.4931 8.75694ZM53.1875 6.0625L53.8946 6.76961L55.2418 5.42238L54.5347 4.71528L53.1875 6.0625ZM55.8819 3.36806L56.5891 4.07516L57.9363 2.72794L57.2292 2.02083L55.8819 3.36806Z" fill="white"/>
<path fill-rule="evenodd" clip-rule="evenodd" d="M47.3358 24.25L24.5 1.41421L1.66421 24.25L24.5 47.0858L47.3358 24.25ZM24.5 0L0.250001 24.25L24.5 48.5L48.75 24.25L24.5 0Z" fill="white"/>
</svg>
