<svg width="73" height="49" viewBox="0 0 73 49" fill="none" xmlns="http://www.w3.org/2000/svg">
<path fill-rule="evenodd" clip-rule="evenodd" d="M72.0136 23.9202L71.6494 24.1344L71.8645 24.5003L71.6494 24.8661L72.0136 25.0803L73 24.5003L72.0136 23.9202ZM70.4688 25.9888L69.9619 25.1267L68.2744 26.1191L68.7813 26.9811L70.4688 25.9888ZM67.0937 27.9734L66.5869 27.1114L64.8994 28.1037L65.4062 28.9657L67.0937 27.9734ZM63.7187 29.958L63.2119 29.096L61.5243 30.0884L62.0312 30.9504L63.7187 29.958ZM60.3437 31.9427L59.8368 31.0807L58.1493 32.073L58.6562 32.935L60.3437 31.9427ZM56.9687 33.9273L56.4618 33.0653L54.7744 34.0576L55.2812 34.9196L56.9687 33.9273ZM53.5937 35.912L53.0869 35.05L51.3994 36.0423L51.9062 36.9043L53.5937 35.912ZM50.2187 37.8966L49.7119 37.0346L48.0244 38.0269L48.5313 38.8889L50.2187 37.8966ZM46.8438 39.8812L46.3369 39.0192L44.6494 40.0116L45.1563 40.8736L46.8438 39.8812ZM43.4688 41.8659L42.9619 41.0039L41.2744 41.9962L41.7813 42.8582L43.4688 41.8659ZM40.0938 43.8505L39.5869 42.9885L37.8994 43.9808L38.4063 44.8428L40.0938 43.8505ZM36.7188 45.8352L36.2119 44.9732L34.5244 45.9655L35.0313 46.8275L36.7188 45.8352ZM33.5 47.7279L33.5 47.3237L33.052 47.3237L32.8369 46.9578L32.5 47.1559L32.5 48.316L33.5 47.7279ZM32.5 45.339L33.5 45.339L33.5 43.3544L32.5 43.3544L32.5 45.339ZM32.5 41.3697L33.5 41.3697L33.5 39.3851L32.5 39.3851L32.5 41.3697ZM32.5 37.4004L33.5 37.4004L33.5 35.4158L32.5 35.4158L32.5 37.4004ZM32.5 33.4312L33.5 33.4312L33.5 31.4465L32.5 31.4465L32.5 33.4312ZM32.5 29.4619L33.5 29.4619L33.5 27.4772L32.5 27.4772L32.5 29.4619ZM32.5 25.4926L33.5 25.4926L33.5 23.508L32.5 23.508L32.5 25.4926ZM32.5 21.5233L33.5 21.5233L33.5 19.5387L32.5 19.5387L32.5 21.5233ZM32.5 17.554L33.5 17.554L33.5 15.5694L32.5 15.5694L32.5 17.554ZM32.5 13.5847L33.5 13.5847L33.5 11.6001L32.5 11.6001L32.5 13.5847ZM32.5 9.61546L33.5 9.61546L33.5 7.63081L32.5 7.63081L32.5 9.61546ZM32.5 5.64617L33.5 5.64617L33.5 3.66153L32.5 3.66153L32.5 5.64617ZM32.5 1.84465L32.8369 2.04273L33.052 1.67689L33.5 1.67689L33.5 1.27261L32.5 0.684569L32.5 1.84465ZM35.0312 2.17305L34.5244 3.03506L36.2119 4.02738L36.7187 3.16537L35.0312 2.17305ZM38.4063 4.15769L37.8994 5.0197L39.5869 6.01202L40.0938 5.15001L38.4063 4.15769ZM41.7813 6.14233L41.2744 7.00434L42.9619 7.99666L43.4688 7.13466L41.7813 6.14233ZM45.1563 8.12698L44.6494 8.98899L46.3369 9.98131L46.8438 9.1193L45.1563 8.12698ZM48.5313 10.1116L48.0244 10.9736L49.7119 11.9659L50.2188 11.1039L48.5313 10.1116ZM51.9063 12.0963L51.3994 12.9583L53.0869 13.9506L53.5938 13.0886L51.9063 12.0963ZM55.2813 14.0809L54.7744 14.9429L56.4619 15.9352L56.9688 15.0732L55.2813 14.0809ZM58.6563 16.0655L58.1494 16.9276L59.8369 17.9199L60.3437 17.0579L58.6563 16.0655ZM62.0312 18.0502L61.5244 18.9122L63.2119 19.9045L63.7187 19.0425L62.0312 18.0502ZM65.4062 20.0348L64.8994 20.8968L66.5869 21.8892L67.0937 21.0271L65.4062 20.0348ZM68.7812 22.0195L68.2744 22.8815L69.9619 23.8738L70.4687 23.0118L68.7812 22.0195Z" fill="white"/>
<path fill-rule="evenodd" clip-rule="evenodd" d="M41 24.5003L0.500004 0.684569L0.500002 48.316L41 24.5003ZM39.0272 24.5003L1.5 2.43269L1.5 46.5678L39.0272 24.5003Z" fill="white"/>
</svg>
