<svg width="52" height="52" viewBox="0 0 52 52" fill="none" xmlns="http://www.w3.org/2000/svg">
<path fill-rule="evenodd" clip-rule="evenodd" d="M30.002 20.998H18.9975C18.7198 20.998 18.4546 21.1135 18.2653 21.3167C18.0761 21.52 17.9798 21.7927 17.9996 22.0697L18.7908 33.1456C18.8655 34.1926 19.7368 35.0039 20.7865 35.0039H28.213C29.2627 35.0039 30.1339 34.1926 30.2087 33.1456L30.9999 22.0697C31.0196 21.7927 30.9234 21.52 30.7342 21.3167C30.5449 21.1135 30.2797 20.998 30.002 20.998Z" stroke="#2E2E2E" stroke-width="1.1" stroke-linecap="round" stroke-linejoin="round"/>
<path d="M23.9992 27.0003L22.6383 17.8494C22.5656 17.3591 22.1446 16.9961 21.6489 16.9961H18.9971" stroke="#2E2E2E" stroke-width="1.1" stroke-linecap="round" stroke-linejoin="round"/>
<path d="M30.6474 27.0002H18.3516" stroke="#2E2E2E" stroke-width="1.1" stroke-linecap="round" stroke-linejoin="round"/>
<path d="M27.001 20.9978C27.001 18.7877 28.7926 16.9961 31.0026 16.9961C33.2127 16.9961 35.0043 18.7877 35.0043 20.9978C35.0043 23.2078 33.2127 24.9994 31.0026 24.9994C30.9325 25.0011 30.8623 24.9977 30.7926 24.9894" stroke="#2E2E2E" stroke-width="1.1" stroke-linecap="round" stroke-linejoin="round"/>
<rect x="0.5" y="0.5" width="51" height="51" rx="25.5" stroke="#2E2E2E"/>
</svg>
