<svg width="52" height="52" viewBox="0 0 52 52" fill="none" xmlns="http://www.w3.org/2000/svg">
<path d="M29.8906 25.9897C29.6113 26.3537 29.1818 26.5712 28.7231 26.581C28.2654 26.5684 27.8374 26.3515 27.5566 25.9897" stroke="#2E2E2E" stroke-width="1.1" stroke-linecap="round" stroke-linejoin="round"/>
<path d="M24.4433 25.9897C24.1642 26.3534 23.7352 26.5709 23.2769 26.581C22.8188 26.5686 22.3904 26.3516 22.1094 25.9897" stroke="#2E2E2E" stroke-width="1.1" stroke-linecap="round" stroke-linejoin="round"/>
<path d="M28.2212 30.146C26.9476 31.2572 25.0491 31.2572 23.7754 30.146" stroke="#2E2E2E" stroke-width="1.1" stroke-linecap="round" stroke-linejoin="round"/>
<path d="M27.8281 18.7449L29.4518 17.2323C29.9035 16.8108 30.5182 16.6101 31.1316 16.684C31.745 16.7579 32.2944 17.0987 32.6331 17.6154L32.7872 17.8485C33.168 18.4271 33.3708 19.1047 33.3704 19.7973V19.7973C33.3707 20.4897 33.1679 21.1669 32.7872 21.7452L32.6321 21.9783C32.294 22.4954 31.7448 22.8367 31.1314 22.9108C30.518 22.9848 29.9033 22.7841 29.4518 22.3624L27.8281 20.8488" stroke="#2E2E2E" stroke-width="1.1" stroke-linecap="round" stroke-linejoin="round"/>
<path d="M24.1712 20.8474L22.5475 22.36C22.0959 22.7815 21.4811 22.9822 20.8678 22.9083C20.2544 22.8344 19.7049 22.4935 19.3662 21.9768L19.2121 21.7437C18.8316 21.1658 18.6288 20.4889 18.6289 19.7969V19.7969C18.6288 19.1046 18.8315 18.4274 19.2121 17.8491L19.3672 17.616C19.7055 17.0992 20.2548 16.7581 20.868 16.6841C21.4812 16.61 22.0959 16.8105 22.5475 17.2319L24.1712 18.7445" stroke="#2E2E2E" stroke-width="1.1" stroke-linecap="round" stroke-linejoin="round"/>
<ellipse cx="25.9985" cy="19.7968" rx="2.10588" ry="2.12689" stroke="#2E2E2E" stroke-width="1.1" stroke-linecap="round" stroke-linejoin="round"/>
<path d="M26 35.4737C29.7557 35.4717 33.0459 32.9574 34.0343 29.3341C35.1541 29.2098 36.0013 28.2633 36.0013 27.1367C36.0013 26.0101 35.1541 25.0636 34.0343 24.9393C33.7456 23.8863 33.2524 22.9005 32.5827 22.0381" stroke="#2E2E2E" stroke-width="1.1" stroke-linecap="round" stroke-linejoin="round"/>
<path d="M25.9993 35.4737C22.2436 35.4717 18.9534 32.9574 17.965 29.3341C16.8452 29.2098 15.998 28.2633 15.998 27.1367C15.998 26.0101 16.8452 25.0636 17.965 24.9393C18.2537 23.8863 18.7469 22.9005 19.4166 22.0381" stroke="#2E2E2E" stroke-width="1.1" stroke-linecap="round" stroke-linejoin="round"/>
<rect x="0.5" y="0.5" width="51" height="51" rx="25.5" stroke="#2E2E2E"/>
</svg>
