<svg width="20" height="20" viewBox="0 0 20 20" fill="none" xmlns="http://www.w3.org/2000/svg">
<g id="Group">
<ellipse id="Oval" cx="7.74846" cy="8.4998" rx="4.50187" ry="1.87578" stroke="white" stroke-linecap="round" stroke-linejoin="round"/>
<path id="Path" d="M12.2503 11.126C12.2503 12.1619 10.2348 13.0018 7.74846 13.0018C5.26214 13.0018 3.24658 12.1619 3.24658 11.126" stroke="white" stroke-linecap="round" stroke-linejoin="round"/>
<path id="Path_2" d="M16.7514 8.5C16.7514 9.53596 14.7358 10.3758 12.2495 10.3758" stroke="white" stroke-linecap="round" stroke-linejoin="round"/>
<path id="Path_3" d="M12.2503 8.5V14.1273C12.2503 15.1633 10.2348 16.0031 7.74846 16.0031C5.26214 16.0031 3.24658 15.1633 3.24658 14.1273V8.5" stroke="white" stroke-linecap="round" stroke-linejoin="round"/>
<path id="Path_4" d="M16.7514 5.87402V11.5014C16.7514 12.5373 14.7358 13.3771 12.2495 13.3771" stroke="white" stroke-linecap="round" stroke-linejoin="round"/>
<path id="Path_5" d="M8.1232 6.63116C7.90046 6.43995 7.76504 6.1664 7.74805 5.87334C7.74805 4.83791 9.76639 3.99756 12.2499 3.99756C14.7335 3.99756 16.7518 4.83791 16.7518 5.87334C16.7518 6.90877 14.7335 7.74912 12.2499 7.74912C12.1224 7.74912 11.9948 7.74912 11.8748 7.74162" stroke="white" stroke-linecap="round" stroke-linejoin="round"/>
</g>
</svg>
