<svg width="40" height="40" viewBox="0 0 40 40" fill="none" xmlns="http://www.w3.org/2000/svg">
<path d="M20 22.375L19.512 22.7654C19.6306 22.9137 19.8101 23 20 23C20.1899 23 20.3694 22.9137 20.488 22.7654L20 22.375ZM22.988 19.6404C23.2037 19.3709 23.16 18.9776 22.8904 18.762C22.6209 18.5463 22.2276 18.59 22.012 18.8596L22.988 19.6404ZM17.988 18.8596C17.7724 18.59 17.3791 18.5463 17.1096 18.762C16.84 18.9776 16.7963 19.3709 17.012 19.6404L17.988 18.8596ZM20.488 22.7654L22.988 19.6404L22.012 18.8596L19.512 21.9846L20.488 22.7654ZM20.488 21.9846L17.988 18.8596L17.012 19.6404L19.512 22.7654L20.488 21.9846ZM20.625 22.375V13H19.375V22.375H20.625Z" fill="white"/>
<rect x="15" y="26.125" width="10" height="1.25" rx="0.625" fill="white"/>
<rect x="0.5" y="0.5" width="39" height="39" rx="19.5" stroke="white"/>
</svg>
