<svg width="24" height="24" viewBox="0 0 24 24" fill="none" xmlns="http://www.w3.org/2000/svg">
<path fill-rule="evenodd" clip-rule="evenodd" d="M3.446 10.088C3.152 10.689 3 11.341 3 12C3 12.659 3.152 13.311 3.446 13.912C4.961 17.009 8.309 19 12 19C15.691 19 19.039 17.009 20.554 13.912C20.848 13.311 21 12.659 21 12C21 11.341 20.848 10.689 20.554 10.088C19.039 6.991 15.691 5 12 5C8.309 5 4.961 6.991 3.446 10.088ZM14.1233 14.125C15.2943 12.952 15.2943 11.051 14.1233 9.87999C12.9513 8.70699 11.0513 8.70699 9.87825 9.87999C8.70725 11.053 8.70725 12.954 9.87825 14.125C11.0513 15.296 12.9522 15.296 14.1233 14.125Z" fill="#2E2E2E"/>
</svg>
