<svg width="52" height="52" viewBox="0 0 52 52" fill="none" xmlns="http://www.w3.org/2000/svg">
<path fill-rule="evenodd" clip-rule="evenodd" d="M35.0002 24.2001C35.0002 23.206 34.1943 22.4001 33.2002 22.4001H29.6001V18.8C29.6001 17.8059 28.7942 17 27.8001 17H24.2001C23.206 17 22.4001 17.8059 22.4001 18.8V22.4001H18.8C17.8059 22.4001 17 23.206 17 24.2001V27.8001C17 28.7942 17.8059 29.6001 18.8 29.6001H22.4001V33.2002C22.4001 34.1943 23.206 35.0002 24.2001 35.0002H27.8001C28.7942 35.0002 29.6001 34.1943 29.6001 33.2002V29.6001H33.2002C34.1943 29.6001 35.0002 28.7942 35.0002 27.8001V24.2001Z" stroke="#2E2E2E" stroke-width="1.1" stroke-linecap="round" stroke-linejoin="round"/>
<rect x="0.5" y="0.5" width="51" height="51" rx="25.5" stroke="#2E2E2E"/>
</svg>
