<svg width="22" height="22" viewBox="0 0 22 22" fill="none" xmlns="http://www.w3.org/2000/svg">
<g id="Group">
<path id="Path" d="M8.49902 6.36378H17.6695" stroke="#2E2E2E" stroke-linecap="round" stroke-linejoin="round"/>
<path id="Path_2" d="M17.6695 11H8.49902" stroke="#2E2E2E" stroke-linecap="round" stroke-linejoin="round"/>
<path id="Path_3" d="M8.49902 15.6362H17.6695" stroke="#2E2E2E" stroke-linecap="round" stroke-linejoin="round"/>
<path id="Path_4" d="M4.74789 5.94694C4.51768 5.94694 4.33105 6.13356 4.33105 6.36378C4.33105 6.59399 4.51768 6.78062 4.74789 6.78062C4.97811 6.78062 5.16474 6.59399 5.16474 6.36378C5.16474 6.13356 4.97811 5.94694 4.74789 5.94694" stroke="#2E2E2E" stroke-linecap="round" stroke-linejoin="round"/>
<path id="Path_5" d="M4.74789 10.5832C4.51768 10.5832 4.33105 10.7698 4.33105 11C4.33105 11.2302 4.51768 11.4168 4.74789 11.4168C4.97811 11.4168 5.16474 11.2302 5.16474 11C5.16474 10.7698 4.97811 10.5832 4.74789 10.5832" stroke="#2E2E2E" stroke-linecap="round" stroke-linejoin="round"/>
<path id="Path_6" d="M4.74789 15.2194C4.51768 15.2194 4.33105 15.406 4.33105 15.6362C4.33105 15.8665 4.51768 16.0531 4.74789 16.0531C4.97811 16.0531 5.16474 15.8665 5.16474 15.6362C5.16474 15.406 4.97811 15.2194 4.74789 15.2194" stroke="#2E2E2E" stroke-linecap="round" stroke-linejoin="round"/>
</g>
</svg>
