<svg width="20" height="20" viewBox="0 0 20 20" fill="none" xmlns="http://www.w3.org/2000/svg">
<g clip-path="url(#clip0_93_2)">
<path d="M10.406 8.37195C10.6321 8.59803 10.6321 8.96554 10.406 9.19161C10.18 9.41768 9.81243 9.41768 9.58636 9.19161C9.36029 8.96554 9.36029 8.59803 9.58636 8.37195C9.81243 8.14588 10.1788 8.14588 10.406 8.37195Z" stroke="white" stroke-width="1.2" stroke-linecap="round" stroke-linejoin="round"/>
<path d="M14.9925 8.9006C14.9925 10.2582 14.3896 11.5439 13.3474 12.4135L11.7092 13.7792C11.0565 14.3241 10.5684 15.0394 10.2994 15.8463L9.99567 16.7529L9.69308 15.8452C9.42411 15.0394 8.93602 14.3229 8.2833 13.778L6.64513 12.4123C5.60171 11.5428 5 10.257 5 8.89944V8.92495C4.99884 5.8086 7.58073 4 9.99567 4C12.4106 4 14.9925 5.8086 14.9925 8.92611" stroke="white" stroke-width="1.2" stroke-linecap="round" stroke-linejoin="round"/>
</g>
<defs>
<clipPath id="clip0_93_2">
<rect width="12" height="15" fill="white" transform="translate(4 3)"/>
</clipPath>
</defs>
</svg>
