<svg width="12" height="15" viewBox="0 0 12 15" fill="none" xmlns="http://www.w3.org/2000/svg">
<g id="Group">
<path id="Path" d="M6.40602 5.37199C6.63209 5.59807 6.63209 5.96559 6.40602 6.19166C6.17994 6.41773 5.81242 6.41773 5.58635 6.19166C5.36028 5.96559 5.36028 5.59807 5.58635 5.37199C5.81242 5.14592 6.17878 5.14592 6.40602 5.37199" stroke="white" stroke-width="1.2" stroke-linecap="round" stroke-linejoin="round"/>
<path id="Path_2" d="M10.9925 5.9006V5.9006C10.9925 7.25821 10.3896 8.54394 9.34737 9.41346L7.7092 10.7792C7.05648 11.3241 6.56839 12.0394 6.29942 12.8463L5.99567 13.7529L5.69308 12.8452C5.42411 12.0394 4.93602 11.3229 4.2833 10.778L2.64513 9.4123C1.60171 8.54278 1 7.25705 1 5.89944V5.89944V5.92495C0.998841 2.8086 3.58073 1 5.99567 1C8.41061 1 10.9925 2.8086 10.9925 5.92611" stroke="white" stroke-width="1.2" stroke-linecap="round" stroke-linejoin="round"/>
</g>
</svg>
