<svg width="1520" height="184" viewBox="0 0 1520 184" fill="none" xmlns="http://www.w3.org/2000/svg">
<rect opacity="0.2" y="99" width="1520" height="1" fill="white"/>
<g opacity="0.7">
<path d="M787.659 29.1468C787.151 29.7086 786.531 30.1577 785.839 30.4651C785.147 30.7725 784.398 30.9314 783.64 30.9316C782.214 30.9064 780.854 30.3221 779.854 29.3044C778.854 28.2867 778.294 26.9171 778.294 25.4904C778.294 24.0636 778.854 22.694 779.854 21.6763C780.854 20.6586 782.214 20.0743 783.64 20.0491C784.813 20.0491 785.898 20.426 786.789 21.0581L789.755 16.887C787.97 15.613 785.833 14.9281 783.64 14.9282C780.839 14.9282 778.152 16.0411 776.171 18.022C774.19 20.003 773.077 22.6897 773.077 25.4912C773.077 28.2927 774.19 30.9794 776.171 32.9604C778.152 34.9413 780.839 36.0542 783.64 36.0542C786.231 36.0522 788.731 35.0955 790.661 33.367L787.659 29.1468ZM763.641 15.5552L760.687 19.7162C762.171 19.8643 763.542 20.578 764.514 21.7093C765.487 22.8405 765.986 24.3026 765.91 25.7924C765.833 27.2822 765.187 28.6854 764.103 29.7111C763.02 30.7368 761.584 31.3064 760.092 31.3017V10.3413H755.172V14.9282C753.785 14.9282 752.412 15.2014 751.13 15.7323C749.849 16.2631 748.684 17.0412 747.703 18.022C746.722 19.0029 745.944 20.1673 745.413 21.4489C744.883 22.7305 744.609 24.104 744.609 25.4912C744.609 26.8784 744.883 28.2519 745.413 29.5335C745.944 30.8151 746.722 31.9795 747.703 32.9604C748.684 33.9412 749.849 34.7193 751.13 35.2501C752.412 35.781 753.785 36.0542 755.172 36.0542V40.8084H760.092V36.0525C762.582 36.0567 764.993 35.1805 766.899 33.5789C768.805 31.9772 770.083 29.7533 770.508 27.3001C770.933 24.847 770.477 22.3227 769.22 20.1734C767.963 18.0241 765.987 16.3883 763.641 15.5552ZM749.36 25.4912C749.36 24.7285 749.51 23.9732 749.802 23.2685C750.094 22.5639 750.522 21.9236 751.062 21.3843C751.601 20.8451 752.241 20.4174 752.946 20.1256C753.651 19.8339 754.406 19.6839 755.169 19.6841V31.2983C754.406 31.2985 753.651 31.1485 752.946 30.8567C752.242 30.565 751.602 30.1372 751.062 29.5979C750.523 29.0587 750.095 28.4184 749.803 27.7138C749.512 27.0091 749.362 26.2539 749.362 25.4912H749.36ZM799.071 35.63H793.694V15.349H799.069L799.071 35.63ZM799.752 25.4895L807.024 15.349H812.618L805.287 25.3442L813.004 35.63H807.332L799.752 25.4895Z" fill="white"/>
<path d="M715.595 17.9028H736.767C735.717 15.5476 734.192 13.4345 732.288 11.6957C730.384 9.95695 728.141 8.62997 725.7 7.79785L715.594 17.9028H715.595Z" fill="white"/>
<path d="M737.818 20.8762H712.011C711.716 20.8767 711.428 20.7897 711.183 20.6261C710.938 20.4625 710.747 20.2297 710.634 19.9574C710.521 19.685 710.492 19.3853 710.55 19.0964C710.608 18.8074 710.751 18.5422 710.96 18.3343L722.312 6.98376C721.445 6.86159 720.571 6.79947 719.696 6.79785C709.369 6.79785 701 15.1671 701 25.4935C701 26.8743 701.155 28.2196 701.439 29.5193H727.522C727.817 29.5188 728.105 29.6059 728.351 29.7695C728.596 29.9331 728.787 30.1658 728.899 30.4382C729.012 30.7105 729.041 31.0102 728.983 31.2992C728.925 31.5882 728.783 31.8534 728.574 32.0612L716.689 43.9458C717.669 44.1047 718.67 44.1909 719.692 44.1909C730.019 44.1909 738.388 35.8216 738.388 25.4969C738.395 23.8998 738.194 22.3534 737.818 20.8762Z" fill="white"/>
<path d="M723.944 32.499H702.375C703.363 34.9339 704.851 37.1339 706.743 38.9566C708.636 40.7792 710.89 42.1837 713.361 43.0789L723.944 32.499Z" fill="white"/>
</g>
<rect opacity="0.2" x="304" y="65" width="1" height="68" fill="white"/>
<rect opacity="0.2" x="609" y="65" width="1" height="68" fill="white"/>
<rect opacity="0.2" x="914" y="65" width="1" height="68" fill="white"/>
<rect opacity="0.2" x="1219" y="65" width="1" height="68" fill="white"/>
<path opacity="0.7" fill-rule="evenodd" clip-rule="evenodd" d="M717.578 170.573H712.306C704.082 170.573 710.057 153.035 716.98 153.035H725.309C726.645 153.035 728.999 153.282 730.159 149.965L731.952 144.813H720.53C714.344 144.813 709.529 147.001 706.05 150.671C700.04 156.952 698.003 166.762 699.443 171.455C700.814 175.795 704.539 178.653 710.373 178.723L714.906 178.759H720.495L721.865 174.631C722.884 171.702 720.6 170.573 717.578 170.573ZM781.75 163.304L783.472 157.693H765.092C762.035 157.693 760.664 158.54 760.137 160.304L758.414 165.915H776.795C779.853 165.915 781.223 165.068 781.75 163.304ZM755.674 173.184L753.951 178.794H772.332C775.354 178.794 776.76 177.948 777.287 176.183L779.009 170.573H760.629C757.607 170.573 756.236 171.419 755.674 173.184ZM786.038 150.459L787.76 144.849H769.38C766.322 144.849 764.952 145.695 764.424 147.46L762.702 153.07H781.083C784.105 153.07 785.475 152.223 786.038 150.459ZM758.274 151.589C757.501 146.366 754.725 144.849 747.977 144.849H735.677L728.507 165.915H733.041C735.747 165.915 737.117 165.95 738.559 162.069L741.546 153.035H746.114C750.016 153.035 749.137 157.94 747.169 162.703C745.411 166.903 742.354 170.608 738.664 170.608H731.038C727.98 170.608 726.574 171.455 726.012 173.219L724.114 178.829H729.702L735.185 178.794C740.034 178.759 744.006 178.406 748.645 174.207C753.565 169.726 759.258 158.222 758.274 151.589ZM820.057 144.813H809.408L799.392 155.505C798.233 156.74 797.038 157.975 795.878 159.422H795.773L800.763 144.813H792.082L780.38 178.794H789.06L792.785 168.102L796.651 164.821L799.709 174.489C800.657 177.489 801.642 178.794 803.75 178.794H810.392L803.575 159.81L820.057 144.813Z" fill="white"/>
<g opacity="0.7" clip-path="url(#clip0_755_4579)">
<path fill-rule="evenodd" clip-rule="evenodd" d="M413.477 142.063L411.607 147.187H437.527L439.397 142.063H413.477ZM410.671 149.747L408.8 154.869H434.721L436.591 149.747H410.671ZM407.87 157.431L406 162.554H431.92L433.79 157.431H407.87Z" fill="white"/>

<g mask="url(#mask0_755_4579)">
<path fill-rule="evenodd" clip-rule="evenodd" d="M461.107 164.506V164.614C462.291 165.049 463.423 165.809 464.016 166.297C465.847 167.818 466.656 169.826 466.656 172.433C466.656 176.724 464.393 179.818 460.675 180.796C459.544 181.121 458.359 181.231 456.149 181.231H444.891V149.845H454.857C456.905 149.845 458.305 149.953 459.544 150.279C463.154 151.256 465.524 153.755 465.524 157.718C465.524 159.836 464.77 161.628 463.531 162.822C462.993 163.365 462.238 164.017 461.107 164.506ZM451.14 167.818V176.071H455.45C456.742 176.071 457.928 175.963 458.791 175.148C459.652 174.334 460.029 173.302 460.029 171.945C460.029 170.913 459.76 169.936 459.221 169.23C458.305 168.09 457.174 167.818 455.235 167.818H451.14ZM451.086 162.388H454.588C455.665 162.388 456.204 162.388 456.742 162.225C458.198 161.79 459.114 160.488 459.114 158.695C459.114 156.578 458.144 155.654 456.742 155.221C456.149 155.058 455.558 155.003 454.372 155.003H451.086V162.388ZM476.03 181.231V155.111H467.033V149.845H492.032L490.254 155.111H482.279V181.231H476.03ZM493.971 181.231V149.845H514.228L512.451 155.111H500.167V162.062H505.177C509.218 162.062 511.319 163.04 512.774 164.288C513.905 165.266 515.844 167.437 515.844 171.728C515.844 175.963 513.851 178.298 512.181 179.493C510.242 180.849 508.195 181.231 504.046 181.231H493.971ZM500.167 175.963H504.854C506.632 175.963 507.709 175.529 508.463 174.551C508.841 174.063 509.379 173.193 509.379 171.564C509.379 169.936 508.841 168.795 507.763 167.98C507.117 167.492 506.255 167.221 504.8 167.221H500.167V175.963Z" fill="white"/>
</g>
</g>
<g opacity="0.7" clip-path="url(#clip1_755_4579)">
<path fill-rule="evenodd" clip-rule="evenodd" d="M238.51 48.6586H231.615C230.789 48.6914 229.964 48.5526 229.193 48.2511C228.423 47.9495 227.722 47.4916 227.134 46.906C226.548 46.3202 226.087 45.6194 225.783 44.8471C225.477 44.0748 225.335 43.2477 225.363 42.4173V13.5038H230.165V40.0709C230.165 41.3595 230.351 42.6701 231.17 43.1399C231.942 43.4181 232.764 43.5182 233.58 43.4327H237.981V13.5038H242.781V48.6586H238.51ZM238.597 8.98525L236.214 9.05805H232.006L229.637 8.99761C229.553 8.96837 229.467 8.95441 229.379 8.9564C227.098 8.70086 227.353 6.10982 227.353 4.57251H240.792C240.794 6.15103 240.951 8.74894 238.597 8.98525ZM213.359 48.6586H207.562C206.735 48.6904 205.913 48.5511 205.142 48.2494C204.373 47.9477 203.674 47.4902 203.087 46.9052C202.501 46.3202 202.042 45.6204 201.737 44.8492C201.432 44.078 201.288 43.2522 201.314 42.4228V19.7739C201.288 18.9444 201.432 18.1181 201.736 17.3467C202.04 16.5752 202.501 15.875 203.086 15.2897C203.672 14.7044 204.372 14.2466 205.142 13.9448C205.912 13.643 206.735 13.5036 207.562 13.5354H213.359C214.185 13.5032 215.01 13.6423 215.779 13.944C216.549 14.2456 217.249 14.7034 217.835 15.2887C218.421 15.874 218.882 16.5743 219.187 17.346C219.492 18.1177 219.635 18.9441 219.608 19.7739V42.4242C219.635 43.2537 219.491 44.0797 219.185 44.8509C218.881 45.6221 218.42 46.3219 217.834 46.9067C217.247 47.4916 216.548 47.949 215.779 48.2504C215.008 48.5518 214.185 48.6908 213.359 48.6586ZM214.809 22.0834C214.809 20.7975 214.623 19.4853 213.803 19.0156C213.031 18.7385 212.206 18.6395 211.391 18.7256H209.53C208.715 18.6395 207.891 18.7386 207.119 19.0156C206.298 19.4853 206.114 20.8015 206.114 22.0834V40.0626C206.114 41.3499 206.297 42.6605 207.119 43.1317C207.891 43.406 208.715 43.5046 209.53 43.4202H211.391C212.206 43.5047 213.03 43.4061 213.803 43.1317C214.624 42.6605 214.809 41.3457 214.809 40.0626V22.0834ZM189.865 34.4245H183.503V48.66H178.702V13.5326H189.865C190.691 13.5007 191.514 13.6399 192.284 13.9416C193.054 14.2434 193.754 14.7011 194.34 15.2864C194.927 15.8717 195.386 16.572 195.691 17.3436C195.996 18.1152 196.139 18.9415 196.112 19.7711V28.1845C196.14 29.0143 195.997 29.8407 195.692 30.6124C195.387 31.3843 194.927 32.0847 194.341 32.6701C193.755 33.2556 193.055 33.7135 192.285 34.0153C191.515 34.3171 190.691 34.4564 189.865 34.4245ZM191.311 22.0874C191.311 20.7975 191.123 19.4867 190.308 19.0196C189.537 18.7407 188.714 18.6406 187.899 18.727H183.503V29.2203H187.895C188.711 29.3065 189.536 29.2069 190.308 28.9291C191.129 28.462 191.311 27.15 191.311 25.8669V22.0888V22.0874ZM167.529 48.66H162.725V18.7256H156.414V13.5051H173.841V18.7256H167.529V48.6586V48.66ZM146.834 48.66H141.969C141.144 48.6915 140.32 48.5521 139.551 48.2504C138.781 47.9486 138.082 47.4911 137.496 46.9061C136.91 46.3212 136.451 45.6214 136.146 44.8503C135.841 44.0792 135.697 43.2534 135.724 42.4242V19.7808C135.698 18.9516 135.841 18.126 136.146 17.3551C136.451 16.5842 136.911 15.8846 137.497 15.2998C138.082 14.715 138.782 14.2575 139.551 13.9559C140.321 13.6542 141.144 13.5148 141.969 13.5463H146.834C147.659 13.5148 148.482 13.6542 149.252 13.9559C150.021 14.2575 150.72 14.715 151.306 15.2998C151.892 15.8846 152.352 16.5842 152.656 17.3551C152.962 18.126 153.105 18.9516 153.079 19.7808V22.7112H148.281V22.0834C148.281 20.7961 148.091 19.4853 147.277 19.0156C146.506 18.7397 145.683 18.6412 144.869 18.727H143.935C143.121 18.641 142.299 18.7396 141.529 19.0156C140.708 19.4853 140.526 20.8015 140.526 22.0834V40.0653C140.526 41.3526 140.706 42.6619 141.529 43.1331C142.3 43.4067 143.121 43.5047 143.935 43.4202H144.869C145.683 43.5046 146.505 43.4064 147.277 43.1331C148.098 42.6619 148.281 41.3471 148.281 40.0653V39.4815H153.079V42.4228C153.105 43.252 152.962 44.0779 152.657 44.8489C152.352 45.62 151.892 46.3198 151.307 46.9047C150.721 47.4897 150.021 47.9473 149.252 48.249C148.482 48.5508 147.659 48.6901 146.834 48.6586V48.66ZM124.33 34.254H116.532V48.6009H111.7V13.4983H116.532V29.0225H124.33V13.4983H129.129V48.5995H124.33V34.2527V34.254ZM98.8491 48.66H93.0487C92.2232 48.6915 91.4 48.5521 90.6305 48.2504C89.861 47.9486 89.1616 47.4911 88.5758 46.9061C87.9899 46.3212 87.5303 45.6214 87.2254 44.8503C86.9205 44.0792 86.777 43.2534 86.8037 42.4242V19.7739C86.7766 18.9445 86.9198 18.1184 87.2246 17.347C87.5293 16.5756 87.9889 15.8755 88.5747 15.2902C89.1606 14.705 89.8602 14.2471 90.6298 13.9452C91.3996 13.6433 92.2229 13.5038 93.0487 13.5354H98.8491C99.6751 13.5032 100.499 13.6423 101.269 13.944C102.039 14.2456 102.74 14.7034 103.326 15.2887C103.912 15.874 104.372 16.5743 104.677 17.346C104.982 18.1177 105.125 18.9441 105.098 19.7739V42.4242C105.125 43.2537 104.981 44.0797 104.676 44.8509C104.371 45.6221 103.911 46.3219 103.324 46.9067C102.738 47.4916 102.038 47.949 101.268 48.2504C100.498 48.5518 99.6749 48.6908 98.8491 48.6586V48.66ZM100.298 22.0874C100.298 20.7975 100.11 19.4867 99.2923 19.0196C98.5216 18.7407 97.6979 18.6407 96.8832 18.727H95.0009C94.1862 18.6406 93.3625 18.7406 92.5918 19.0196C91.7709 19.4867 91.5864 20.7975 91.5864 22.0874V40.0626C91.5864 41.3513 91.7709 42.6619 92.5918 43.1304C93.3632 43.4064 94.1862 43.506 95.0009 43.4216H96.8832C97.6979 43.5058 98.5209 43.4063 99.2923 43.1304C100.113 42.6619 100.298 41.3443 100.298 40.0626V22.086V22.0874ZM61.7019 43.4339H62.0358V19.7464C62.008 18.9159 62.1511 18.0884 62.4561 17.3159C62.7611 16.5433 63.2215 15.8422 63.8085 15.2564C64.3954 14.6705 65.0964 14.2126 65.8675 13.911C66.6386 13.6094 67.4634 13.4708 68.2903 13.5038H79.4575V43.4327H79.8351C82.8624 43.4327 84.2893 45.7516 84.2277 48.6531H57.3065C57.2463 45.7516 58.6745 43.4327 61.7019 43.4327V43.4339ZM66.8224 43.4339H74.6516V18.7256H70.2356C69.4202 18.6387 68.5958 18.7378 67.8238 19.0156C67.003 19.4853 66.8183 20.8015 66.8183 22.086V43.4327L66.8224 43.4339Z" fill="white"/>
</g>
<g opacity="0.7" clip-path="url(#clip2_755_4579)">
<path d="M378.438 15.1646C379.272 16.2568 379.977 17.4435 380.541 18.7007L364.556 30.6429L357.875 26.3987V21.2927L364.556 25.5369L378.438 15.1646Z" fill="white"/>
<path d="M351.054 26.0379C351.054 25.8088 351.06 25.5812 351.071 25.3549L347.022 25.1538C347.008 25.4471 347 25.7432 347 26.042C346.998 28.3769 347.451 30.6891 348.334 32.846C349.216 35.003 350.509 36.9622 352.14 38.6112L355.012 35.7022C353.756 34.435 352.761 32.9288 352.081 31.2703C351.402 29.6118 351.053 27.8335 351.054 26.0379Z" fill="white"/>
<path d="M364.55 12.3618C364.776 12.3618 365 12.3702 365.224 12.3814L365.426 8.27682C365.136 8.26285 364.844 8.25587 364.55 8.25587C362.245 8.25302 359.962 8.71162 357.833 9.60534C355.703 10.4991 353.769 11.8103 352.141 13.4637L355.012 16.3742C356.263 15.1015 357.749 14.0918 359.386 13.4032C361.023 12.7146 362.778 12.3607 364.55 12.3618Z" fill="white"/>
<path d="M364.55 39.7146C364.324 39.7146 364.099 39.7146 363.874 39.6964L363.672 43.7995C363.963 43.8144 364.256 43.8219 364.55 43.8219C366.854 43.8243 369.135 43.3654 371.264 42.4715C373.392 41.5775 375.325 40.2661 376.952 38.6127L374.086 35.7036C372.835 36.9757 371.349 37.9848 369.712 38.6731C368.076 39.3615 366.321 39.7154 364.55 39.7146Z" fill="white"/>
<path d="M372.159 14.748L375.571 12.1993C372.453 9.63998 368.56 8.2468 364.547 8.25393V12.3613C367.264 12.3579 369.918 13.1901 372.159 14.748Z" fill="white"/>
<path d="M382.1 26.0381C382.102 24.9696 382.01 23.9029 381.824 22.8511L378.047 25.6722C378.047 25.7937 378.047 25.9152 378.047 26.0381C378.048 27.949 377.653 29.8388 376.887 31.585C376.121 33.3312 375.002 34.8948 373.602 36.1744L376.326 39.226C378.146 37.5605 379.601 35.5258 380.596 33.254C381.591 30.982 382.103 28.5236 382.1 26.0381Z" fill="white"/>
<path d="M364.544 39.7149C362.658 39.7155 360.794 39.3148 359.07 38.5387C357.347 37.7626 355.804 36.6283 354.541 35.2095L351.531 37.9691C353.174 39.8144 355.182 41.2889 357.424 42.2973C359.666 43.3055 362.091 43.8251 364.544 43.8221V39.7149Z" fill="white"/>
<path d="M355.5 15.9016L352.777 12.8501C350.956 14.5153 349.5 16.5499 348.505 18.8218C347.51 21.0937 346.997 23.5523 347 26.038H351.054C351.053 24.1272 351.449 22.2374 352.214 20.4912C352.98 18.7451 354.1 17.1814 355.5 15.9016Z" fill="white"/>
<mask id="mask1_755_4579" style="mask-type:luminance" maskUnits="userSpaceOnUse" x="391" y="14" width="184" height="24">
<path d="M574.683 14.4409H391.547V37.9516H574.683V14.4409Z" fill="white"/>
</mask>
<g mask="url(#mask1_755_4579)">
<path d="M448.276 18.4248L453.297 14.7183H436.492V36.9916H453.297V33.285H441.287V27.5797H451.532V23.8731H441.287V18.4248H448.276Z" fill="white"/>
<path d="M425.189 23.3947H419.355V18.4229H428.666L433.684 14.7051H414.562V36.9784H424.572C430.184 36.9784 433.404 34.4299 433.404 29.9855C433.404 25.7336 430.487 23.3947 425.189 23.3947ZM424.356 33.2707H419.355V27.099H424.356C427.391 27.099 428.814 28.1333 428.814 30.1849C428.814 32.2364 427.3 33.2707 424.356 33.2707Z" fill="white"/>
<path d="M465.647 14.7153H456.5V36.9886H461.294V30.679H465.647C471.484 30.679 475.094 27.6019 475.094 22.6852C475.094 17.7687 471.484 14.7153 465.647 14.7153ZM465.546 26.9696H461.294V18.4247H465.546C468.616 18.4247 470.31 19.943 470.31 22.6988C470.31 25.4547 468.616 26.9696 465.546 26.9696Z" fill="white"/>
<path d="M407.363 31.7319C406.125 32.4039 404.737 32.7518 403.329 32.7436C399.113 32.7436 396.056 29.7283 396.056 25.5762C396.056 21.424 399.113 18.4022 403.329 18.4022C404.849 18.3763 406.337 18.8382 407.577 19.7204L410.931 17.2455L410.704 17.084C408.748 15.3606 406.133 14.4478 403.141 14.4478C399.896 14.4478 396.953 15.5418 394.852 17.5322C393.79 18.557 392.95 19.7903 392.384 21.155C391.818 22.5197 391.539 23.9865 391.564 25.4641C391.542 26.9567 391.819 28.4385 392.381 29.8212C392.942 31.2038 393.776 32.4588 394.832 33.5114C396.943 35.5809 399.88 36.721 403.102 36.721C406.469 36.721 409.412 35.5446 411.404 33.4027L408.402 31.1618L407.363 31.7319Z" fill="white"/>
<path d="M494.112 23.3947H488.28V18.4229H500.812V14.7051H483.484V36.9784H493.481C499.092 36.9784 502.313 34.4299 502.313 29.9855C502.326 25.7336 499.41 23.3947 494.112 23.3947ZM493.279 33.2707H488.28V27.099H493.279C496.314 27.099 497.736 28.1333 497.736 30.1849C497.736 32.2364 496.235 33.2707 493.279 33.2707Z" fill="white"/>
<path d="M556.814 36.9467H551.953V14.6733H556.814V24.0283H559.46L566.604 14.6733H572.113L563.639 25.269L573.479 36.9467H567.029L559.797 28.1868H556.814V36.9467Z" fill="white"/>
<path d="M519.964 32.7142H509.682L507.938 37.0394H502.766L512.41 14.7661H517.582L527.069 37.0394H521.707L519.964 32.7142ZM518.354 28.6785L514.853 20.0279L511.333 28.6785H518.354Z" fill="white"/>
<path d="M533.621 14.7661V24.067H543.68V14.7661H548.692V37.0394H543.68V28.263H533.621V37.0394H528.609V14.7661H533.621Z" fill="white"/>
</g>
</g>
<g opacity="0.7" clip-path="url(#clip3_755_4579)">
<path fill-rule="evenodd" clip-rule="evenodd" d="M960 26.4584C960 38.5332 969.798 48.3313 981.873 48.3313C993.948 48.3313 1003.75 38.5332 1003.75 26.4584C1003.75 14.3835 993.948 4.58545 981.873 4.58545C969.798 4.58545 960 14.3835 960 26.4584ZM960.772 26.4584C960.772 14.7901 970.245 5.31726 981.914 5.31726C993.582 5.31726 1003.05 14.7901 1003.05 26.4584C1003.05 38.086 993.582 47.5588 981.914 47.5588C970.245 47.5995 960.772 38.1266 960.772 26.4584Z" fill="white"/>
<path fill-rule="evenodd" clip-rule="evenodd" d="M966.835 20.4821C972.445 16.823 978.625 14.6683 989.114 16.4978C989.684 16.1725 990.009 15.8473 990.171 15.1561C987.569 14.221 984.724 13.8958 981.064 13.9365C977.771 14.0178 971.836 15.2374 968.664 17.1076L969.64 15.8879C971.876 14.587 977.649 12.8794 981.959 12.7574C985.008 12.7168 986.594 12.8794 990.212 13.8551C989.887 13.2453 989.155 12.9201 988.057 12.4322C984.561 10.8466 977.975 10.7246 972.608 13.0827C973.299 12.6355 973.95 12.2289 974.844 11.8223C976.633 11.0092 979.52 10.2368 983.138 10.2774C986.025 10.3181 989.48 11.3345 991.594 13.4079C991.96 13.8145 992.164 14.2617 992.245 14.6276C993.912 15.4814 994.888 16.2538 995.416 17.1889C995.619 17.6768 995.741 18.2053 995.619 18.7745C996.31 19.1811 996.636 19.547 997.002 19.9942C997.246 20.3601 997.449 20.8073 997.49 21.2139C997.571 21.7424 997.611 22.3116 997.083 23.0027C997.652 23.2873 998.099 24.0598 998.181 24.4257C998.425 25.686 997.652 26.9057 996.554 27.8815C995.335 28.9792 992.611 30.2395 990.415 30.8087C986.025 31.9064 982.162 32.3943 979.072 32.9635C980.455 33.2887 982.325 33.7359 985.415 33.7359C991.96 33.7359 997.733 30.6461 997.733 30.6461C997.733 30.6461 997.611 31.0526 997.49 31.4185C993.343 33.9392 986.716 34.9963 983.91 34.8743C981.024 34.7523 978.625 34.3051 976.267 33.5733C975.535 33.7766 974.844 33.9799 974.153 34.3051C977.731 35.9313 980.455 36.2972 983.545 36.5412C986.675 36.7851 991.838 36.0127 996.229 34.4271C996.026 34.6304 995.945 34.9556 995.741 35.1182C993.505 36.2972 988.748 37.4763 986.39 37.5576C984.032 37.6389 981.146 37.5576 978.625 37.1104C976.47 36.7038 974.682 36.0127 972.852 35.1995C972.527 35.4435 972.364 35.7687 972.283 36.1346C979.316 39.875 986.065 39.9563 993.749 37.5576L993.058 38.2487C984.602 41.6638 978.015 40.3222 972.893 37.8828C972.73 37.8015 972.527 37.7202 972.364 37.6389C972.852 38.452 976.755 41.2979 981.105 41.6638C984.114 41.9078 987.773 41.3792 989.968 40.5255L988.667 41.176C987.61 41.7045 984.805 42.8835 980.902 42.5989C975.698 42.233 972.771 39.9563 971.429 38.7366C970.819 38.1674 970.535 37.5169 970.331 36.7038C969.152 36.094 968.42 35.4435 967.811 34.5084C967.445 33.9392 967.526 33.3294 967.607 32.8008L967.729 32.313C967.16 31.9064 966.591 31.4592 966.347 31.012C965.818 30.0769 966.144 29.3044 966.51 28.6539C966.184 28.288 965.9 27.9628 965.778 27.5969C965.656 27.1497 965.615 26.7431 965.656 26.2959C965.737 25.5234 966.184 24.7916 966.713 24.1818C967.851 22.8808 969.64 21.8644 972.73 20.848C975.739 19.8722 976.918 19.7096 979.194 19.1811C981.837 18.5712 985.008 18.368 987.651 17.4329C980.292 16.1319 972.608 17.3109 966.388 21.6204L966.835 20.4821ZM991.92 15.9286C991.838 16.2945 991.432 16.7011 991.188 16.9857C992.001 17.1889 992.814 17.4735 993.587 17.7988C993.465 17.067 992.651 16.3758 991.92 15.9286ZM969.234 30.6461C968.746 30.3615 968.42 30.1989 968.055 29.9143C967.851 30.3615 968.258 30.89 968.664 31.1339C968.827 30.9713 969.03 30.8087 969.234 30.6461ZM994.074 21.0106C994.603 21.2545 995.091 21.4578 995.538 21.7831C995.863 21.1326 995.66 20.726 994.969 20.1568C994.725 20.4821 994.4 20.7667 994.074 21.0106ZM992.489 21.9863C991.432 22.4742 989.846 23.0027 987.651 23.5719C985.862 24.0191 981.43 24.6696 976.674 25.686C975.169 26.0113 971.104 26.987 969.112 28.6539C969.681 29.1011 970.006 29.2231 970.657 29.5484C971.47 29.0198 972.608 28.532 974.275 28.0847C977.202 27.3123 979.357 26.987 982 26.5398C984.602 26.1333 989.48 25.1169 992.204 24.1411C993.099 23.8159 993.912 23.4093 994.522 22.9214C994.318 22.7588 992.57 21.905 992.489 21.9863ZM971.998 33.3294C972.405 33.0854 972.893 32.8415 973.421 32.6382C972.649 32.313 971.876 31.9877 971.104 31.6218C970.738 31.8251 970.413 32.069 970.169 32.313C970.779 32.6382 971.348 33.0041 971.998 33.3294ZM969.478 33.5733C969.478 34.0612 969.762 34.5084 970.413 35.0369C970.494 34.7523 970.616 34.5897 970.819 34.3458C970.331 34.1018 969.925 33.8172 969.478 33.5733ZM973.177 24.5477C978.503 23.0027 984.114 22.5149 989.806 21.0106C987.569 20.4008 986.39 20.1568 984.032 20.4414C980.617 20.848 976.877 21.5798 973.665 22.5149C972.405 22.8808 965.778 24.7509 967.689 27.3936C967.689 27.4342 968.827 25.8487 973.177 24.5477ZM993.18 19.0998C992.326 18.6932 991.228 18.3273 990.049 18.0021C989.521 18.4086 988.952 18.7745 988.057 19.0998C989.48 19.3437 990.578 19.7503 991.798 20.1162C992.042 20.2381 993.017 19.303 993.18 19.0998ZM995.823 24.2224C995.66 24.3444 995.497 24.507 995.294 24.629C994.074 25.5641 992.164 26.2959 989.521 27.0277C984.032 28.4913 980.048 28.7352 975.495 29.8329C974.6 30.0362 973.706 30.3615 972.852 30.6867C973.706 31.1339 974.6 31.4998 975.535 31.8657C977.365 31.3372 978.259 31.0933 980.943 30.6461C981.959 30.4834 985.089 29.9143 987.366 29.4264C991.432 28.6133 997.408 26.7024 995.823 24.2224Z" fill="white"/>
<path fill-rule="evenodd" clip-rule="evenodd" d="M1024.69 35.9722H1029.2L1029.73 32.6791H1032.82L1033.35 35.9722H1037.86L1034.04 16.8232H1028.43L1024.69 35.9722ZM1031.31 22.5964L1032.17 28.4509H1030.5L1031.31 22.5964Z" fill="white"/>
<path fill-rule="evenodd" clip-rule="evenodd" d="M1042.17 24.2633C1042.9 24.2633 1044.2 23.8161 1044.2 22.3932C1044.2 20.7263 1042.66 20.6043 1042.25 20.6043C1041.72 20.6043 1040.79 20.6856 1039.81 21.1328L1039.77 16.9859C1041.27 16.62 1042.37 16.498 1043.63 16.498C1047.25 16.498 1048.92 19.0594 1048.92 21.5394C1048.92 23.9787 1047.49 25.4424 1046.15 26.0115V26.2148C1047.45 26.6214 1049.2 27.8817 1049.2 30.809C1049.2 34.4273 1046.68 36.4195 1043.47 36.4195C1041.72 36.4195 1040.62 36.1755 1039.28 35.4437L1039.36 31.4594C1040.62 31.988 1041.48 32.0286 1042.33 32.0286C1043.75 32.0286 1044.32 30.9716 1044.32 30.1991C1044.32 29.1421 1043.63 28.4103 1042.13 28.4103H1040.3V24.2633H1042.17Z" fill="white"/>
<path fill-rule="evenodd" clip-rule="evenodd" d="M1063.44 35.9722H1058.97V21.4174H1055.75V35.9722H1051.28V16.8232H1063.44V35.9722Z" fill="white"/>
<path fill-rule="evenodd" clip-rule="evenodd" d="M1065.95 35.9722H1070.38V29.6705H1071.89C1076.28 29.6705 1077.66 25.7269 1077.66 23.2062C1077.66 20.7262 1076.12 16.8232 1071.89 16.8232H1065.95V35.9722ZM1070.38 21.0515H1071.44C1072.46 21.0515 1073.07 21.6613 1073.07 23.2469C1073.07 25.3203 1072.01 25.4423 1071.44 25.4423H1070.38V21.0515Z" fill="white"/>
<path fill-rule="evenodd" clip-rule="evenodd" d="M1085.88 36.2161C1091.16 36.2161 1092.91 31.2967 1092.91 26.3773C1092.91 21.4579 1091.12 16.5386 1085.88 16.5386C1080.59 16.5386 1078.84 21.4579 1078.84 26.3773C1078.84 31.2967 1080.63 36.2161 1085.88 36.2161ZM1085.88 31.5813C1084.33 31.5813 1083.52 29.7518 1083.52 26.3773C1083.52 23.0029 1084.33 21.1734 1085.88 21.1734C1087.46 21.1734 1088.24 23.0029 1088.24 26.3773C1088.28 29.7518 1087.46 31.5813 1085.88 31.5813Z" fill="white"/>
<path fill-rule="evenodd" clip-rule="evenodd" d="M1112.26 35.9722H1117.58C1118.72 35.9722 1123.52 35.4843 1123.56 29.7112C1123.56 24.8325 1119.82 23.9787 1117.42 23.9787H1116.65V21.458H1122.54V16.8232H1112.3V35.9722H1112.26ZM1116.65 32.1506V27.8004H1117.3C1117.83 27.8004 1119.21 27.841 1119.21 29.7925C1119.21 31.8253 1117.79 32.1506 1117.3 32.1506H1116.65Z" fill="white"/>
<path fill-rule="evenodd" clip-rule="evenodd" d="M1151.34 35.9722H1147.03V28.3289H1143.9V35.9722H1139.55V16.8232H1143.9V23.7348H1147.03V16.8232H1151.34V35.9722Z" fill="white"/>
<path fill-rule="evenodd" clip-rule="evenodd" d="M1166.78 16.8232L1163.36 25.9302L1167.27 35.9722H1162.15L1159.67 28.2882H1158.61V35.9722H1154.26V16.8232H1158.61V23.7348H1159.54L1162.06 16.8232H1166.78Z" fill="white"/>
<path fill-rule="evenodd" clip-rule="evenodd" d="M1016.11 16.823H1025.22V21.6204H1020.62V35.972H1016.11V16.823Z" fill="white"/>
<path fill-rule="evenodd" clip-rule="evenodd" d="M1104.86 35.972V24.3037L1102.18 27.6375L1099.49 24.3037V35.972H1095.06V16.823H1098.84L1102.18 21.3358L1105.51 16.823H1109.29V35.972H1104.86Z" fill="white"/>
<path fill-rule="evenodd" clip-rule="evenodd" d="M1124.42 36.0127H1128.93L1129.46 32.7196H1132.55L1133.12 36.0127H1137.64L1133.81 16.8638H1128.2L1124.42 36.0127ZM1131.05 22.6369L1131.9 28.4914H1130.24L1131.05 22.6369Z" fill="white"/>
</g>
<g opacity="0.7">
<path d="M161.408 155.352L151.796 157.112C150.226 157.426 149.158 158.934 149.409 160.506C149.723 162.077 151.231 163.146 152.802 162.895L162.414 161.135C164.675 160.695 166.12 162.077 166.686 163.523C167.251 164.969 167.125 166.918 165.178 168.175L151.105 177.352C149.786 178.232 148.215 178.232 146.833 177.541C145.451 176.786 144.634 175.403 144.634 173.832V151.266C144.634 147.494 142.687 144.226 139.357 142.403C136.09 140.58 132.195 140.768 129.054 142.78L93.4953 165.849C89.4745 168.426 87.9668 173.141 89.7258 177.603C91.4849 182.066 95.8198 184.455 100.532 183.638L131.567 178.043C133.137 177.729 134.205 176.221 133.954 174.649C133.64 173.078 132.132 172.009 130.562 172.26L99.5264 177.855C97.2019 178.295 95.8198 176.912 95.2544 175.466C94.689 174.021 94.8146 172.072 96.7622 170.815L132.321 147.746C133.64 146.866 135.211 146.866 136.593 147.557C137.975 148.311 138.792 149.694 138.792 151.266V173.832C138.792 177.603 140.739 180.872 144.069 182.695C145.577 183.512 147.273 183.952 148.906 183.952C150.791 183.952 152.676 183.386 154.372 182.318L168.508 173.141C172.528 170.563 174.036 165.849 172.277 161.386C170.455 156.923 166.12 154.472 161.408 155.352ZM211.165 161.323C209.406 156.86 205.071 154.472 200.36 155.289L190.747 157.049C189.177 157.363 188.109 158.872 188.36 160.443C188.674 162.015 190.182 163.083 191.753 162.832L201.365 161.072C203.626 160.632 205.071 162.015 205.637 163.46C206.202 164.906 206.077 166.855 204.129 168.112L190.056 177.352C188.737 178.232 187.166 178.232 185.784 177.541C184.402 176.786 183.585 175.403 183.585 173.832V144.1C183.585 142.466 182.266 141.146 180.633 141.146C178.999 141.146 177.68 142.466 177.68 144.1V173.832C177.68 177.603 179.628 180.872 182.957 182.695C184.465 183.512 186.161 183.952 187.795 183.952C189.679 183.952 191.564 183.386 193.26 182.318L207.396 173.141C211.417 170.5 212.924 165.786 211.165 161.323Z" fill="white"/>
</g>
<g opacity="0.7">
<path d="M1382.58 24.6861V30.3457C1382.58 30.5559 1382.41 30.7377 1382.19 30.7377H1377.72C1374.11 30.6795 1372.66 29.0149 1372.61 25.3962C1372.66 21.8896 1373.95 20.1399 1377.74 20.0873V20.0953H1387.16V16.2209H1377.74C1371.03 16.255 1368.27 19.1082 1368.13 25.1726L1368.13 25.6484L1368.13 25.6564C1368.28 31.5418 1371.04 34.432 1377.55 34.5286V34.5331H1384.45C1386.04 34.5331 1387.18 33.2038 1387.18 31.802V24.6852L1382.58 24.6861ZM1419.5 34.5238V26.9837H1430.96V23.2428H1419.5V17.5931C1419.5 17.3772 1419.67 17.1983 1419.89 17.1983H1431.22V13.3253H1417.63C1416.04 13.3253 1414.9 14.6518 1414.9 16.0564V34.5238H1419.5ZM1353.78 30.6707C1353.55 30.6707 1353.38 30.4903 1353.38 30.2772V27.005H1364.84V23.267H1353.38V20.479C1353.38 20.266 1353.55 20.0842 1353.78 20.0842H1365.11V16.2098H1351.52C1349.92 16.2098 1348.78 17.542 1348.78 18.9438V31.8111C1348.78 33.2171 1349.92 34.5465 1351.52 34.5465H1365.11V30.6707H1353.78ZM1341.28 12.8901C1339.13 12.8901 1337.75 14.0377 1336.74 16.3456L1330.74 30.1446L1324.75 16.3456C1323.73 14.0377 1322.36 12.8901 1320.2 12.8901C1318.19 12.8901 1316.11 14.3317 1316.11 17.4633V34.5473H1320.7V17.9306L1326.73 31.6131C1327.54 33.5248 1328.84 34.7249 1330.74 34.7277H1330.75C1332.64 34.7243 1333.95 33.5248 1334.75 31.6131L1340.78 17.9306V34.5473H1345.38V17.4633C1345.38 14.3317 1343.29 12.8901 1341.28 12.8901ZM1397.64 27.0053L1400.47 20.3487C1400.56 20.1399 1400.72 20.0845 1400.84 20.0845H1400.85C1400.97 20.0845 1401.13 20.1399 1401.22 20.3487L1404.05 27.0053H1397.64ZM1404.62 18.2566C1403.85 16.5864 1402.32 15.7726 1400.85 15.7726H1400.84C1399.37 15.7726 1397.84 16.5864 1397.07 18.2566L1389.56 34.5468H1394.45L1396.08 30.6752H1405.61L1407.25 34.5468H1412.14L1404.62 18.2566ZM1472.39 16.2102V28.4654L1464.49 17.6929C1463.82 16.855 1463.08 16.2102 1461.56 16.2102C1460.16 16.2102 1458.43 17.3166 1458.43 19.4171V34.5583H1463.03V22.3059L1470.89 33.1139C1471.57 34.0456 1472.28 34.5583 1473.86 34.5583C1475.26 34.5583 1476.98 33.5542 1476.98 31.3499V16.2102H1472.39ZM1444.83 30.9293C1440.14 30.9293 1438.78 29.2051 1438.78 25.3662V25.3463C1438.78 21.621 1440.07 19.7904 1444.83 19.7904C1449.59 19.7904 1450.88 21.621 1450.88 25.3463V25.3662C1450.88 29.2051 1449.53 30.9293 1444.83 30.9293ZM1455.36 25.3463C1455.35 18.9268 1452.79 15.933 1444.83 15.933C1436.87 15.933 1434.31 18.9268 1434.31 25.3463V25.3592C1434.31 31.6792 1436.94 34.727 1444.83 34.727C1452.72 34.727 1455.36 31.6792 1455.36 25.3592V25.3463Z" fill="white"/>
<path d="M1284.98 21.2721C1283.71 21.2721 1282.68 20.2425 1282.68 18.9742C1282.68 17.7031 1283.71 16.6734 1284.98 16.6734C1286.25 16.6734 1287.28 17.7031 1287.28 18.9742C1287.28 20.2425 1286.25 21.2721 1284.98 21.2721ZM1288.5 6.104C1278.34 6.104 1270.11 14.3385 1270.11 24.4989C1270.11 33.3157 1276.31 40.6839 1284.59 42.4777V25.9703L1284.59 25.9691C1284.61 25.1724 1285.25 24.5304 1286.04 24.5006L1286.8 24.4995H1288.36C1288.47 24.4995 1288.56 24.4143 1288.56 24.3077L1288.56 6.1073M1301.18 34.5338C1299.91 34.5338 1298.88 33.5041 1298.88 32.233C1298.88 30.9661 1299.91 29.9365 1301.18 29.9365C1302.45 29.9365 1303.48 30.9661 1303.48 32.233C1303.48 33.5041 1302.45 34.5338 1301.18 34.5338ZM1295.79 34.5338C1294.52 34.5338 1293.49 33.5041 1293.49 32.233C1293.49 30.9661 1294.52 29.9365 1295.79 29.9365C1297.06 29.9365 1298.09 30.9661 1298.09 32.233C1298.09 33.5041 1297.06 34.5338 1295.79 34.5338ZM1290.4 34.5338C1289.13 34.5338 1288.1 33.5041 1288.1 32.233C1288.1 30.9661 1289.13 29.9365 1290.4 29.9365C1291.67 29.9365 1292.7 30.9661 1292.7 32.233C1292.7 33.5041 1291.67 34.5338 1290.4 34.5338ZM1290.77 6.24264V24.4984V25.2085V25.2213L1290.77 25.2259C1290.76 26.0468 1290.09 26.71 1289.27 26.71H1288.56H1287.01C1286.89 26.71 1286.8 26.8009 1286.8 26.9131V42.8169C1287.36 42.8681 1287.93 42.8965 1288.5 42.8965C1298.66 42.8965 1306.9 34.6591 1306.9 24.4987C1306.9 15.1095 1299.86 7.36179 1290.77 6.24264Z" fill="white"/>
</g>
<g opacity="0.7">
<path fill-rule="evenodd" clip-rule="evenodd" d="M1024.19 145.133C1025.18 145.127 1028.15 144.859 1029.41 149.101C1030.26 151.959 1031.6 156.64 1033.46 163.144H1034.21C1036.19 156.287 1037.56 151.606 1038.3 149.101C1039.57 144.815 1042.74 145.133 1044.01 145.133L1053.81 145.133V175.613H1043.83V157.65H1043.16L1037.59 175.613H1030.08L1024.51 157.637H1023.84V175.613H1013.85V145.133L1024.19 145.133ZM1068.15 145.133V163.108H1068.95L1075.72 148.327C1077.04 145.386 1079.84 145.133 1079.84 145.133H1089.5V175.613H1079.31V157.637H1078.51L1071.87 172.418C1070.56 175.347 1067.62 175.613 1067.62 175.613H1057.96V145.133H1068.15ZM1124.74 159.617C1123.32 163.647 1118.85 166.533 1113.91 166.533H1103.22V175.613H1093.52V159.617H1124.74Z" fill="white"/>
<path fill-rule="evenodd" clip-rule="evenodd" d="M1114.38 145.133H1093.02C1093.52 151.919 1099.37 157.728 1105.42 157.728H1125.42C1126.57 152.088 1122.6 145.133 1114.38 145.133Z" fill="white"/>
</g>
<defs>
<clipPath id="clip0_755_4579">
<rect width="110.052" height="39.4751" fill="white" transform="translate(406 142.062)"/>
</clipPath>
<clipPath id="clip1_755_4579">
<rect width="185.254" height="44.1147" fill="white" transform="translate(57 4.58545)"/>
</clipPath>
<clipPath id="clip2_755_4579">
<rect width="228.358" height="35.8848" fill="white" transform="translate(347 8.25391)"/>
</clipPath>
<clipPath id="clip3_755_4579">
<rect width="207.264" height="43.7458" fill="white" transform="translate(960 4.58545)"/>
</clipPath>
</defs>
</svg>
