<svg width="41" height="39" viewBox="0 0 41 39" fill="none" xmlns="http://www.w3.org/2000/svg">
<path d="M10.5355 38.8535C7.32268 38.8535 4.81009 37.5354 2.99773 34.8992C1.43251 32.7573 0.6499 29.8328 0.6499 26.1257C0.6499 21.0182 1.92679 16.199 4.48057 11.6681C7.03435 7.05478 10.1236 3.43006 13.7483 0.793898L15.4783 2.77101C12.4302 5.07765 9.91765 7.87858 7.94053 11.1738C6.04579 14.469 5.09842 17.7642 5.09842 21.0594C5.09842 21.9656 5.26318 22.707 5.5927 23.2836C5.92222 23.7779 6.49888 24.2722 7.32268 24.7665C7.89934 25.096 9.2998 25.2608 11.5241 25.2608C13.3364 25.2608 14.8193 25.9198 15.9726 27.2379C17.1259 28.4736 17.7026 29.9564 17.7026 31.6864C17.7026 33.9107 16.9611 35.6818 15.4783 36.9999C13.9955 38.2356 12.3479 38.8535 10.5355 38.8535ZM33.5195 38.8535C30.3067 38.8535 27.7941 37.5354 25.9818 34.8992C24.4165 32.7573 23.6339 29.8328 23.6339 26.1257C23.6339 21.0182 24.9108 16.199 27.4646 11.6681C30.0184 7.05478 33.1076 3.43006 36.7323 0.793898L38.4623 2.77101C35.4143 5.07765 32.9017 7.87858 30.9246 11.1738C29.0298 14.469 28.0824 17.7642 28.0824 21.0594C28.0824 21.9656 28.2472 22.707 28.5767 23.2836C28.9062 23.7779 29.4829 24.2722 30.3067 24.7665C30.8834 25.096 32.2838 25.2608 34.5081 25.2608C36.3204 25.2608 37.8033 25.9198 38.9566 27.2379C40.1099 28.4736 40.6866 29.9564 40.6866 31.6864C40.6866 33.9107 39.9452 35.6818 38.4623 36.9999C36.9795 38.2356 35.3319 38.8535 33.5195 38.8535Z" fill="#2E2E2E"/>
</svg>
