<svg width="853" height="60" viewBox="0 0 853 60" fill="none" xmlns="http://www.w3.org/2000/svg">
<g clip-path="url(#clip0_263_4765)">
<rect x="853" y="60" width="1" height="7" transform="rotate(180 853 60)" fill="white"/>
<rect x="830" y="60" width="1" height="7" transform="rotate(180 830 60)" fill="white"/>
<rect x="807" y="60" width="1" height="7" transform="rotate(180 807 60)" fill="white"/>
<rect x="784" y="60" width="1" height="16" transform="rotate(180 784 60)" fill="white"/>
<rect x="761" y="60" width="1" height="7" transform="rotate(180 761 60)" fill="white"/>
<rect x="738" y="60" width="1" height="7" transform="rotate(180 738 60)" fill="white"/>
<rect x="715" y="60" width="1" height="7" transform="rotate(180 715 60)" fill="white"/>
<rect x="692" y="60" width="1" height="16" transform="rotate(180 692 60)" fill="white"/>
<rect x="669" y="60" width="1" height="7" transform="rotate(180 669 60)" fill="white"/>
<rect x="646" y="60" width="1" height="7" transform="rotate(180 646 60)" fill="white"/>
<rect x="623" y="60" width="1" height="7" transform="rotate(180 623 60)" fill="white"/>
<rect x="600" y="60" width="0.999997" height="16" transform="rotate(180 600 60)" fill="white"/>
<rect x="577" y="60" width="1" height="7" transform="rotate(180 577 60)" fill="white"/>
<rect x="554" y="60" width="1" height="7" transform="rotate(180 554 60)" fill="white"/>
<rect x="531" y="60" width="1" height="7" transform="rotate(180 531 60)" fill="white"/>
<rect x="508" y="60" width="1" height="16" transform="rotate(180 508 60)" fill="white"/>
<rect x="485" y="60" width="1" height="7" transform="rotate(180 485 60)" fill="white"/>
<rect x="462" y="60" width="1" height="7" transform="rotate(180 462 60)" fill="white"/>
<rect x="439" y="60" width="1" height="7" transform="rotate(180 439 60)" fill="white"/>
<rect x="416" y="60" width="1" height="60" transform="rotate(180 416 60)" fill="white"/>
<rect x="393" y="60" width="1" height="7" transform="rotate(180 393 60)" fill="white"/>
<rect x="370" y="60" width="1" height="7" transform="rotate(180 370 60)" fill="white"/>
<rect x="347" y="60" width="1" height="7" transform="rotate(180 347 60)" fill="white"/>
<rect x="324" y="60" width="1" height="16" transform="rotate(180 324 60)" fill="white"/>
<rect x="301" y="60" width="1" height="7" transform="rotate(180 301 60)" fill="white"/>
<rect x="278" y="60" width="1" height="7" transform="rotate(180 278 60)" fill="white"/>
<rect x="255" y="60" width="1" height="7" transform="rotate(180 255 60)" fill="white"/>
<rect x="232" y="60" width="1" height="16" transform="rotate(180 232 60)" fill="white"/>
<rect x="209" y="60" width="1" height="7" transform="rotate(180 209 60)" fill="white"/>
<rect x="186" y="60" width="1" height="7" transform="rotate(180 186 60)" fill="white"/>
<rect x="163" y="60" width="1" height="7" transform="rotate(180 163 60)" fill="white"/>
<rect x="140" y="60" width="1" height="16" transform="rotate(180 140 60)" fill="white"/>
<rect x="117" y="60" width="1" height="7" transform="rotate(180 117 60)" fill="white"/>
<rect x="94" y="60" width="1" height="7" transform="rotate(180 94 60)" fill="white"/>
<rect x="71" y="60" width="1" height="7" transform="rotate(180 71 60)" fill="white"/>
<rect x="48" y="60" width="1" height="16" transform="rotate(180 48 60)" fill="white"/>
<rect x="25" y="60" width="1" height="7" transform="rotate(180 25 60)" fill="white"/>
<rect x="2" y="60" width="1" height="7" transform="rotate(180 2 60)" fill="white"/>
</g>
<defs>
<clipPath id="clip0_263_4765">
<rect width="853" height="60" fill="white" transform="translate(853 60) rotate(180)"/>
</clipPath>
</defs>
</svg>
