<svg width="52" height="52" viewBox="0 0 52 52" fill="none" xmlns="http://www.w3.org/2000/svg">
<path fill-rule="evenodd" clip-rule="evenodd" d="M23.5661 17.6297L17.0288 21.2616C15.6545 22.025 15.6545 24.0008 17.0288 24.7642L23.5661 28.396C25.0781 29.2357 26.9173 29.2357 28.4304 28.396L34.9676 24.7642C36.342 24.0008 36.342 22.025 34.9676 21.2616L28.4304 17.6297C26.9173 16.7901 25.0792 16.7901 23.5661 17.6297Z" stroke="#2E2E2E" stroke-width="1.1" stroke-linecap="round" stroke-linejoin="round"/>
<path d="M19.6348 26.2119V30.3668C19.6348 31.3716 20.1377 32.3087 20.9731 32.8646L22.6747 33.9965C24.6875 35.3349 27.3071 35.3349 29.3189 33.9965L31.0204 32.8646C31.8569 32.3087 32.3588 31.3706 32.3588 30.3668V26.2119" stroke="#2E2E2E" stroke-width="1.1" stroke-linecap="round" stroke-linejoin="round"/>
<rect x="0.5" y="0.5" width="51" height="51" rx="25.5" stroke="#2E2E2E"/>
</svg>
