<svg width="18" height="18" viewBox="0 0 18 18" fill="none" xmlns="http://www.w3.org/2000/svg">
<g id="Interface, Essential/Share">
<path id="Path" fill-rule="evenodd" clip-rule="evenodd" d="M5.41464 7.58586C6.19579 8.36701 6.19579 9.6335 5.41464 10.4146C4.6335 11.1958 3.36701 11.1958 2.58586 10.4146C1.80471 9.6335 1.80471 8.36701 2.58586 7.58586C3.36701 6.80471 4.6335 6.80471 5.41464 7.58586Z" fill="#2E2E2E"/>
<path id="Path_2" fill-rule="evenodd" clip-rule="evenodd" d="M13.4146 3.58586C14.1958 4.36701 14.1958 5.6335 13.4146 6.41464C12.6335 7.19579 11.367 7.19579 10.5859 6.41464C9.80471 5.6335 9.80471 4.36701 10.5859 3.58586C11.367 2.80471 12.6335 2.80471 13.4146 3.58586Z" fill="#2E2E2E"/>
<path id="Path_3" fill-rule="evenodd" clip-rule="evenodd" d="M13.4146 11.5859C14.1958 12.367 14.1958 13.6335 13.4146 14.4146C12.6335 15.1958 11.367 15.1958 10.5859 14.4146C9.80471 13.6335 9.80471 12.367 10.5859 11.5859C11.367 10.8047 12.6335 10.8047 13.4146 11.5859Z" fill="#2E2E2E"/>
<path id="Path_4" d="M5.7793 8.10672L10.2193 5.88672" stroke="#2E2E2E" stroke-width="1.125" stroke-linecap="round" stroke-linejoin="round"/>
<path id="Path_5" d="M5.7793 9.89258L10.2193 12.1126" stroke="#2E2E2E" stroke-width="1.125" stroke-linecap="round" stroke-linejoin="round"/>
</g>
</svg>
