<svg width="52" height="52" viewBox="0 0 52 52" fill="none" xmlns="http://www.w3.org/2000/svg">
<path fill-rule="evenodd" clip-rule="evenodd" d="M32.0642 21H19.9362C19.4092 21 18.9732 21.408 18.9382 21.933L18.1422 33.867C18.0652 35.021 18.9812 36 20.1382 36H31.8622C33.0192 36 33.9352 35.021 33.8582 33.867L33.0622 21.933C33.0272 21.408 32.5912 21 32.0642 21Z" stroke="#2E2E2E" stroke-width="1.1" stroke-linecap="round" stroke-linejoin="round"/>
<path d="M29.001 23V19V19V19C29.001 17.343 27.658 16 26.001 16H26C24.343 16 23 17.343 23 19V19V19V23" stroke="#2E2E2E" stroke-width="1.1" stroke-linecap="round" stroke-linejoin="round"/>
<path fill-rule="evenodd" clip-rule="evenodd" d="M26 27.535C26.23 27.283 26.627 27 27.232 27C28.29 27 29 27.931 29 28.798C29 30.611 26.593 32 26 32C25.407 32 23 30.611 23 28.798C23 27.931 23.71 27 24.768 27C25.373 27 25.77 27.283 26 27.535Z" stroke="#2E2E2E" stroke-width="1.1" stroke-linecap="round" stroke-linejoin="round"/>
<rect x="0.5" y="0.5" width="51" height="51" rx="25.5" stroke="#2E2E2E"/>
</svg>
