<svg width="1520" height="264" viewBox="0 0 1520 264" fill="none" xmlns="http://www.w3.org/2000/svg">
<path d="M0.760001 215V41.4H62.76C71.3573 41.4 78.7973 42.7227 85.08 45.368C91.528 47.848 96.736 51.072 100.704 55.04C104.837 59.008 107.896 63.3893 109.88 68.184C111.864 72.9787 112.856 77.6907 112.856 82.32C112.856 87.6107 111.699 92.6533 109.384 97.448C107.069 102.077 103.928 106.211 99.96 109.848C96.1573 113.32 91.6933 116.213 86.568 118.528C81.4427 120.677 75.9867 121.752 70.2 121.752V122.744C73.8373 122.909 78.632 123.488 84.584 124.48C90.536 125.472 96.3227 127.456 101.944 130.432C107.565 133.408 112.36 137.707 116.328 143.328C120.461 148.949 122.528 156.472 122.528 165.896C122.528 171.848 121.453 177.8 119.304 183.752C117.32 189.539 114.013 194.747 109.384 199.376C104.755 204.005 98.6373 207.808 91.032 210.784C83.4267 213.595 74.0853 215 63.008 215H0.760001ZM23.328 204.088H59.288C64.5787 204.088 69.5387 203.344 74.168 201.856C78.9627 200.203 83.096 197.805 86.568 194.664C90.04 191.523 92.768 187.72 94.752 183.256C96.9013 178.792 97.976 173.667 97.976 167.88C97.976 162.589 96.984 157.547 95 152.752C93.1813 147.957 90.288 143.741 86.32 140.104C82.5173 136.467 77.64 133.573 71.688 131.424C65.736 129.275 58.7093 128.2 50.608 128.2H23.328V204.088ZM23.328 117.288H53.088C58.048 117.288 62.6773 116.461 66.976 114.808C71.44 113.155 75.3253 110.84 78.632 107.864C82.104 104.888 84.7493 101.333 86.568 97.2C88.552 93.0667 89.544 88.6027 89.544 83.808C89.544 80.0053 88.8827 76.2027 87.56 72.4C86.2373 68.5973 84.088 65.208 81.112 62.232C78.3013 59.256 74.5813 56.8587 69.952 55.04C65.488 53.2213 60.032 52.312 53.584 52.312H23.328V117.288ZM159.635 41.4H271.731V55.04H182.203V117.288H259.083V129.192H182.203V201.36H271.731V215H159.635V41.4ZM331.391 142.584V215H308.823V41.4H366.855C376.444 41.4 384.793 42.8053 391.903 45.616C399.012 48.4267 404.881 52.2293 409.511 57.024C414.305 61.6533 417.86 67.192 420.175 73.64C422.489 79.9227 423.647 86.536 423.647 93.48C423.647 100.755 422.324 107.616 419.679 114.064C417.033 120.347 413.065 125.968 407.775 130.928C402.649 135.723 396.201 139.525 388.431 142.336C380.66 145.147 371.732 146.552 361.647 146.552C355.695 146.552 350.239 146.221 345.279 145.56C340.319 144.733 335.689 143.741 331.391 142.584ZM331.391 52.312V132.416C334.863 133.739 338.748 134.648 343.047 135.144C347.345 135.475 352.057 135.64 357.183 135.64C364.623 135.64 370.988 134.4 376.279 131.92C381.569 129.44 385.951 126.216 389.423 122.248C392.895 118.28 395.375 113.899 396.863 109.104C398.516 104.144 399.343 99.2667 399.343 94.472C399.343 89.512 398.433 84.552 396.615 79.592C394.961 74.4667 392.399 69.92 388.927 65.952C385.455 61.8187 381.073 58.512 375.783 56.032C370.492 53.552 364.375 52.312 357.431 52.312H331.391ZM532.414 215H509.846V55.04H443.382V41.4H598.878V55.04H532.414V215ZM656.164 194.664L759.084 41.4H781.652V215H759.084V60L656.164 215H633.596V41.4H656.164V194.664ZM841.151 215V41.4H863.719V139.112L956.719 41.4H969.119L906.127 108.608L983.503 215H957.711L891.743 123.984L863.719 153.992V215H841.151ZM1117.08 163.912H1031.52L1009.7 215H998.292L1071.7 41.4H1084.1L1164.95 215H1140.89L1117.08 163.912ZM1111.88 152.752L1072.94 69.176H1071.95L1036.24 152.752H1111.88ZM1285.58 41.4L1360.97 215H1336.42L1273.68 69.176H1272.68L1224.32 191.936C1221.02 200.368 1217.21 206.816 1212.92 211.28C1208.78 215.744 1204.07 217.976 1198.78 217.976C1195.47 217.976 1192.17 217.728 1188.86 217.232C1185.72 216.736 1182.74 215.992 1179.93 215L1186.63 198.136C1188.28 198.963 1190.1 199.955 1192.08 201.112C1194.07 202.269 1196.13 202.848 1198.28 202.848C1203.74 202.848 1207.71 200.616 1210.19 196.152C1212.83 191.688 1215.56 185.736 1218.37 178.296L1271.94 41.4H1285.58ZM1398.18 215V41.4H1420.75V117.288H1458.69C1469.61 117.288 1478.86 118.693 1486.47 121.504C1494.24 124.149 1500.52 127.621 1505.32 131.92C1510.28 136.219 1513.83 141.179 1515.98 146.8C1518.3 152.421 1519.45 158.043 1519.45 163.664C1519.45 169.616 1518.38 175.651 1516.23 181.768C1514.25 187.72 1510.86 193.176 1506.06 198.136C1501.27 203.096 1494.9 207.147 1486.97 210.288C1479.03 213.429 1469.11 215 1457.21 215H1398.18ZM1420.75 204.088H1455.97C1461.75 204.088 1466.96 203.096 1471.59 201.112C1476.38 199.128 1480.44 196.4 1483.74 192.928C1487.21 189.456 1489.86 185.488 1491.68 181.024C1493.66 176.395 1494.65 171.517 1494.65 166.392C1494.65 160.936 1493.58 155.893 1491.43 151.264C1489.45 146.469 1486.55 142.419 1482.75 139.112C1479.11 135.64 1474.65 132.995 1469.36 131.176C1464.23 129.192 1458.61 128.2 1452.49 128.2H1420.75V204.088Z" fill="white"/>
</svg>
