<svg width="270" height="74" viewBox="0 0 270 74" fill="none" xmlns="http://www.w3.org/2000/svg">
<g opacity="0.7">
<path d="M145.408 29.3515L135.796 31.1116C134.226 31.4259 133.158 32.9345 133.409 34.5059C133.723 36.0774 135.231 37.146 136.802 36.8946L146.414 35.1345C148.675 34.6945 150.12 36.0774 150.686 37.5232C151.251 38.9689 151.125 40.9175 149.178 42.1747L135.105 51.352C133.786 52.2321 132.215 52.2321 130.833 51.5406C129.451 50.7863 128.634 49.4034 128.634 47.832V25.2657C128.634 21.4942 126.687 18.2256 123.357 16.4027C120.09 14.5798 116.195 14.7684 113.054 16.7798L77.4953 39.8489C73.4745 42.4261 71.9668 47.1405 73.7258 51.6035C75.4849 56.0664 79.8198 58.4551 84.5316 57.6379L115.567 52.0435C117.137 51.7292 118.205 50.2206 117.954 48.6491C117.64 47.0777 116.132 46.0091 114.562 46.2605L83.5264 51.8549C81.2019 52.2949 79.8198 50.912 79.2544 49.4663C78.689 48.0205 78.8146 46.0719 80.7622 44.8147L116.321 21.7457C117.64 20.8656 119.211 20.8656 120.593 21.5571C121.975 22.3114 122.792 23.6943 122.792 25.2657V47.832C122.792 51.6035 124.739 54.8721 128.069 56.695C129.577 57.5122 131.273 57.9522 132.906 57.9522C134.791 57.9522 136.676 57.3865 138.372 56.3179L152.508 47.1405C156.528 44.5633 158.036 39.8489 156.277 35.386C154.455 30.923 150.12 28.4715 145.408 29.3515ZM195.165 35.3231C193.406 30.8601 189.071 28.4715 184.36 29.2887L174.747 31.0487C173.177 31.363 172.109 32.8716 172.36 34.4431C172.674 36.0145 174.182 37.0831 175.753 36.8317L185.365 35.0717C187.626 34.6317 189.071 36.0145 189.637 37.4603C190.202 38.906 190.077 40.8547 188.129 42.1118L174.056 51.352C172.737 52.2321 171.166 52.2321 169.784 51.5406C168.402 50.7863 167.585 49.4034 167.585 47.832V18.0999C167.585 16.4655 166.266 15.1455 164.633 15.1455C162.999 15.1455 161.68 16.4655 161.68 18.0999V47.832C161.68 51.6035 163.628 54.8721 166.957 56.695C168.465 57.5122 170.161 57.9522 171.795 57.9522C173.679 57.9522 175.564 57.3865 177.26 56.3179L191.396 47.1405C195.417 44.5005 196.924 39.7861 195.165 35.3231Z" fill="white"/>
</g>
</svg>
