<svg width="123" height="43" viewBox="0 0 123 43" fill="none" xmlns="http://www.w3.org/2000/svg">
<g id="&#208;&#156;&#208;&#176;&#208;&#187;&#208;&#190;&#208;&#188;&#209;&#131;-&#208;&#177;&#208;&#184;&#208;&#183;&#208;&#189;&#208;&#181;&#209;&#129;&#209;&#131;" opacity="0.7">
<g id="Privet-mobile-header-Copy">
<g id="ABB_Logo_RGB">
<g id="Group">
<g id="Group-2">
<path id="Shape2" d="M72.4084 14.3515L62.7963 16.1116C61.2257 16.4259 60.1577 17.9345 60.409 19.5059C60.7231 21.0774 62.2309 22.146 63.8015 21.8946L73.4136 20.1345C75.6753 19.6945 77.1203 21.0774 77.6857 22.5232C78.2511 23.9689 78.1255 25.9175 76.1779 27.1747L62.1052 36.352C60.7859 37.2321 59.2153 37.2321 57.8332 36.5406C56.4511 35.7863 55.6343 34.4034 55.6343 32.832V10.2657C55.6343 6.49422 53.6868 3.22558 50.3571 1.40268C47.0902 -0.420218 43.1951 -0.231642 40.0539 1.77983L4.4953 24.8489C0.474545 27.4261 -1.03324 32.1405 0.725843 36.6035C2.48492 41.0664 6.81981 43.4551 11.5316 42.6379L42.5669 37.0435C44.1375 36.7292 45.2055 35.2206 44.9542 33.6491C44.6401 32.0777 43.1323 31.0091 41.5617 31.2605L10.5264 36.8549C8.20194 37.2949 6.81981 35.912 6.25439 34.4663C5.68897 33.0205 5.81462 31.0719 7.76217 29.8147L43.3208 6.74566C44.6401 5.86564 46.2107 5.86564 47.5928 6.55708C48.975 7.31138 49.7917 8.69427 49.7917 10.2657V32.832C49.7917 36.6035 51.7392 39.8721 55.0689 41.695C56.5767 42.5122 58.273 42.9522 59.9064 42.9522C61.7911 42.9522 63.6759 42.3865 65.3721 41.3179L79.5076 32.1405C83.5284 29.5633 85.0361 24.8489 83.2771 20.386C81.4552 15.923 77.1203 13.4715 72.4084 14.3515ZM122.165 20.3231C120.406 15.8601 116.071 13.4715 111.36 14.2887L101.747 16.0487C100.177 16.363 99.1088 17.8716 99.3601 19.4431C99.6742 21.0145 101.182 22.0831 102.753 21.8317L112.365 20.0717C114.626 19.6317 116.071 21.0145 116.637 22.4603C117.202 23.906 117.077 25.8547 115.129 27.1118L101.056 36.352C99.737 37.2321 98.1664 37.2321 96.7843 36.5406C95.4022 35.7863 94.5854 34.4034 94.5854 32.832V3.09986C94.5854 1.46554 93.2661 0.145508 91.6327 0.145508C89.9993 0.145508 88.68 1.46554 88.68 3.09986V32.832C88.68 36.6035 90.6275 39.8721 93.9572 41.695C95.465 42.5122 97.1612 42.9522 98.7947 42.9522C100.679 42.9522 102.564 42.3865 104.26 41.3179L118.396 32.1405C122.417 29.5005 123.924 24.7861 122.165 20.3231Z" fill="white"/>
</g>
</g>
</g>
</g>
</g>
</svg>
