<svg width="272" height="74" viewBox="0 0 272 74" fill="none" xmlns="http://www.w3.org/2000/svg">
<g opacity="0.7" clip-path="url(#clip0_597_5760)">
<path fill-rule="evenodd" clip-rule="evenodd" d="M223.51 58.6586H216.615C215.789 58.6914 214.964 58.5526 214.193 58.2511C213.423 57.9495 212.722 57.4916 212.134 56.906C211.548 56.3202 211.087 55.6194 210.783 54.8471C210.477 54.0748 210.335 53.2477 210.363 52.4173V23.5038H215.165V50.0709C215.165 51.3595 215.351 52.6701 216.17 53.1399C216.942 53.4181 217.764 53.5182 218.58 53.4327H222.981V23.5038H227.781V58.6586H223.51ZM223.597 18.9853L221.214 19.0581H217.006L214.637 18.9976C214.553 18.9684 214.467 18.9544 214.379 18.9564C212.098 18.7009 212.353 16.1098 212.353 14.5725H225.792C225.794 16.151 225.951 18.7489 223.597 18.9853ZM198.359 58.6586H192.562C191.735 58.6904 190.913 58.5511 190.142 58.2494C189.373 57.9477 188.674 57.4902 188.087 56.9052C187.501 56.3202 187.042 55.6204 186.737 54.8492C186.432 54.078 186.288 53.2522 186.314 52.4228V29.7739C186.288 28.9444 186.432 28.1181 186.736 27.3467C187.04 26.5752 187.501 25.875 188.086 25.2897C188.672 24.7044 189.372 24.2466 190.142 23.9448C190.912 23.643 191.735 23.5036 192.562 23.5354H198.359C199.185 23.5032 200.01 23.6423 200.779 23.944C201.549 24.2456 202.249 24.7034 202.835 25.2887C203.421 25.874 203.882 26.5743 204.187 27.346C204.492 28.1177 204.635 28.9441 204.608 29.7739V52.4242C204.635 53.2537 204.491 54.0797 204.185 54.8509C203.881 55.6221 203.42 56.3219 202.834 56.9067C202.247 57.4916 201.548 57.949 200.779 58.2504C200.008 58.5518 199.185 58.6908 198.359 58.6586ZM199.809 32.0834C199.809 30.7975 199.623 29.4853 198.803 29.0156C198.031 28.7385 197.206 28.6395 196.391 28.7256H194.53C193.715 28.6395 192.891 28.7386 192.119 29.0156C191.298 29.4853 191.114 30.8015 191.114 32.0834V50.0626C191.114 51.3499 191.297 52.6605 192.119 53.1317C192.891 53.406 193.715 53.5046 194.53 53.4202H196.391C197.206 53.5047 198.03 53.4061 198.803 53.1317C199.624 52.6605 199.809 51.3457 199.809 50.0626V32.0834ZM174.865 44.4245H168.503V58.66H163.702V23.5326H174.865C175.691 23.5007 176.514 23.6399 177.284 23.9416C178.054 24.2434 178.754 24.7011 179.34 25.2864C179.927 25.8717 180.386 26.572 180.691 27.3436C180.996 28.1152 181.139 28.9415 181.112 29.7711V38.1845C181.14 39.0143 180.997 39.8407 180.692 40.6124C180.387 41.3843 179.927 42.0847 179.341 42.6701C178.755 43.2556 178.055 43.7135 177.285 44.0153C176.515 44.3171 175.691 44.4564 174.865 44.4245ZM176.311 32.0874C176.311 30.7975 176.123 29.4867 175.308 29.0196C174.537 28.7407 173.714 28.6406 172.899 28.727H168.503V39.2203H172.895C173.711 39.3065 174.536 39.2069 175.308 38.9291C176.129 38.462 176.311 37.15 176.311 35.8669V32.0888V32.0874ZM152.529 58.66H147.725V28.7256H141.414V23.5051H158.841V28.7256H152.529V58.6586V58.66ZM131.834 58.66H126.969C126.144 58.6915 125.32 58.5521 124.551 58.2504C123.781 57.9486 123.082 57.4911 122.496 56.9061C121.91 56.3212 121.451 55.6214 121.146 54.8503C120.841 54.0792 120.697 53.2534 120.724 52.4242V29.7808C120.698 28.9516 120.841 28.126 121.146 27.3551C121.451 26.5842 121.911 25.8846 122.497 25.2998C123.082 24.715 123.782 24.2575 124.551 23.9559C125.321 23.6542 126.144 23.5148 126.969 23.5463H131.834C132.659 23.5148 133.482 23.6542 134.252 23.9559C135.021 24.2575 135.72 24.715 136.306 25.2998C136.892 25.8846 137.352 26.5842 137.656 27.3551C137.962 28.126 138.105 28.9516 138.079 29.7808V32.7112H133.281V32.0834C133.281 30.7961 133.091 29.4853 132.277 29.0156C131.506 28.7397 130.683 28.6412 129.869 28.727H128.935C128.121 28.641 127.299 28.7396 126.529 29.0156C125.708 29.4853 125.526 30.8015 125.526 32.0834V50.0653C125.526 51.3526 125.706 52.6619 126.529 53.1331C127.3 53.4067 128.121 53.5047 128.935 53.4202H129.869C130.683 53.5046 131.505 53.4064 132.277 53.1331C133.098 52.6619 133.281 51.3471 133.281 50.0653V49.4815H138.079V52.4228C138.105 53.252 137.962 54.0779 137.657 54.8489C137.352 55.62 136.892 56.3198 136.307 56.9047C135.721 57.4897 135.021 57.9473 134.252 58.249C133.482 58.5508 132.659 58.6901 131.834 58.6586V58.66ZM109.33 44.254H101.532V58.6009H96.7003V23.4983H101.532V39.0225H109.33V23.4983H114.129V58.5995H109.33V44.2527V44.254ZM83.8491 58.66H78.0487C77.2232 58.6915 76.4 58.5521 75.6305 58.2504C74.861 57.9486 74.1616 57.4911 73.5758 56.9061C72.9899 56.3212 72.5303 55.6214 72.2254 54.8503C71.9205 54.0792 71.777 53.2534 71.8037 52.4242V29.7739C71.7766 28.9445 71.9198 28.1184 72.2246 27.347C72.5293 26.5756 72.9889 25.8755 73.5747 25.2902C74.1606 24.705 74.8602 24.2471 75.6298 23.9452C76.3996 23.6433 77.2229 23.5038 78.0487 23.5354H83.8491C84.6751 23.5032 85.4991 23.6423 86.2693 23.944C87.0395 24.2456 87.7396 24.7034 88.3258 25.2887C88.9121 25.874 89.3721 26.5743 89.677 27.346C89.9819 28.1177 90.1254 28.9441 90.0982 29.7739V52.4242C90.1247 53.2537 89.9809 54.0797 89.6757 54.8509C89.3706 55.6221 88.9106 56.3219 88.3242 56.9067C87.738 57.4916 87.0382 57.949 86.2683 58.2504C85.4984 58.5518 84.6749 58.6908 83.8491 58.6586V58.66ZM85.2979 32.0874C85.2979 30.7975 85.1104 29.4867 84.2923 29.0196C83.5216 28.7407 82.6979 28.6407 81.8832 28.727H80.0009C79.1862 28.6406 78.3625 28.7406 77.5918 29.0196C76.7709 29.4867 76.5864 30.7975 76.5864 32.0874V50.0626C76.5864 51.3513 76.7709 52.6619 77.5918 53.1304C78.3632 53.4064 79.1862 53.506 80.0009 53.4216H81.8832C82.6979 53.5058 83.5209 53.4063 84.2923 53.1304C85.1132 52.6619 85.2979 51.3443 85.2979 50.0626V32.086V32.0874ZM46.7019 53.4339H47.0358V29.7464C47.008 28.9159 47.1511 28.0884 47.4561 27.3159C47.7611 26.5433 48.2215 25.8422 48.8085 25.2564C49.3954 24.6705 50.0964 24.2126 50.8675 23.911C51.6386 23.6094 52.4634 23.4708 53.2903 23.5038H64.4575V53.4327H64.8351C67.8624 53.4327 69.2893 55.7516 69.2277 58.6531H42.3065C42.2463 55.7516 43.6745 53.4327 46.7019 53.4327V53.4339ZM51.8224 53.4339H59.6516V28.7256H55.2356C54.4202 28.6387 53.5958 28.7378 52.8238 29.0156C52.003 29.4853 51.8183 30.8015 51.8183 32.086V53.4327L51.8224 53.4339Z" fill="white"/>
</g>
<defs>
<clipPath id="clip0_597_5760">
<rect width="185.254" height="44.1147" fill="white" transform="translate(42 14.5854)"/>
</clipPath>
</defs>
</svg>
