<svg width="186" height="45" viewBox="0 0 186 45" fill="none" xmlns="http://www.w3.org/2000/svg">
<g opacity="0.7" clip-path="url(#clip0_263_2422)">
<path fill-rule="evenodd" clip-rule="evenodd" d="M181.51 44.6593H174.615C173.789 44.6921 172.964 44.5533 172.193 44.2518C171.423 43.9503 170.722 43.4924 170.134 42.9067C169.548 42.3209 169.087 41.6201 168.783 40.8479C168.477 40.0756 168.335 39.2484 168.363 38.4181V9.5045H173.165V36.0716C173.165 37.3603 173.351 38.6709 174.17 39.1406C174.942 39.4189 175.764 39.519 176.58 39.4334H180.981V9.5045H185.781V44.6593H181.51ZM181.597 4.98598L179.214 5.05879H175.006L172.637 4.99834C172.553 4.96911 172.467 4.95515 172.379 4.95713C170.098 4.7016 170.353 2.11056 170.353 0.573242H183.792C183.794 2.15177 183.951 4.74968 181.597 4.98598ZM156.359 44.6593H150.562C149.735 44.6911 148.913 44.5518 148.142 44.2501C147.373 43.9484 146.674 43.491 146.087 42.9059C145.501 42.3209 145.042 41.6211 144.737 40.8499C144.432 40.0788 144.288 39.2529 144.314 38.4235V15.7746C144.288 14.9451 144.432 14.1189 144.736 13.3474C145.04 12.5759 145.501 11.8757 146.086 11.2904C146.672 10.7052 147.372 10.2474 148.142 9.94554C148.912 9.64371 149.735 9.50434 150.562 9.53609H156.359C157.185 9.50394 158.01 9.64303 158.779 9.94469C159.549 10.2463 160.249 10.7041 160.835 11.2894C161.421 11.8747 161.882 12.575 162.187 13.3467C162.492 14.1184 162.635 14.9448 162.608 15.7746V38.4249C162.635 39.2544 162.491 40.0805 162.185 40.8516C161.881 41.6228 161.42 42.3226 160.834 42.9074C160.247 43.4924 159.548 43.9497 158.779 44.2511C158.008 44.5525 157.185 44.6916 156.359 44.6593ZM157.809 18.0841C157.809 16.7982 157.623 15.4861 156.803 15.0163C156.031 14.7392 155.206 14.6402 154.391 14.7264H152.53C151.715 14.6402 150.891 14.7393 150.119 15.0163C149.298 15.4861 149.114 16.8023 149.114 18.0841V36.0634C149.114 37.3506 149.297 38.6612 150.119 39.1324C150.891 39.4067 151.715 39.5053 152.53 39.421H154.391C155.206 39.5054 156.03 39.4069 156.803 39.1324C157.624 38.6612 157.809 37.3465 157.809 36.0634V18.0841ZM132.865 30.4252H126.503V44.6607H121.702V9.53335H132.865C133.691 9.50139 134.514 9.64063 135.284 9.94237C136.054 10.2441 136.754 10.7019 137.34 11.2872C137.927 11.8725 138.386 12.5727 138.691 13.3443C138.996 14.1159 139.139 14.9422 139.112 15.7718V24.1852C139.14 25.015 138.997 25.8415 138.692 26.6132C138.387 27.385 137.927 28.0854 137.341 28.6708C136.755 29.2563 136.055 29.7142 135.285 30.016C134.515 30.3178 133.691 30.4572 132.865 30.4252ZM134.311 18.0882C134.311 16.7982 134.123 15.4875 133.308 15.0204C132.537 14.7414 131.714 14.6413 130.899 14.7278H126.503V25.2211H130.895C131.711 25.3072 132.536 25.2077 133.308 24.9298C134.129 24.4627 134.311 23.1507 134.311 21.8676V18.0895V18.0882ZM110.529 44.6607H105.725V14.7264H99.4139V9.50587H116.841V14.7264H110.529V44.6593V44.6607ZM89.8338 44.6607H84.969C84.1435 44.6923 83.3204 44.5528 82.5508 44.2511C81.7813 43.9493 81.0819 43.4918 80.4961 42.9069C79.9102 42.3219 79.4506 41.6221 79.1457 40.8511C78.8408 40.0799 78.6973 39.2541 78.724 38.4249V15.7815C78.6976 14.9524 78.8412 14.1268 79.1461 13.3559C79.4512 12.585 79.9107 11.8854 80.4965 11.3005C81.0824 10.7157 81.7817 10.2583 82.5512 9.95662C83.3206 9.65495 84.1437 9.51555 84.969 9.54708H89.8338C90.6591 9.51555 91.4821 9.65495 92.2516 9.95662C93.0209 10.2583 93.7203 10.7157 94.3061 11.3005C94.8919 11.8854 95.3516 12.585 95.6565 13.3559C95.9615 14.1268 96.1052 14.9524 96.0786 15.7815V18.7119H91.281V18.0841C91.281 16.7968 91.0909 15.4861 90.2769 15.0163C89.506 14.7405 88.6832 14.6419 87.8693 14.7278H86.9349C86.1214 14.6418 85.299 14.7403 84.5285 15.0163C83.7077 15.4861 83.5258 16.8023 83.5258 18.0841V36.066C83.5258 37.3533 83.7063 38.6626 84.5285 39.1338C85.2996 39.4074 86.1214 39.5054 86.9349 39.421H87.8693C88.683 39.5053 89.5054 39.4071 90.2769 39.1338C91.0977 38.6626 91.281 37.3479 91.281 36.066V35.4822H96.0786V38.4235C96.1055 39.2527 95.9618 40.0786 95.6569 40.8497C95.3521 41.6207 94.8924 42.3205 94.3067 42.9055C93.7209 43.4904 93.0215 43.948 92.2518 44.2497C91.4823 44.5515 90.6592 44.6909 89.8338 44.6593V44.6607ZM67.3298 30.2547H59.5321V44.6017H54.7003V9.499H59.5321V25.0232H67.3298V9.499H72.1288V44.6003H67.3298V30.2535V30.2547ZM41.8491 44.6607H36.0487C35.2232 44.6923 34.4 44.5528 33.6305 44.2511C32.861 43.9493 32.1616 43.4918 31.5758 42.9069C30.9899 42.3219 30.5303 41.6221 30.2254 40.8511C29.9205 40.0799 29.777 39.2541 29.8037 38.4249V15.7746C29.7766 14.9453 29.9198 14.1191 30.2246 13.3477C30.5293 12.5763 30.9889 11.8762 31.5747 11.291C32.1606 10.7057 32.8602 10.2479 33.6298 9.94596C34.3996 9.64405 35.2229 9.50453 36.0487 9.53609H41.8491C42.6751 9.50394 43.4991 9.64303 44.2693 9.94469C45.0395 10.2463 45.7396 10.7041 46.3258 11.2894C46.9121 11.8747 47.3721 12.575 47.677 13.3467C47.9819 14.1184 48.1254 14.9448 48.0982 15.7746V38.4249C48.1247 39.2544 47.9809 40.0805 47.6757 40.8516C47.3706 41.6228 46.9106 42.3226 46.3242 42.9074C45.738 43.4924 45.0382 43.9497 44.2683 44.2511C43.4984 44.5525 42.6749 44.6916 41.8491 44.6593V44.6607ZM43.2979 18.0882C43.2979 16.7982 43.1104 15.4875 42.2923 15.0204C41.5216 14.7414 40.6979 14.6415 39.8832 14.7278H38.0009C37.1862 14.6413 36.3625 14.7413 35.5918 15.0204C34.7709 15.4875 34.5864 16.7982 34.5864 18.0882V36.0634C34.5864 37.352 34.7709 38.6626 35.5918 39.1311C36.3632 39.4071 37.1862 39.5067 38.0009 39.4224H39.8832C40.6979 39.5065 41.5209 39.407 42.2923 39.1311C43.1132 38.6626 43.2979 37.3451 43.2979 36.0634V18.0868V18.0882ZM4.70195 39.4347H5.03575V15.7471C5.00801 14.9166 5.15112 14.0892 5.45614 13.3166C5.76115 12.5441 6.2215 11.843 6.80847 11.2571C7.39543 10.6713 8.09637 10.2133 8.86751 9.91173C9.63865 9.61017 10.4634 9.47154 11.2903 9.5045H22.4575V39.4334H22.8351C25.8624 39.4334 27.2893 41.7523 27.2277 44.6539H0.306512C0.246319 41.7523 1.67453 39.4334 4.70195 39.4334V39.4347ZM9.82244 39.4347H17.6516V14.7264H13.2356C12.4202 14.6394 11.5958 14.7385 10.8238 15.0163C10.003 15.4861 9.81833 16.8023 9.81833 18.0868V39.4334L9.82244 39.4347Z" fill="white"/>
</g>
<defs>
<clipPath id="clip0_263_2422">
<rect width="185.254" height="44.1147" fill="white" transform="translate(0 0.585938)"/>
</clipPath>
</defs>
</svg>
