<svg width="119" height="53" viewBox="0 0 119 53" fill="none" xmlns="http://www.w3.org/2000/svg">
<g id="logo.7bbdf20 2" opacity="0.7">
<path id="Vector" d="M86.6591 29.1473C86.1511 29.7091 85.531 30.1582 84.8388 30.4656C84.1465 30.773 83.3975 30.9319 82.6401 30.9321C81.2136 30.9069 79.8541 30.3226 78.8541 29.3049C77.8542 28.2872 77.294 26.9176 77.294 25.4908C77.294 24.0641 77.8542 22.6945 78.8541 21.6768C79.8541 20.6591 81.2136 20.0748 82.6401 20.0496C83.813 20.0496 84.8981 20.4265 85.7887 21.0586L88.7548 16.8875C86.9705 15.6134 84.8327 14.9286 82.6401 14.9287C79.8386 14.9287 77.1519 16.0416 75.1709 18.0225C73.19 20.0035 72.0771 22.6902 72.0771 25.4917C72.0771 28.2932 73.19 30.9799 75.1709 32.9609C77.1519 34.9418 79.8386 36.0547 82.6401 36.0547C85.2311 36.0527 87.7305 35.096 89.6607 33.3675L86.6591 29.1473ZM62.6414 15.5557L59.6871 19.7167C61.1715 19.8648 62.5419 20.5785 63.5143 21.7098C64.4867 22.841 64.9864 24.3031 64.9099 25.7929C64.8334 27.2827 64.1866 28.6859 63.1034 29.7116C62.0203 30.7373 60.584 31.3069 59.0922 31.3022V10.3418H54.1724V14.9287C52.7852 14.9287 51.4117 15.2019 50.1301 15.7327C48.8485 16.2636 47.6841 17.0416 46.7032 18.0225C45.7223 19.0034 44.9443 20.1678 44.4134 21.4494C43.8826 22.731 43.6094 24.1045 43.6094 25.4917C43.6094 26.8788 43.8826 28.2524 44.4134 29.534C44.9443 30.8155 45.7223 31.98 46.7032 32.9609C47.6841 33.9417 48.8485 34.7198 50.1301 35.2506C51.4117 35.7815 52.7852 36.0547 54.1724 36.0547V40.8089H59.0922V36.053C61.5819 36.0572 63.9928 35.181 65.8989 33.5794C67.8049 31.9777 69.0833 29.7538 69.5081 27.3006C69.9329 24.8475 69.4766 22.3232 68.2201 20.1739C66.9635 18.0246 64.9875 16.3888 62.6414 15.5557ZM48.3602 25.4917C48.3602 24.7289 48.5105 23.9737 48.8024 23.269C49.0943 22.5643 49.5222 21.9241 50.0617 21.3848C50.6011 20.8456 51.2414 20.4179 51.9462 20.1261C52.6509 19.8344 53.4063 19.6843 54.169 19.6846V31.2988C53.4063 31.299 52.6511 31.149 51.9465 30.8572C51.2418 30.5655 50.6015 30.1377 50.0623 29.5984C49.523 29.0592 49.0952 28.4189 48.8035 27.7142C48.5117 27.0096 48.3617 26.2544 48.3619 25.4917H48.3602ZM98.0706 35.6305H92.6944V15.3495H98.0689L98.0706 35.6305ZM98.7517 25.49L106.024 15.3495H111.618L104.287 25.3447L112.004 35.6305H106.332L98.7517 25.49Z" fill="white"/>
<path id="Vector_2" d="M14.5954 17.9028H35.7671C34.7171 15.5476 33.1923 13.4345 31.2881 11.6957C29.3838 9.95695 27.1411 8.62997 24.7004 7.79785L14.5938 17.9028H14.5954Z" fill="white"/>
<path id="Vector_3" d="M36.8184 20.8762H11.0109C10.7162 20.8767 10.4279 20.7897 10.1828 20.6261C9.93762 20.4625 9.74661 20.2297 9.63397 19.9574C9.52134 19.685 9.49216 19.3853 9.55015 19.0964C9.60813 18.8074 9.75066 18.5422 9.95965 18.3343L21.3119 6.98376C20.4452 6.86159 19.571 6.79947 18.6957 6.79785C8.36928 6.79785 0 15.1671 0 25.4935C0 26.8743 0.155487 28.2196 0.439421 29.5193H26.5224C26.8172 29.5188 27.1054 29.6059 27.3506 29.7695C27.5957 29.9331 27.7867 30.1658 27.8994 30.4382C28.012 30.7105 28.0412 31.0102 27.9832 31.2992C27.9252 31.5882 27.7827 31.8534 27.5737 32.0612L15.689 43.9458C16.6693 44.1047 17.6698 44.1909 18.6923 44.1909C29.0187 44.1909 37.388 35.8216 37.388 25.4969C37.3947 23.8998 37.1936 22.3534 36.8184 20.8762Z" fill="white"/>
<path id="Vector_4" d="M22.9438 32.499H1.375C2.36251 34.9339 3.85078 37.1339 5.74329 38.9566C7.6358 40.7792 9.89029 42.1837 12.3605 43.0789L22.9438 32.499Z" fill="white"/>
</g>
</svg>
