<svg width="270" height="74" viewBox="0 0 270 74" fill="none" xmlns="http://www.w3.org/2000/svg">
<g opacity="0.7">
<path d="M162.659 40.1468C162.151 40.7086 161.531 41.1577 160.839 41.4651C160.147 41.7725 159.398 41.9314 158.64 41.9316C157.214 41.9064 155.854 41.3221 154.854 40.3044C153.854 39.2867 153.294 37.9171 153.294 36.4904C153.294 35.0636 153.854 33.694 154.854 32.6763C155.854 31.6586 157.214 31.0743 158.64 31.0491C159.813 31.0491 160.898 31.426 161.789 32.0581L164.755 27.887C162.97 26.613 160.833 25.9281 158.64 25.9282C155.839 25.9282 153.152 27.0411 151.171 29.022C149.19 31.003 148.077 33.6897 148.077 36.4912C148.077 39.2927 149.19 41.9794 151.171 43.9604C153.152 45.9413 155.839 47.0542 158.64 47.0542C161.231 47.0522 163.731 46.0955 165.661 44.367L162.659 40.1468ZM138.641 26.5552L135.687 30.7162C137.171 30.8643 138.542 31.578 139.514 32.7093C140.487 33.8405 140.986 35.3026 140.91 36.7924C140.833 38.2822 140.187 39.6854 139.103 40.7111C138.02 41.7368 136.584 42.3064 135.092 42.3017V21.3413H130.172V25.9282C128.785 25.9282 127.412 26.2014 126.13 26.7323C124.849 27.2631 123.684 28.0412 122.703 29.022C121.722 30.0029 120.944 31.1673 120.413 32.4489C119.883 33.7305 119.609 35.104 119.609 36.4912C119.609 37.8784 119.883 39.2519 120.413 40.5335C120.944 41.8151 121.722 42.9795 122.703 43.9604C123.684 44.9412 124.849 45.7193 126.13 46.2501C127.412 46.781 128.785 47.0542 130.172 47.0542V51.8084H135.092V47.0525C137.582 47.0567 139.993 46.1805 141.899 44.5789C143.805 42.9772 145.083 40.7533 145.508 38.3001C145.933 35.847 145.477 33.3227 144.22 31.1734C142.963 29.0241 140.987 27.3883 138.641 26.5552ZM124.36 36.4912C124.36 35.7285 124.51 34.9732 124.802 34.2685C125.094 33.5639 125.522 32.9236 126.062 32.3843C126.601 31.8451 127.241 31.4174 127.946 31.1256C128.651 30.8339 129.406 30.6839 130.169 30.6841V42.2983C129.406 42.2985 128.651 42.1485 127.946 41.8567C127.242 41.565 126.602 41.1372 126.062 40.5979C125.523 40.0587 125.095 39.4184 124.803 38.7138C124.512 38.0091 124.362 37.2539 124.362 36.4912H124.36ZM174.071 46.63H168.694V26.349H174.069L174.071 46.63ZM174.752 36.4895L182.024 26.349H187.618L180.287 36.3442L188.004 46.63H182.332L174.752 36.4895Z" fill="white"/>
<path d="M90.5954 28.9028H111.767C110.717 26.5476 109.192 24.4345 107.288 22.6957C105.384 20.957 103.141 19.63 100.7 18.7979L90.5938 28.9028H90.5954Z" fill="white"/>
<path d="M112.818 31.8762H87.0109C86.7162 31.8767 86.4279 31.7897 86.1828 31.6261C85.9376 31.4625 85.7466 31.2297 85.634 30.9574C85.5213 30.685 85.4922 30.3853 85.5501 30.0964C85.6081 29.8074 85.7507 29.5422 85.9597 29.3343L97.3119 17.9838C96.4452 17.8616 95.571 17.7995 94.6957 17.7979C84.3693 17.7979 76 26.1671 76 36.4935C76 37.8743 76.1555 39.2196 76.4394 40.5193H102.522C102.817 40.5188 103.105 40.6059 103.351 40.7695C103.596 40.9331 103.787 41.1658 103.899 41.4382C104.012 41.7105 104.041 42.0102 103.983 42.2992C103.925 42.5882 103.783 42.8534 103.574 43.0612L91.689 54.9458C92.6693 55.1047 93.6698 55.1909 94.6923 55.1909C105.019 55.1909 113.388 46.8216 113.388 36.4969C113.395 34.8998 113.194 33.3534 112.818 31.8762Z" fill="white"/>
<path d="M98.9438 43.499H77.375C78.3625 45.9339 79.8508 48.1339 81.7433 49.9566C83.6358 51.7792 85.8903 53.1837 88.3605 54.0789L98.9438 43.499Z" fill="white"/>
</g>
</svg>
