<svg width="208" height="45" viewBox="0 0 208 45" fill="none" xmlns="http://www.w3.org/2000/svg">
<g id="Gazprombank 2" opacity="0.7" clip-path="url(#clip0_263_2445)">
<g id="g931">
<path id="path883" fill-rule="evenodd" clip-rule="evenodd" d="M0 22.4589C0 34.5337 9.79809 44.3318 21.8729 44.3318C33.9478 44.3318 43.7458 34.5337 43.7458 22.4589C43.7458 10.384 33.9478 0.585938 21.8729 0.585938C9.79809 0.585938 0 10.384 0 22.4589ZM0.772464 22.4589C0.772464 10.7906 10.2453 1.31775 21.9136 1.31775C33.5819 1.31775 43.0547 10.7906 43.0547 22.4589C43.0547 34.0865 33.5819 43.5593 21.9136 43.5593C10.2453 43.6 0.772464 34.1271 0.772464 22.4589Z" fill="white"/>
<path id="path885" fill-rule="evenodd" clip-rule="evenodd" d="M6.83489 16.4826C12.4454 12.8235 18.6251 10.6688 29.1144 12.4983C29.6836 12.173 30.0088 11.8478 30.1714 11.1566C27.5695 10.2215 24.7235 9.89629 21.0645 9.93694C17.7714 10.0183 11.8356 11.2379 8.66441 13.1081L9.64016 11.8884C11.8762 10.5874 17.6494 8.87989 21.9589 8.75792C25.0081 8.71726 26.5937 8.87989 30.2121 9.85563C29.8868 9.24579 29.155 8.92054 28.0573 8.43267C24.5609 6.84709 17.9746 6.72512 12.608 9.08317C13.2992 8.63595 13.9497 8.22939 14.8441 7.82283C16.633 7.00971 19.5196 6.23725 23.1379 6.2779C26.0245 6.31856 29.4803 7.33496 31.5944 9.40842C31.9603 9.81498 32.1636 10.2622 32.2449 10.6281C33.9118 11.4819 34.8875 12.2543 35.4161 13.1894C35.6193 13.6773 35.7413 14.2058 35.6193 14.775C36.3105 15.1816 36.6357 15.5475 37.0016 15.9947C37.2456 16.3606 37.4489 16.8078 37.4895 17.2144C37.5708 17.7429 37.6115 18.3121 37.083 19.0032C37.6521 19.2878 38.0994 20.0603 38.1807 20.4262C38.4246 21.6865 37.6521 22.9062 36.5544 23.8819C35.3347 24.9797 32.6108 26.24 30.4154 26.8092C26.0245 27.9069 22.1622 28.3948 19.0724 28.9639C20.4547 29.2892 22.3248 29.7364 25.4147 29.7364C31.9603 29.7364 37.7335 26.6466 37.7335 26.6466C37.7335 26.6466 37.6115 27.0531 37.4895 27.419C33.3426 29.9397 26.7157 30.9967 23.9104 30.8748C21.0238 30.7528 18.6251 30.3056 16.2671 29.5738C15.5353 29.7771 14.8441 29.9803 14.153 30.3056C17.7307 31.9318 20.4547 32.2977 23.5445 32.5417C26.675 32.7856 31.8383 32.0131 36.2292 30.4276C36.0259 30.6308 35.9446 30.9561 35.7413 31.1187C33.5052 32.2977 28.7485 33.4768 26.3904 33.5581C24.0324 33.6394 21.1458 33.5581 18.6251 33.1109C16.4704 32.7043 14.6815 32.0131 12.852 31.2C12.5267 31.444 12.3641 31.7692 12.2828 32.1351C19.3163 35.8755 26.0652 35.9568 33.7492 33.5581L33.058 34.2492C24.6016 37.6643 18.0153 36.3227 12.8926 33.8833C12.73 33.802 12.5267 33.7207 12.3641 33.6394C12.852 34.4525 16.755 37.2984 21.1052 37.6643C24.1137 37.9083 27.7727 37.3797 29.9682 36.526L28.6672 37.1765C27.6101 37.705 24.8048 38.884 20.9019 38.5994C15.6979 38.2335 12.7707 35.9568 11.429 34.7371C10.8192 34.1679 10.5346 33.5174 10.3313 32.7043C9.15229 32.0945 8.42048 31.444 7.81064 30.5089C7.44474 29.9397 7.52605 29.3299 7.60736 28.8013L7.72933 28.3134C7.16014 27.9069 6.59096 27.4597 6.34702 27.0125C5.8185 26.0774 6.14374 25.3049 6.50965 24.6544C6.1844 24.2885 5.89981 23.9633 5.77784 23.5974C5.65587 23.1501 5.61521 22.7436 5.65587 22.2964C5.73718 21.5239 6.1844 20.7921 6.71293 20.1823C7.85129 18.8813 9.64016 17.8649 12.73 16.8485C15.7386 15.8727 16.9176 15.7101 19.1943 15.1816C21.837 14.5717 25.0081 14.3684 27.6508 13.4334C20.292 12.1324 12.608 13.3114 6.38768 17.6209L6.83489 16.4826ZM31.9196 11.9291C31.8383 12.295 31.4318 12.7016 31.1878 12.9861C32.001 13.1894 32.8141 13.474 33.5865 13.7993C33.4646 13.0675 32.6514 12.3763 31.9196 11.9291ZM9.2336 26.6466C8.74573 26.362 8.42048 26.1993 8.05457 25.9147C7.85129 26.362 8.25785 26.8905 8.66441 27.1344C8.82704 26.9718 9.03032 26.8092 9.2336 26.6466ZM34.0744 17.0111C34.6029 17.255 35.0908 17.4583 35.538 17.7835C35.8633 17.1331 35.66 16.7265 34.9688 16.1573C34.7249 16.4826 34.3997 16.7672 34.0744 17.0111ZM32.4888 17.9868C31.4318 18.4747 29.8462 19.0032 27.6508 19.5724C25.8619 20.0196 21.4304 20.6701 16.6736 21.6865C15.1694 22.0118 11.1038 22.9875 9.11163 24.6544C9.68081 25.1016 10.0061 25.2236 10.6566 25.5488C11.4697 25.0203 12.608 24.5324 14.2749 24.0852C17.2022 23.3128 19.3569 22.9875 21.9996 22.5403C24.6016 22.1337 29.4803 21.1173 32.2042 20.1416C33.0987 19.8163 33.9118 19.4098 34.5216 18.9219C34.3183 18.7593 32.5701 17.9055 32.4888 17.9868ZM11.9982 29.3298C12.4048 29.0859 12.8926 28.842 13.4212 28.6387C12.6487 28.3135 11.8762 27.9882 11.1038 27.6223C10.7379 27.8256 10.4126 28.0695 10.1687 28.3134C10.7785 28.6387 11.3477 29.0046 11.9982 29.3298ZM9.47753 29.5738C9.47753 30.0617 9.76213 30.5089 10.4126 31.0374C10.4939 30.7528 10.6159 30.5902 10.8192 30.3463C10.3313 30.1023 9.92475 29.8177 9.47753 29.5738ZM13.1772 20.5482C18.5032 19.0032 24.1137 18.5154 29.8055 17.0111C27.5695 16.4012 26.3904 16.1573 24.0324 16.4419C20.6173 16.8485 16.8769 17.5803 13.6651 18.5154C12.4048 18.8813 5.77784 20.7514 7.68867 23.3941C7.68867 23.4347 8.82704 21.8491 13.1772 20.5482ZM33.18 15.1003C32.3262 14.6937 31.2285 14.3278 30.0495 14.0025C29.5209 14.4091 28.9518 14.775 28.0573 15.1003C29.4803 15.3442 30.578 15.7508 31.7977 16.1167C32.0416 16.2386 33.0174 15.3035 33.18 15.1003ZM35.8226 20.2229C35.66 20.3449 35.4974 20.5075 35.2941 20.6295C34.0744 21.5646 32.1636 22.2964 29.5209 23.0282C24.0324 24.4918 20.0481 24.7357 15.4946 25.8334C14.6002 26.0367 13.7058 26.362 12.852 26.6872C13.7058 27.1344 14.6002 27.5003 15.5353 27.8662C17.3648 27.3377 18.2592 27.0938 20.9425 26.6466C21.9589 26.4839 25.0894 25.9147 27.3662 25.4269C31.4318 24.6138 37.4082 22.7029 35.8226 20.2229Z" fill="white"/>
<g id="g1109">
<path id="path887" fill-rule="evenodd" clip-rule="evenodd" d="M64.6875 31.9722H69.2003L69.7288 28.6791H72.8187L73.3472 31.9722H77.86L74.0384 12.8232H68.4279L64.6875 31.9722ZM71.3144 18.5964L72.1682 24.4509H70.5013L71.3144 18.5964Z" fill="white"/>
<path id="path889" fill-rule="evenodd" clip-rule="evenodd" d="M82.1678 20.2633C82.8996 20.2633 84.2006 19.8161 84.2006 18.3932C84.2006 16.7263 82.6557 16.6043 82.2491 16.6043C81.7206 16.6043 80.7855 16.6856 79.8098 17.1328L79.7691 12.9859C81.2734 12.62 82.3711 12.498 83.6314 12.498C87.2498 12.498 88.9167 15.0594 88.9167 17.5394C88.9167 19.9787 87.4938 21.4424 86.1521 22.0115V22.2148C87.4531 22.6214 89.2013 23.8817 89.2013 26.809C89.2013 30.4273 86.6806 32.4195 83.4688 32.4195C81.7206 32.4195 80.6229 32.1755 79.2812 31.4437L79.3626 27.4594C80.6229 27.988 81.4767 28.0286 82.3304 28.0286C83.7534 28.0286 84.3226 26.9716 84.3226 26.1991C84.3226 25.1421 83.6314 24.4103 82.1272 24.4103H80.2976V20.2633H82.1678Z" fill="white"/>
<path id="polygon891" fill-rule="evenodd" clip-rule="evenodd" d="M103.437 31.9722H98.9652V17.4174H95.7534V31.9722H91.2812V12.8232H103.437V31.9722Z" fill="white"/>
<path id="path893" fill-rule="evenodd" clip-rule="evenodd" d="M105.953 31.9722H110.385V25.6705H111.889C116.28 25.6705 117.662 21.7269 117.662 19.2062C117.662 16.7262 116.117 12.8232 111.889 12.8232H105.953V31.9722ZM110.385 17.0515H111.442C112.458 17.0515 113.068 17.6613 113.068 19.2469C113.068 21.3203 112.011 21.4423 111.442 21.4423H110.385V17.0515Z" fill="white"/>
<path id="path895" fill-rule="evenodd" clip-rule="evenodd" d="M125.877 32.2166C131.163 32.2166 132.911 27.2972 132.911 22.3778C132.911 17.4584 131.122 12.5391 125.877 12.5391C120.592 12.5391 118.844 17.4584 118.844 22.3778C118.844 27.2972 120.633 32.2166 125.877 32.2166ZM125.877 27.5818C124.332 27.5818 123.519 25.7523 123.519 22.3778C123.519 19.0034 124.332 17.1738 125.877 17.1738C127.463 17.1738 128.235 19.0034 128.235 22.3778C128.276 25.7523 127.463 27.5818 125.877 27.5818Z" fill="white"/>
<path id="path897" fill-rule="evenodd" clip-rule="evenodd" d="M152.258 31.9722H157.584C158.722 31.9722 163.52 31.4843 163.56 25.7112C163.56 20.8325 159.82 19.9787 157.421 19.9787H156.649V17.458H162.544V12.8232H152.298V31.9722H152.258ZM156.649 28.1506V23.8004H157.299C157.828 23.8004 159.21 23.841 159.21 25.7925C159.21 27.8253 157.787 28.1506 157.299 28.1506H156.649Z" fill="white"/>
<path id="polygon899" fill-rule="evenodd" clip-rule="evenodd" d="M191.337 31.9722H187.028V24.3289H183.897V31.9722H179.547V12.8232H183.897V19.7348H187.028V12.8232H191.337V31.9722Z" fill="white"/>
<path id="polygon901" fill-rule="evenodd" clip-rule="evenodd" d="M206.78 12.8232L203.365 21.9302L207.268 31.9722H202.145L199.665 24.2882H198.608V31.9722H194.258V12.8232H198.608V19.7348H199.543L202.064 12.8232H206.78Z" fill="white"/>
<path id="polygon903" fill-rule="evenodd" clip-rule="evenodd" d="M56.1094 12.8232H65.2163V17.6206H60.6222V31.9722H56.1094V12.8232Z" fill="white"/>
<path id="polygon905" fill-rule="evenodd" clip-rule="evenodd" d="M144.861 31.9722V20.3039L142.177 23.6377L139.494 20.3039V31.9722H135.062V12.8232H138.844L142.177 17.3361L145.511 12.8232H149.292V31.9722H144.861Z" fill="white"/>
<path id="path907" fill-rule="evenodd" clip-rule="evenodd" d="M164.422 32.0123H168.935L169.463 28.7191H172.553L173.122 32.0123H177.635L173.813 12.8633H168.203L164.422 32.0123ZM171.049 18.6364L171.903 24.4909H170.236L171.049 18.6364Z" fill="white"/>
</g>
</g>
</g>
<defs>
<clipPath id="clip0_263_2445">
<rect width="207.264" height="43.7458" fill="white" transform="translate(0 0.585938)"/>
</clipPath>
</defs>
</svg>
