<svg width="270" height="74" viewBox="0 0 270 74" fill="none" xmlns="http://www.w3.org/2000/svg">
<g opacity="0.7" clip-path="url(#clip0_597_5762)">
<path fill-rule="evenodd" clip-rule="evenodd" d="M31 37.4584C31 49.5332 40.7981 59.3313 52.8729 59.3313C64.9478 59.3313 74.7458 49.5332 74.7458 37.4584C74.7458 25.3835 64.9478 15.5854 52.8729 15.5854C40.7981 15.5854 31 25.3835 31 37.4584ZM31.7725 37.4584C31.7725 25.7901 41.2453 16.3173 52.9136 16.3173C64.5819 16.3173 74.0547 25.7901 74.0547 37.4584C74.0547 49.086 64.5819 58.5588 52.9136 58.5588C41.2453 58.5995 31.7725 49.1266 31.7725 37.4584Z" fill="white"/>
<path fill-rule="evenodd" clip-rule="evenodd" d="M37.8349 31.4821C43.4454 27.823 49.6251 25.6683 60.1144 27.4978C60.6836 27.1725 61.0088 26.8473 61.1714 26.1561C58.5695 25.221 55.7235 24.8958 52.0645 24.9365C48.7714 25.0178 42.8356 26.2374 39.6644 28.1076L40.6402 26.8879C42.8762 25.587 48.6494 23.8794 52.9589 23.7574C56.0081 23.7168 57.5937 23.8794 61.2121 24.8551C60.8868 24.2453 60.155 23.9201 59.0573 23.4322C55.5609 21.8466 48.9746 21.7246 43.608 24.0827C44.2992 23.6355 44.9497 23.2289 45.8441 22.8223C47.633 22.0092 50.5196 21.2368 54.1379 21.2774C57.0245 21.3181 60.4803 22.3345 62.5944 24.4079C62.9603 24.8145 63.1636 25.2617 63.2449 25.6276C64.9118 26.4814 65.8875 27.2538 66.4161 28.1889C66.6193 28.6768 66.7413 29.2053 66.6193 29.7745C67.3105 30.1811 67.6357 30.547 68.0016 30.9942C68.2456 31.3601 68.4489 31.8073 68.4895 32.2139C68.5708 32.7424 68.6115 33.3116 68.083 34.0027C68.6521 34.2873 69.0994 35.0598 69.1807 35.4257C69.4246 36.686 68.6521 37.9057 67.5544 38.8815C66.3347 39.9792 63.6108 41.2395 61.4154 41.8087C57.0245 42.9064 53.1622 43.3943 50.0724 43.9635C51.4547 44.2887 53.3248 44.7359 56.4147 44.7359C62.9603 44.7359 68.7335 41.6461 68.7335 41.6461C68.7335 41.6461 68.6115 42.0526 68.4895 42.4185C64.3426 44.9392 57.7157 45.9963 54.9104 45.8743C52.0238 45.7523 49.6251 45.3051 47.2671 44.5733C46.5353 44.7766 45.8441 44.9799 45.153 45.3051C48.7307 46.9313 51.4547 47.2972 54.5445 47.5412C57.675 47.7851 62.8383 47.0127 67.2292 45.4271C67.0259 45.6304 66.9446 45.9556 66.7413 46.1182C64.5052 47.2972 59.7485 48.4763 57.3904 48.5576C55.0324 48.6389 52.1458 48.5576 49.6251 48.1104C47.4704 47.7038 45.6815 47.0127 43.852 46.1995C43.5267 46.4435 43.3641 46.7687 43.2828 47.1346C50.3163 50.875 57.0652 50.9563 64.7492 48.5576L64.058 49.2487C55.6016 52.6638 49.0153 51.3222 43.8926 48.8828C43.73 48.8015 43.5267 48.7202 43.3641 48.6389C43.852 49.452 47.755 52.2979 52.1052 52.6638C55.1137 52.9078 58.7727 52.3792 60.9682 51.5255L59.6672 52.176C58.6101 52.7045 55.8048 53.8835 51.9019 53.5989C46.6979 53.233 43.7707 50.9563 42.429 49.7366C41.8192 49.1674 41.5346 48.5169 41.3313 47.7038C40.1523 47.094 39.4205 46.4435 38.8106 45.5084C38.4447 44.9392 38.526 44.3294 38.6074 43.8008L38.7293 43.313C38.1601 42.9064 37.591 42.4592 37.347 42.012C36.8185 41.0769 37.1437 40.3044 37.5096 39.6539C37.1844 39.288 36.8998 38.9628 36.7778 38.5969C36.6559 38.1497 36.6152 37.7431 36.6559 37.2959C36.7372 36.5234 37.1844 35.7916 37.7129 35.1818C38.8513 33.8808 40.6402 32.8644 43.73 31.848C46.7386 30.8722 47.9176 30.7096 50.1943 30.1811C52.837 29.5712 56.0081 29.368 58.6508 28.4329C51.292 27.1319 43.608 28.3109 37.3877 32.6204L37.8349 31.4821ZM62.9196 26.9286C62.8383 27.2945 62.4318 27.7011 62.1878 27.9857C63.001 28.1889 63.8141 28.4735 64.5865 28.7988C64.4646 28.067 63.6514 27.3758 62.9196 26.9286ZM40.2336 41.6461C39.7457 41.3615 39.4205 41.1989 39.0546 40.9143C38.8513 41.3615 39.2579 41.89 39.6644 42.1339C39.827 41.9713 40.0303 41.8087 40.2336 41.6461ZM65.0744 32.0106C65.6029 32.2545 66.0908 32.4578 66.538 32.7831C66.8633 32.1326 66.66 31.726 65.9688 31.1568C65.7249 31.4821 65.3997 31.7667 65.0744 32.0106ZM63.4888 32.9863C62.4318 33.4742 60.8462 34.0027 58.6508 34.5719C56.8619 35.0191 52.4304 35.6696 47.6736 36.686C46.1694 37.0113 42.1038 37.987 40.1116 39.6539C40.6808 40.1011 41.0061 40.2231 41.6566 40.5484C42.4697 40.0198 43.608 39.532 45.2749 39.0847C48.2022 38.3123 50.3569 37.987 52.9996 37.5398C55.6016 37.1333 60.4803 36.1169 63.2042 35.1411C64.0987 34.8159 64.9118 34.4093 65.5216 33.9214C65.3183 33.7588 63.5701 32.905 63.4888 32.9863ZM42.9982 44.3294C43.4048 44.0854 43.8926 43.8415 44.4212 43.6382C43.6487 43.313 42.8762 42.9877 42.1038 42.6218C41.7379 42.8251 41.4126 43.069 41.1687 43.313C41.7785 43.6382 42.3477 44.0041 42.9982 44.3294ZM40.4775 44.5733C40.4775 45.0612 40.7621 45.5084 41.4126 46.0369C41.4939 45.7523 41.6159 45.5897 41.8192 45.3458C41.3313 45.1018 40.9248 44.8172 40.4775 44.5733ZM44.1772 35.5477C49.5032 34.0027 55.1137 33.5149 60.8055 32.0106C58.5695 31.4008 57.3904 31.1568 55.0324 31.4414C51.6173 31.848 47.8769 32.5798 44.6651 33.5149C43.4048 33.8808 36.7778 35.7509 38.6887 38.3936C38.6887 38.4342 39.827 36.8487 44.1772 35.5477ZM64.18 30.0998C63.3262 29.6932 62.2285 29.3273 61.0495 29.0021C60.5209 29.4086 59.9518 29.7745 59.0573 30.0998C60.4803 30.3437 61.578 30.7503 62.7977 31.1162C63.0416 31.2381 64.0174 30.303 64.18 30.0998ZM66.8226 35.2224C66.66 35.3444 66.4974 35.507 66.2941 35.629C65.0744 36.5641 63.1636 37.2959 60.5209 38.0277C55.0324 39.4913 51.0481 39.7352 46.4946 40.8329C45.6002 41.0362 44.7058 41.3615 43.852 41.6867C44.7058 42.1339 45.6002 42.4998 46.5353 42.8657C48.3648 42.3372 49.2592 42.0933 51.9425 41.6461C52.9589 41.4834 56.0894 40.9143 58.3662 40.4264C62.4318 39.6133 68.4082 37.7024 66.8226 35.2224Z" fill="white"/>
<path fill-rule="evenodd" clip-rule="evenodd" d="M95.6875 46.9722H100.2L100.729 43.6791H103.819L104.347 46.9722H108.86L105.038 27.8232H99.4279L95.6875 46.9722ZM102.314 33.5964L103.168 39.4509H101.501L102.314 33.5964Z" fill="white"/>
<path fill-rule="evenodd" clip-rule="evenodd" d="M113.168 35.2633C113.9 35.2633 115.201 34.8161 115.201 33.3932C115.201 31.7263 113.656 31.6043 113.249 31.6043C112.721 31.6043 111.786 31.6856 110.81 32.1328L110.769 27.9859C112.273 27.62 113.371 27.498 114.631 27.498C118.25 27.498 119.917 30.0594 119.917 32.5394C119.917 34.9787 118.494 36.4424 117.152 37.0115V37.2148C118.453 37.6214 120.201 38.8817 120.201 41.809C120.201 45.4273 117.681 47.4195 114.469 47.4195C112.721 47.4195 111.623 47.1755 110.281 46.4437L110.363 42.4594C111.623 42.988 112.477 43.0286 113.33 43.0286C114.753 43.0286 115.323 41.9716 115.323 41.1991C115.323 40.1421 114.631 39.4103 113.127 39.4103H111.298V35.2633H113.168Z" fill="white"/>
<path fill-rule="evenodd" clip-rule="evenodd" d="M134.437 46.9722H129.965V32.4174H126.753V46.9722H122.281V27.8232H134.437V46.9722Z" fill="white"/>
<path fill-rule="evenodd" clip-rule="evenodd" d="M136.953 46.9722H141.385V40.6705H142.889C147.28 40.6705 148.662 36.7269 148.662 34.2062C148.662 31.7262 147.117 27.8232 142.889 27.8232H136.953V46.9722ZM141.385 32.0515H142.442C143.458 32.0515 144.068 32.6613 144.068 34.2469C144.068 36.3203 143.011 36.4423 142.442 36.4423H141.385V32.0515Z" fill="white"/>
<path fill-rule="evenodd" clip-rule="evenodd" d="M156.877 47.2161C162.163 47.2161 163.911 42.2967 163.911 37.3773C163.911 32.4579 162.122 27.5386 156.877 27.5386C151.592 27.5386 149.844 32.4579 149.844 37.3773C149.844 42.2967 151.633 47.2161 156.877 47.2161ZM156.877 42.5813C155.332 42.5813 154.519 40.7518 154.519 37.3773C154.519 34.0029 155.332 32.1734 156.877 32.1734C158.463 32.1734 159.235 34.0029 159.235 37.3773C159.276 40.7518 158.463 42.5813 156.877 42.5813Z" fill="white"/>
<path fill-rule="evenodd" clip-rule="evenodd" d="M183.258 46.9722H188.584C189.722 46.9722 194.52 46.4843 194.56 40.7112C194.56 35.8325 190.82 34.9787 188.421 34.9787H187.649V32.458H193.544V27.8232H183.298V46.9722H183.258ZM187.649 43.1506V38.8004H188.299C188.828 38.8004 190.21 38.841 190.21 40.7925C190.21 42.8253 188.787 43.1506 188.299 43.1506H187.649Z" fill="white"/>
<path fill-rule="evenodd" clip-rule="evenodd" d="M222.337 46.9722H218.028V39.3289H214.897V46.9722H210.547V27.8232H214.897V34.7348H218.028V27.8232H222.337V46.9722Z" fill="white"/>
<path fill-rule="evenodd" clip-rule="evenodd" d="M237.78 27.8232L234.365 36.9302L238.268 46.9722H233.145L230.665 39.2882H229.608V46.9722H225.258V27.8232H229.608V34.7348H230.543L233.064 27.8232H237.78Z" fill="white"/>
<path fill-rule="evenodd" clip-rule="evenodd" d="M87.1094 27.823H96.2163V32.6204H91.6222V46.972H87.1094V27.823Z" fill="white"/>
<path fill-rule="evenodd" clip-rule="evenodd" d="M175.861 46.972V35.3037L173.177 38.6375L170.494 35.3037V46.972H166.062V27.823H169.844L173.177 32.3358L176.511 27.823H180.292V46.972H175.861Z" fill="white"/>
<path fill-rule="evenodd" clip-rule="evenodd" d="M195.422 47.0127H199.935L200.463 43.7196H203.553L204.122 47.0127H208.635L204.813 27.8638H199.203L195.422 47.0127ZM202.049 33.6369L202.903 39.4914H201.236L202.049 33.6369Z" fill="white"/>
</g>
<defs>
<clipPath id="clip0_597_5762">
<rect width="207.264" height="43.7458" fill="white" transform="translate(31 15.5854)"/>
</clipPath>
</defs>
</svg>
