<svg width="210" height="39" viewBox="0 0 210 39" fill="none" xmlns="http://www.w3.org/2000/svg">
<g id="MegaFon_logo 1" opacity="0.7">
<g id="Group">
<path id="Vector" d="M113.58 19.6856V25.3452C113.58 25.5554 113.408 25.7372 113.187 25.7372H108.719C105.11 25.679 103.661 24.0145 103.606 20.3957C103.661 16.8891 104.954 15.1394 108.74 15.0868V15.0948H118.158V11.2204H108.74C102.031 11.2545 99.2671 14.1077 99.1336 20.1721L99.128 20.6479L99.1336 20.6559C99.2771 26.5413 102.035 29.4315 108.551 29.5281V29.5326H115.446C117.039 29.5326 118.18 28.2033 118.18 26.8015V19.6847L113.58 19.6856ZM150.499 29.5233V21.9832H161.959V18.2423H150.499V12.5926C150.499 12.3767 150.674 12.1978 150.894 12.1978H162.225V8.32481H148.635C147.044 8.32481 145.899 9.65131 145.899 11.0559V29.5233H150.499ZM84.7777 25.6702C84.5533 25.6702 84.3829 25.4898 84.3829 25.2768V22.0045H95.8385V18.2665H84.3829V15.4785C84.3829 15.2655 84.5533 15.0837 84.7777 15.0837H96.1098V11.2093H82.5181C80.9246 11.2093 79.7799 12.5415 79.7799 13.9433V26.8106C79.7799 28.2166 80.9246 29.546 82.5181 29.546H96.1098V25.6702H84.7777ZM72.2788 7.88965C70.1271 7.88965 68.7538 9.0372 67.7355 11.3451L61.7449 25.1441L55.7501 11.3451C54.7304 9.0372 53.357 7.88965 51.2039 7.88965C49.19 7.88965 47.1094 9.33119 47.1094 12.4628V29.5468H51.701V12.9301L57.7313 26.6126C58.5423 28.5243 59.8446 29.7244 61.7407 29.7272H61.7452C63.6398 29.7238 64.945 28.5243 65.7545 26.6126L71.7834 12.9301V29.5468H76.3751V12.4628C76.3751 9.33119 74.2913 7.88965 72.2788 7.88965ZM128.643 22.0048L131.471 15.3482C131.56 15.1394 131.722 15.084 131.844 15.084H131.847C131.969 15.084 132.134 15.1394 132.22 15.3482L135.052 22.0048H128.643ZM135.624 13.2562C134.852 11.586 133.32 10.7722 131.847 10.7722H131.845C130.371 10.7722 128.838 11.586 128.073 13.2562L120.558 29.5463H125.447L127.084 25.6747H136.61L138.249 29.5463H143.137L135.624 13.2562ZM203.385 11.2097V23.465L195.49 12.6925C194.824 11.8545 194.083 11.2097 192.559 11.2097C191.16 11.2097 189.431 12.3161 189.431 14.4166V29.5578H194.03V17.3054L201.89 28.1134C202.574 29.0451 203.281 29.5578 204.855 29.5578C206.255 29.5578 207.982 28.5537 207.982 26.3495V11.2097H203.385ZM175.831 25.9288C171.135 25.9288 169.785 24.2046 169.785 20.3657V20.3458C169.785 16.6205 171.073 14.7899 175.831 14.7899C180.594 14.7899 181.879 16.6205 181.879 20.3458V20.3657C181.879 24.2046 180.526 25.9288 175.831 25.9288ZM186.356 20.3458C186.355 13.9264 183.792 10.9325 175.831 10.9325C167.874 10.9325 165.311 13.9264 165.307 20.3458V20.3587C165.307 26.6787 167.941 29.7266 175.831 29.7266C183.723 29.7266 186.356 26.6787 186.356 20.3587V20.3458Z" fill="white"/>
<g id="Group_2">
<path id="Vector_2" d="M15.9778 16.2716C14.7081 16.2716 13.6771 15.242 13.6771 13.9737C13.6771 12.7026 14.7081 11.6729 15.9778 11.6729C17.2475 11.6729 18.2758 12.7026 18.2758 13.9737C18.2758 15.242 17.2475 16.2716 15.9778 16.2716ZM19.5043 1.10352C9.34249 1.10352 1.10938 9.33805 1.10938 19.4984C1.10938 28.3153 7.31439 35.6834 15.593 37.4772V20.9698L15.5941 20.9687C15.6126 20.1719 16.2474 19.53 17.037 19.5001L17.8026 19.499H19.3606C19.4685 19.499 19.5565 19.4138 19.5622 19.3073L19.5634 1.10681M32.1805 29.5333C30.9122 29.5333 29.8811 28.5036 29.8811 27.2325C29.8811 25.9656 30.9122 24.936 32.1805 24.936C33.4487 24.936 34.4798 25.9656 34.4798 27.2325C34.4798 28.5036 33.4487 29.5333 32.1805 29.5333ZM26.7907 29.5333C25.5224 29.5333 24.4927 28.5036 24.4927 27.2325C24.4927 25.9656 25.5224 24.936 26.7907 24.936C28.0604 24.936 29.09 25.9656 29.09 27.2325C29.09 28.5036 28.0604 29.5333 26.7907 29.5333ZM21.398 29.5333C20.1298 29.5333 19.0972 28.5036 19.0972 27.2325C19.0972 25.9656 20.1298 24.936 21.398 24.936C22.6691 24.936 23.6988 25.9656 23.6988 27.2325C23.6988 28.5036 22.6691 29.5333 21.398 29.5333ZM21.7744 1.24215V19.4979V20.208V20.2208L21.7698 20.2254C21.763 21.0463 21.0938 21.7095 20.2701 21.7095H19.5628H18.0062C17.8926 21.7095 17.8017 21.8004 17.8017 21.9126V37.8164C18.3627 37.8676 18.9279 37.896 19.5031 37.896C29.6635 37.896 37.8981 29.6586 37.8981 19.4982C37.8981 10.109 30.8625 2.3613 21.7744 1.24215Z" fill="white"/>
</g>
</g>
</g>
</svg>
