<svg width="270" height="74" viewBox="0 0 270 74" fill="none" xmlns="http://www.w3.org/2000/svg">
<g opacity="0.7">
<path d="M144.58 35.6861V41.3457C144.58 41.5559 144.408 41.7377 144.187 41.7377H139.719C136.11 41.6795 134.661 40.0149 134.606 36.3962C134.661 32.8896 135.954 31.1399 139.74 31.0873V31.0953H149.158V27.2209H139.74C133.031 27.255 130.267 30.1082 130.134 36.1726L130.128 36.6484L130.134 36.6564C130.277 42.5418 133.035 45.432 139.551 45.5286V45.5331H146.446C148.039 45.5331 149.18 44.2038 149.18 42.802V35.6852L144.58 35.6861ZM181.499 45.5238V37.9837H192.959V34.2428H181.499V28.5931C181.499 28.3772 181.674 28.1983 181.894 28.1983H193.225V24.3253H179.635C178.044 24.3253 176.899 25.6518 176.899 27.0564V45.5238H181.499ZM115.778 41.6707C115.553 41.6707 115.383 41.4903 115.383 41.2772V38.005H126.839V34.267H115.383V31.479C115.383 31.266 115.553 31.0842 115.778 31.0842H127.11V27.2098H113.518C111.925 27.2098 110.78 28.542 110.78 29.9438V42.8111C110.78 44.2171 111.925 45.5465 113.518 45.5465H127.11V41.6707H115.778ZM103.279 23.8901C101.127 23.8901 99.7538 25.0377 98.7355 27.3456L92.7449 41.1446L86.7501 27.3456C85.7304 25.0377 84.357 23.8901 82.2039 23.8901C80.19 23.8901 78.1094 25.3317 78.1094 28.4633V45.5473H82.701V28.9306L88.7313 42.6131C89.5423 44.5248 90.8446 45.7249 92.7407 45.7277H92.7452C94.6398 45.7243 95.945 44.5248 96.7545 42.6131L102.783 28.9306V45.5473H107.375V28.4633C107.375 25.3317 105.291 23.8901 103.279 23.8901ZM159.643 38.0053L162.471 31.3487C162.56 31.1399 162.722 31.0845 162.844 31.0845H162.847C162.969 31.0845 163.134 31.1399 163.22 31.3487L166.052 38.0053H159.643ZM166.624 29.2566C165.852 27.5864 164.32 26.7726 162.847 26.7726H162.845C161.371 26.7726 159.838 27.5864 159.073 29.2566L151.558 45.5468H156.447L158.084 41.6752H167.61L169.249 45.5468H174.137L166.624 29.2566ZM234.385 27.2102V39.4654L226.49 28.6929C225.824 27.855 225.083 27.2102 223.559 27.2102C222.16 27.2102 220.431 28.3166 220.431 30.4171V45.5583H225.03V33.3059L232.89 44.1139C233.574 45.0456 234.281 45.5583 235.855 45.5583C237.255 45.5583 238.982 44.5542 238.982 42.3499V27.2102H234.385ZM206.831 41.9293C202.135 41.9293 200.785 40.2051 200.785 36.3662V36.3463C200.785 32.621 202.073 30.7904 206.831 30.7904C211.594 30.7904 212.879 32.621 212.879 36.3463V36.3662C212.879 40.2051 211.526 41.9293 206.831 41.9293ZM217.356 36.3463C217.355 29.9268 214.792 26.933 206.831 26.933C198.874 26.933 196.311 29.9268 196.307 36.3463V36.3592C196.307 42.6792 198.941 45.727 206.831 45.727C214.723 45.727 217.356 42.6792 217.356 36.3592V36.3463Z" fill="white"/>
<path d="M46.9778 32.2721C45.7081 32.2721 44.6771 31.2425 44.6771 29.9742C44.6771 28.7031 45.7081 27.6734 46.9778 27.6734C48.2475 27.6734 49.2758 28.7031 49.2758 29.9742C49.2758 31.2425 48.2475 32.2721 46.9778 32.2721ZM50.5043 17.104C40.3425 17.104 32.1094 25.3385 32.1094 35.4989C32.1094 44.3157 38.3144 51.6839 46.593 53.4777V36.9703L46.5941 36.9691C46.6126 36.1724 47.2474 35.5304 48.037 35.5006L48.8026 35.4995H50.3606C50.4685 35.4995 50.5565 35.4143 50.5622 35.3077L50.5634 17.1073M63.1805 45.5338C61.9122 45.5338 60.8811 44.5041 60.8811 43.233C60.8811 41.9661 61.9122 40.9365 63.1805 40.9365C64.4487 40.9365 65.4798 41.9661 65.4798 43.233C65.4798 44.5041 64.4487 45.5338 63.1805 45.5338ZM57.7907 45.5338C56.5224 45.5338 55.4927 44.5041 55.4927 43.233C55.4927 41.9661 56.5224 40.9365 57.7907 40.9365C59.0604 40.9365 60.09 41.9661 60.09 43.233C60.09 44.5041 59.0604 45.5338 57.7907 45.5338ZM52.398 45.5338C51.1298 45.5338 50.0972 44.5041 50.0972 43.233C50.0972 41.9661 51.1298 40.9365 52.398 40.9365C53.6691 40.9365 54.6988 41.9661 54.6988 43.233C54.6988 44.5041 53.6691 45.5338 52.398 45.5338ZM52.7744 17.2426V35.4984V36.2085V36.2213L52.7698 36.2259C52.763 37.0468 52.0938 37.71 51.2701 37.71H50.5628H49.0062C48.8926 37.71 48.8017 37.8009 48.8017 37.9131V53.8169C49.3627 53.8681 49.9279 53.8965 50.5031 53.8965C60.6635 53.8965 68.8981 45.6591 68.8981 35.4987C68.8981 26.1095 61.8625 18.3618 52.7744 17.2426Z" fill="white"/>
</g>
</svg>
