<svg width="127" height="39" viewBox="0 0 127 39" fill="none" xmlns="http://www.w3.org/2000/svg">
<g id="Mir-logo.SVG 1" opacity="0.7">
<g id="sim">
<g id="mir-logo">
<g id="Group-5">
<path id="Combined-Shape" fill-rule="evenodd" clip-rule="evenodd" d="M20.1864 4.13216C21.1848 4.12618 24.1522 3.85893 25.4091 8.10099C26.2557 10.9585 27.6044 15.6392 29.4551 22.1431H30.2088C32.1936 15.2862 33.557 10.6055 34.2991 8.10099C35.5691 3.81474 38.7441 4.13224 40.0141 4.13224L49.8124 4.13225V34.6122H39.8257V16.6498H39.156L33.5889 34.6122H26.0751L20.508 16.6365H19.8383V34.6122H9.85156V4.13225L20.1864 4.13216ZM64.1532 4.13225V22.108H64.9499L71.7218 7.32666C73.0363 4.38514 75.838 4.13225 75.838 4.13225H85.5022V34.6122H75.3069V16.6365H74.5102L67.8711 31.4178C66.5565 34.346 63.6221 34.6122 63.6221 34.6122H53.9579V4.13225H64.1532ZM120.742 18.6165C119.32 22.6466 114.854 25.5327 109.909 25.5327H99.2172V34.6122H89.522V18.6165H120.742Z" fill="white"/>
<path id="path24" fill-rule="evenodd" clip-rule="evenodd" d="M110.379 4.13281H89.0156C89.524 10.9187 95.3679 16.7278 101.417 16.7278H121.417C122.572 11.088 118.598 4.13281 110.379 4.13281Z" fill="white"/>
</g>
</g>
</g>
</g>
</svg>
