<svg width="270" height="74" viewBox="0 0 270 74" fill="none" xmlns="http://www.w3.org/2000/svg">
<g opacity="0.7">
<path fill-rule="evenodd" clip-rule="evenodd" d="M91.1864 22.1326C92.1848 22.1267 95.1522 21.8594 96.4091 26.1015C97.2557 28.959 98.6044 33.6397 100.455 40.1436H101.209C103.194 33.2867 104.557 28.606 105.299 26.1015C106.569 21.8152 109.744 22.1327 111.014 22.1327L120.812 22.1327V52.6127H110.826V34.6503H110.156L104.589 52.6127H97.0751L91.508 34.637H90.8383V52.6127H80.8516V22.1327L91.1864 22.1326ZM135.153 22.1327V40.1084H135.95L142.722 25.3271C144.036 22.3856 146.838 22.1327 146.838 22.1327H156.502V52.6127H146.307V34.637H145.51L138.871 49.4183C137.557 52.3465 134.622 52.6127 134.622 52.6127H124.958V22.1327H135.153ZM191.742 36.617C190.32 40.647 185.854 43.5332 180.909 43.5332H170.217V52.6127H160.522V36.617H191.742Z" fill="white"/>
<path fill-rule="evenodd" clip-rule="evenodd" d="M181.379 22.1331H160.016C160.524 28.9189 166.368 34.7281 172.417 34.7281H192.417C193.572 29.0882 189.598 22.1331 181.379 22.1331Z" fill="white"/>
</g>
</svg>
