<svg width="229" height="37" viewBox="0 0 229 37" fill="none" xmlns="http://www.w3.org/2000/svg">
<g id="Sberbank_Logo_2020 2" opacity="0.7" clip-path="url(#clip0_263_2424)">
<path id="Vector" d="M31.4381 7.16406C32.2717 8.25633 32.9774 9.44298 33.5409 10.7002L17.5557 22.6424L10.875 18.3982V13.2922L17.5557 17.5364L31.4381 7.16406Z" fill="white"/>
<path id="Vector_2" d="M4.05418 18.0384C4.05418 17.8092 4.0597 17.5817 4.07072 17.3554L0.0220498 17.1543C0.00826941 17.4476 4.89263e-06 17.7437 4.89263e-06 18.0425C-0.00171771 20.3774 0.451445 22.6896 1.33351 24.8465C2.21557 27.0035 3.50916 28.9627 5.14008 30.6117L8.0119 27.7027C6.75648 26.4355 5.76055 24.9293 5.08135 23.2708C4.40215 21.6123 4.05307 19.834 4.05418 18.0384Z" fill="white"/>
<path id="Vector_3" d="M17.5499 4.36182C17.7759 4.36182 18.0004 4.3702 18.2237 4.38137L18.4262 0.27682C18.136 0.262855 17.8438 0.255873 17.5499 0.255873C15.2449 0.253024 12.9622 0.711623 10.8327 1.60534C8.70311 2.49905 6.76875 3.81028 5.14062 5.46373L8.01245 8.3742C9.26286 7.10147 10.7492 6.09177 12.386 5.40318C14.0227 4.7146 15.7776 4.36069 17.5499 4.36182Z" fill="white"/>
<path id="Vector_4" d="M17.5496 31.7141C17.3237 31.7141 17.099 31.7141 16.8745 31.6959L16.6719 35.7991C16.9631 35.8139 17.2557 35.8215 17.5496 35.8215C19.8537 35.8238 22.1353 35.365 24.2637 34.471C26.3921 33.577 28.3252 32.2656 29.9521 30.6122L27.0857 27.7031C25.8351 28.9752 24.3489 29.9843 22.7125 30.6726C21.076 31.361 19.3215 31.7149 17.5496 31.7141Z" fill="white"/>
<path id="Vector_5" d="M25.1592 6.74803L28.5712 4.19927C25.4526 1.63998 21.5598 0.246802 17.5469 0.253933V4.36127C20.2642 4.35786 22.9185 5.1901 25.1592 6.74803Z" fill="white"/>
<path id="Vector_6" d="M35.0999 18.0386C35.1021 16.9701 35.0099 15.9034 34.8243 14.8516L31.0471 17.6726C31.0471 17.7942 31.0471 17.9157 31.0471 18.0386C31.0481 19.9495 30.6528 21.8393 29.8871 23.5855C29.1212 25.3316 28.0018 26.8952 26.6016 28.1749L29.326 31.2265C31.1464 29.5609 32.6012 27.5263 33.5958 25.2544C34.5906 22.9825 35.103 20.5241 35.0999 18.0386Z" fill="white"/>
<path id="Vector_7" d="M17.5441 31.7144C15.6584 31.715 13.7936 31.3143 12.0703 30.5382C10.3472 29.7621 8.80405 28.6278 7.54087 27.209L4.53125 29.9686C6.1745 31.8139 8.18209 33.2884 10.4238 34.2968C12.6656 35.305 15.0914 35.8246 17.5441 35.8217V31.7144Z" fill="white"/>
<path id="Vector_8" d="M8.49974 7.90114L5.77674 4.84961C3.95576 6.51486 2.50049 8.54941 1.50531 10.8213C0.510142 13.0932 -0.00271318 15.5518 1.07944e-05 18.0375H4.05419C4.05336 16.1267 4.44867 14.2369 5.21448 12.4907C5.9803 10.7446 7.09956 9.18093 8.49974 7.90114Z" fill="white"/>
<g id="Clip path group">
<mask id="mask0_263_2424" style="mask-type:luminance" maskUnits="userSpaceOnUse" x="44" y="6" width="184" height="24">
<g id="clip0">
<path id="Vector_9" d="M227.683 6.44141H44.5469V29.9521H227.683V6.44141Z" fill="white"/>
</g>
</mask>
<g mask="url(#mask0_263_2424)">
<g id="Group">
<path id="Vector_10" d="M101.276 10.4253L106.297 6.71875H89.4922V28.9921H106.297V25.2855H94.2873V19.5802H104.532V15.8736H94.2873V10.4253H101.276Z" fill="white"/>
<path id="Vector_11" d="M78.189 15.3947H72.3547V10.4229H81.666L86.6841 6.70508H67.5625V28.9784H77.5718C83.1836 28.9784 86.4042 26.4299 86.4042 21.9855C86.4042 17.7336 83.4871 15.3947 78.189 15.3947ZM77.356 25.2707H72.3547V19.099H77.356C80.3912 19.099 81.8143 20.1333 81.8143 22.1849C81.8143 24.2364 80.3001 25.2707 77.356 25.2707Z" fill="white"/>
<path id="Vector_12" d="M118.647 6.71582H109.5V28.9891H114.294V22.6794H118.647C124.484 22.6794 128.094 19.6024 128.094 14.6857C128.094 9.76923 124.484 6.71582 118.647 6.71582ZM118.546 18.97H114.294V10.4252H118.546C121.616 10.4252 123.31 11.9435 123.31 14.6993C123.31 17.4552 121.616 18.97 118.546 18.97Z" fill="white"/>
<path id="Vector_13" d="M60.3632 23.7323C59.1247 24.4044 57.737 24.7523 56.3287 24.7441C52.1134 24.7441 49.0555 21.7288 49.0555 17.5767C49.0555 13.4245 52.1134 10.4027 56.3287 10.4027C57.8488 10.3768 59.3374 10.8387 60.5769 11.7208L63.9307 9.24599L63.7039 9.08452C61.7475 7.36105 59.1335 6.44824 56.1414 6.44824C52.896 6.44824 49.9532 7.54229 47.8521 9.53269C46.7897 10.5575 45.9495 11.7908 45.3838 13.1555C44.8181 14.5202 44.5389 15.987 44.5641 17.4646C44.5415 18.9572 44.8194 20.439 45.3809 21.8216C45.9425 23.2043 46.7762 24.4593 47.8324 25.5119C49.9433 27.5814 52.8795 28.7215 56.1019 28.7215C59.4688 28.7215 62.4117 27.545 64.4043 25.4032L61.4023 23.1623L60.3632 23.7323Z" fill="white"/>
<path id="Vector_14" d="M147.112 15.3947H141.28V10.4229H153.812V6.70508H136.484V28.9784H146.481C152.092 28.9784 155.313 26.4299 155.313 21.9855C155.326 17.7336 152.41 15.3947 147.112 15.3947ZM146.279 25.2707H141.28V19.099H146.279C149.314 19.099 150.736 20.1333 150.736 22.1849C150.736 24.2364 149.235 25.2707 146.279 25.2707Z" fill="white"/>
<path id="Vector_15" d="M209.814 28.9472H204.953V6.67383H209.814V16.0288H212.46L219.604 6.67383H225.113L216.639 17.2695L226.479 28.9472H220.029L212.797 20.1873H209.814V28.9472Z" fill="white"/>
<path id="Vector_16" d="M172.964 24.7147H162.682L160.938 29.0399H155.766L165.41 6.7666H170.582L180.069 29.0399H174.707L172.964 24.7147ZM171.354 20.6789L167.853 12.0284L164.333 20.6789H171.354Z" fill="white"/>
<path id="Vector_17" d="M186.621 6.7666V16.0675H196.68V6.7666H201.692V29.0399H196.68V20.2634H186.621V29.0399H181.609V6.7666H186.621Z" fill="white"/>
</g>
</g>
</g>
</g>
<defs>
<clipPath id="clip0_263_2424">
<rect width="228.358" height="35.8848" fill="white" transform="translate(0 0.253906)"/>
</clipPath>
</defs>
</svg>
