<svg width="270" height="74" viewBox="0 0 270 74" fill="none" xmlns="http://www.w3.org/2000/svg">
<g opacity="0.7" clip-path="url(#clip0_597_5759)">
<path d="M52.4381 26.1646C53.2717 27.2568 53.9774 28.4435 54.5409 29.7007L38.5557 41.6429L31.875 37.3987V32.2927L38.5557 36.5369L52.4381 26.1646Z" fill="white"/>
<path d="M25.0542 37.0379C25.0542 36.8088 25.0597 36.5812 25.0707 36.3549L21.022 36.1538C21.0083 36.4471 21 36.7432 21 37.042C20.9983 39.3769 21.4514 41.6891 22.3335 43.846C23.2156 46.003 24.5092 47.9622 26.1401 49.6112L29.0119 46.7022C27.7565 45.435 26.7605 43.9288 26.0813 42.2703C25.4021 40.6118 25.0531 38.8335 25.0542 37.0379Z" fill="white"/>
<path d="M38.5499 23.3618C38.7759 23.3618 39.0004 23.3702 39.2237 23.3814L39.4262 19.2768C39.136 19.2629 38.8438 19.2559 38.5499 19.2559C36.2449 19.253 33.9622 19.7116 31.8327 20.6053C29.7031 21.4991 27.7687 22.8103 26.1406 24.4637L29.0124 27.3742C30.2629 26.1015 31.7492 25.0918 33.386 24.4032C35.0227 23.7146 36.7776 23.3607 38.5499 23.3618Z" fill="white"/>
<path d="M38.5496 50.7146C38.3237 50.7146 38.099 50.7146 37.8745 50.6964L37.6719 54.7995C37.9631 54.8144 38.2557 54.8219 38.5496 54.8219C40.8537 54.8243 43.1353 54.3654 45.2637 53.4715C47.3921 52.5775 49.3252 51.2661 50.9521 49.6127L48.0857 46.7036C46.8351 47.9757 45.3489 48.9848 43.7125 49.6731C42.076 50.3615 40.3215 50.7154 38.5496 50.7146Z" fill="white"/>
<path d="M46.1592 25.748L49.5712 23.1993C46.4526 20.64 42.5598 19.2468 38.5469 19.2539V23.3613C41.2642 23.3579 43.9185 24.1901 46.1592 25.748Z" fill="white"/>
<path d="M56.0999 37.0381C56.1021 35.9696 56.0099 34.9029 55.8243 33.8511L52.0471 36.6722C52.0471 36.7937 52.0471 36.9152 52.0471 37.0381C52.0481 38.949 51.6528 40.8388 50.8871 42.585C50.1212 44.3312 49.0018 45.8948 47.6016 47.1744L50.326 50.226C52.1464 48.5605 53.6012 46.5258 54.5958 44.254C55.5906 41.982 56.103 39.5236 56.0999 37.0381Z" fill="white"/>
<path d="M38.5441 50.7149C36.6584 50.7155 34.7936 50.3148 33.0703 49.5387C31.3472 48.7626 29.804 47.6283 28.5409 46.2095L25.5312 48.9691C27.1745 50.8144 29.1821 52.2889 31.4238 53.2973C33.6656 54.3055 36.0914 54.8251 38.5441 54.8221V50.7149Z" fill="white"/>
<path d="M29.4997 26.9016L26.7767 23.8501C24.9558 25.5153 23.5005 27.5499 22.5053 29.8218C21.5101 32.0937 20.9973 34.5523 21 37.038H25.0542C25.0534 35.1272 25.4487 33.2374 26.2145 31.4912C26.9803 29.7451 28.0996 28.1814 29.4997 26.9016Z" fill="white"/>
<mask id="mask0_597_5759" style="mask-type:luminance" maskUnits="userSpaceOnUse" x="65" y="25" width="184" height="24">
<path d="M248.683 25.4409H65.5469V48.9516H248.683V25.4409Z" fill="white"/>
</mask>
<g mask="url(#mask0_597_5759)">
<path d="M122.276 29.4248L127.297 25.7183H110.492V47.9916H127.297V44.285H115.287V38.5797H125.532V34.8731H115.287V29.4248H122.276Z" fill="white"/>
<path d="M99.189 34.3947H93.3547V29.4229H102.666L107.684 25.7051H88.5625V47.9784H98.5718C104.184 47.9784 107.404 45.4299 107.404 40.9855C107.404 36.7336 104.487 34.3947 99.189 34.3947ZM98.356 44.2707H93.3547V38.099H98.356C101.391 38.099 102.814 39.1333 102.814 41.1849C102.814 43.2364 101.3 44.2707 98.356 44.2707Z" fill="white"/>
<path d="M139.647 25.7153H130.5V47.9886H135.294V41.679H139.647C145.484 41.679 149.094 38.6019 149.094 33.6852C149.094 28.7687 145.484 25.7153 139.647 25.7153ZM139.546 37.9696H135.294V29.4247H139.546C142.616 29.4247 144.31 30.943 144.31 33.6988C144.31 36.4547 142.616 37.9696 139.546 37.9696Z" fill="white"/>
<path d="M81.3632 42.7319C80.1247 43.4039 78.737 43.7518 77.3287 43.7436C73.1134 43.7436 70.0555 40.7283 70.0555 36.5762C70.0555 32.424 73.1134 29.4022 77.3287 29.4022C78.8488 29.3763 80.3374 29.8382 81.5769 30.7204L84.9307 28.2455L84.7039 28.084C82.7475 26.3606 80.1335 25.4478 77.1414 25.4478C73.896 25.4478 70.9532 26.5418 68.8521 28.5322C67.7897 29.557 66.9495 30.7903 66.3838 32.155C65.8181 33.5197 65.5389 34.9865 65.5641 36.4641C65.5415 37.9567 65.8194 39.4385 66.3809 40.8212C66.9425 42.2038 67.7762 43.4588 68.8324 44.5114C70.9433 46.5809 73.8795 47.721 77.1019 47.721C80.4688 47.721 83.4117 46.5446 85.4043 44.4027L82.4023 42.1618L81.3632 42.7319Z" fill="white"/>
<path d="M168.112 34.3947H162.28V29.4229H174.812V25.7051H157.484V47.9784H167.481C173.092 47.9784 176.313 45.4299 176.313 40.9855C176.326 36.7336 173.41 34.3947 168.112 34.3947ZM167.279 44.2707H162.28V38.099H167.279C170.314 38.099 171.736 39.1333 171.736 41.1849C171.736 43.2364 170.235 44.2707 167.279 44.2707Z" fill="white"/>
<path d="M230.814 47.9467H225.953V25.6733H230.814V35.0283H233.46L240.604 25.6733H246.113L237.639 36.269L247.479 47.9467H241.029L233.797 39.1868H230.814V47.9467Z" fill="white"/>
<path d="M193.964 43.7142H183.682L181.938 48.0394H176.766L186.41 25.7661H191.582L201.069 48.0394H195.707L193.964 43.7142ZM192.354 39.6785L188.853 31.0279L185.333 39.6785H192.354Z" fill="white"/>
<path d="M207.621 25.7661V35.067H217.68V25.7661H222.692V48.0394H217.68V39.263H207.621V48.0394H202.609V25.7661H207.621Z" fill="white"/>
</g>
</g>
<defs>
<clipPath id="clip0_597_5759">
<rect width="228.358" height="35.8848" fill="white" transform="translate(21 19.2539)"/>
</clipPath>
</defs>
</svg>
