<svg width="270" height="74" viewBox="0 0 270 74" fill="none" xmlns="http://www.w3.org/2000/svg">
<path opacity="0.7" fill-rule="evenodd" clip-rule="evenodd" d="M92.5777 45.5726H87.3058C79.0824 45.5726 85.0567 28.0353 91.98 28.0353H100.309C101.645 28.0353 103.999 28.282 105.159 24.9654L106.952 19.8135H95.5296C89.3442 19.8135 84.5295 22.001 81.0503 25.6712C75.0405 31.9522 73.0025 41.7618 74.4432 46.4545C75.8139 50.7951 79.5391 53.6529 85.3729 53.7234L89.9065 53.759H95.4946L96.8653 49.6305C97.8842 46.7016 95.5997 45.5726 92.5777 45.5726ZM156.75 38.3037L158.472 32.693H140.092C137.035 32.693 135.664 33.5399 135.137 35.3043L133.414 40.9149H151.795C154.853 40.9149 156.223 40.068 156.75 38.3037ZM130.674 48.1838L128.951 53.794H147.332C150.354 53.794 151.76 52.9476 152.287 51.1832L154.009 45.5726H135.629C132.607 45.5726 131.236 46.4195 130.674 48.1838ZM161.038 25.4591L162.76 19.849H144.38C141.322 19.849 139.952 20.6954 139.424 22.4597L137.702 28.0704H156.083C159.105 28.0704 160.475 27.2235 161.038 25.4591ZM133.274 26.5887C132.501 21.3662 129.725 19.849 122.977 19.849H110.677L103.507 40.9149H108.041C110.747 40.9149 112.117 40.9499 113.559 37.0686L116.546 28.0353H121.114C125.016 28.0353 124.137 32.9402 122.169 37.7034C120.411 41.9029 117.354 45.6076 113.664 45.6076H106.038C102.98 45.6076 101.574 46.4545 101.012 48.2188L99.1143 53.8295H104.702L110.185 53.794C115.034 53.7589 119.006 53.4063 123.645 49.2068C128.565 44.7257 134.258 33.2223 133.274 26.5887ZM195.057 19.8135H184.408L174.392 30.505C173.233 31.7401 172.038 32.9752 170.878 34.4219H170.773L175.763 19.8135H167.082L155.38 53.794H164.06L167.785 43.1024L171.651 39.8209L174.709 49.4895C175.657 52.4889 176.642 53.794 178.75 53.794H185.392L178.575 34.81L195.057 19.8135Z" fill="white"/>
</svg>
