<svg width="122" height="35" viewBox="0 0 122 35" fill="none" xmlns="http://www.w3.org/2000/svg">
<path id="Vector" opacity="0.7" fill-rule="evenodd" clip-rule="evenodd" d="M18.5777 26.5726H13.3058C5.08239 26.5726 11.0567 9.03535 17.98 9.03535H26.3094C27.6445 9.03535 29.9991 9.28196 31.1592 5.9654L32.9515 0.813477H21.5296C15.3442 0.813477 10.5295 3.00101 7.05031 6.67124C1.04049 12.9522 -0.997471 22.7618 0.443207 27.4545C1.81385 31.7951 5.53911 34.6529 11.3729 34.7234L15.9065 34.759H21.4946L22.8653 30.6305C23.8842 27.7016 21.5997 26.5726 18.5777 26.5726ZM82.75 19.3037L84.4723 13.693H66.0921C63.0347 13.693 61.664 14.5399 61.1368 16.3043L59.4145 21.9149H77.7951C80.8526 21.9149 82.2232 21.068 82.75 19.3037ZM56.6737 29.1838L54.9514 34.794H73.3315C76.3539 34.794 77.7596 33.9476 78.2869 32.1832L80.0092 26.5726H61.6285C58.6066 26.5726 57.2359 27.4195 56.6737 29.1838ZM87.038 6.45913L88.7598 0.848993H70.3796C67.3222 0.848993 65.9515 1.69539 65.4243 3.45972L63.702 9.07036H82.0826C85.1051 9.07036 86.4752 8.22346 87.038 6.45913ZM59.2739 7.58867C58.501 2.36621 55.7247 0.848993 48.9771 0.848993H36.6768L29.5074 21.9149H34.041C36.7468 21.9149 38.1174 21.9499 39.5586 18.0686L42.5455 9.03535H47.1142C51.0155 9.03535 50.1366 13.9402 48.1687 18.7034C46.4114 22.9029 43.3539 26.6076 39.6637 26.6076H32.0376C28.9801 26.6076 27.5745 27.4545 27.0122 29.2188L25.1143 34.8295H30.702L36.1845 34.794C41.0343 34.7589 45.0057 34.4063 49.6449 30.2068C54.5647 25.7257 60.2584 14.2223 59.2739 7.58867ZM121.057 0.813477H110.408L100.392 11.505C99.2327 12.7401 98.0377 13.9752 96.8781 15.4219H96.7726L101.763 0.813477H93.0823L81.3798 34.794H90.0599L93.7851 24.1024L97.651 20.8209L100.709 30.4895C101.657 33.4889 102.642 34.794 104.75 34.794H111.392L104.575 15.81L121.057 0.813477Z" fill="white"/>
</svg>
