<svg width="111" height="40" viewBox="0 0 111 40" fill="none" xmlns="http://www.w3.org/2000/svg">
<g id="VTB_Logo_2018 2" opacity="0.7" clip-path="url(#clip0_263_2412)">
<g id="vtb_ru">
<g id="Group-6">
<g id="Group-Copy">
<g id="Group-2">
<path id="Fill-1" fill-rule="evenodd" clip-rule="evenodd" d="M7.47713 0.0625L5.60668 5.18602H31.5269L33.3974 0.0625H7.47713ZM4.67087 7.74662L2.80042 12.869H28.7207L30.5911 7.74662H4.67087ZM1.87045 15.4307L0 20.5531H25.9202L27.7895 15.4307H1.87045Z" fill="white"/>
<g id="Mask group">

<g mask="url(#mask0_263_2412)">
<path id="Fill-2" fill-rule="evenodd" clip-rule="evenodd" d="M55.1068 22.5052V22.6133C56.2914 23.048 57.4229 23.8083 58.0158 24.2966C59.8474 25.8171 60.656 27.826 60.656 30.4323C60.656 34.7232 58.3929 37.8178 54.6754 38.7954C53.5439 39.1209 52.3593 39.2302 50.1493 39.2302H38.8906V7.84473H48.8575C50.9048 7.84473 52.3051 7.95283 53.5439 8.27833C57.1541 9.25601 59.5245 11.7543 59.5245 15.7172C59.5245 17.8353 58.7701 19.628 57.5313 20.8218C56.9927 21.3647 56.2383 22.0169 55.1068 22.5052ZM45.1399 25.8171V34.071H49.4503C50.7422 34.071 51.9279 33.9629 52.7907 33.148C53.6523 32.333 54.0295 31.3019 54.0295 29.9441C54.0295 28.9129 53.7596 27.9353 53.2209 27.2296C52.3051 26.0892 51.1736 25.8171 49.2346 25.8171H45.1399ZM45.0857 20.387H48.5876C49.6649 20.387 50.2035 20.387 50.7422 20.2243C52.1978 19.7895 53.1137 18.4875 53.1137 16.6949C53.1137 14.578 52.1436 13.6538 50.7422 13.2202C50.1493 13.0574 49.5576 13.0028 48.3719 13.0028H45.0857V20.387ZM70.03 39.2302V13.1109H61.0332V7.84473H86.0316L84.2542 13.1109H76.2793V39.2302H70.03ZM87.9705 39.2302V7.84473H108.228L106.451 13.1109H94.1668V20.0616H99.1773C103.218 20.0616 105.319 21.0392 106.774 22.2878C107.905 23.2654 109.844 25.437 109.844 29.7279C109.844 33.9629 107.851 36.2972 106.181 37.4923C104.242 38.8489 102.195 39.2302 98.0458 39.2302H87.9705ZM94.1668 33.9629H98.8544C100.632 33.9629 101.709 33.5281 102.463 32.5504C102.841 32.0622 103.379 31.1926 103.379 29.5639C103.379 27.9353 102.841 26.7948 101.763 25.9799C101.117 25.4916 100.255 25.2208 98.8002 25.2208H94.1668V33.9629Z" fill="white"/>
</g>
</g>
</g>
</g>
</g>
</g>
</g>
<defs>
<clipPath id="clip0_263_2412">
<rect width="110.052" height="39.4751" fill="white" transform="translate(0 0.0625)"/>
</clipPath>
</defs>
</svg>
