<svg width="270" height="74" viewBox="0 0 270 74" fill="none" xmlns="http://www.w3.org/2000/svg">
<g opacity="0.7" clip-path="url(#clip0_597_5764)">
<path fill-rule="evenodd" clip-rule="evenodd" d="M87.4771 17.063L85.6067 22.1865H111.527L113.397 17.063H87.4771ZM84.6709 24.7471L82.8004 29.8695H108.721L110.591 24.7471H84.6709ZM81.8704 32.4312L80 37.5536H105.92L107.79 32.4312H81.8704Z" fill="white"/>
<mask id="mask0_597_5764" style="mask-type:luminance" maskUnits="userSpaceOnUse" x="118" y="24" width="72" height="33">
<path d="M118.891 56.23H189.844V24.8452H118.891V56.23Z" fill="#0A2973"/>
</mask>
<g mask="url(#mask0_597_5764)">
<path fill-rule="evenodd" clip-rule="evenodd" d="M135.107 39.5056V39.6137C136.291 40.0485 137.423 40.8088 138.016 41.2971C139.847 42.8176 140.656 44.8264 140.656 47.4328C140.656 51.7237 138.393 54.8183 134.675 55.7959C133.544 56.1214 132.359 56.2307 130.149 56.2307H118.891V24.8452H128.857C130.905 24.8452 132.305 24.9533 133.544 25.2788C137.154 26.2565 139.524 28.7547 139.524 32.7177C139.524 34.8358 138.77 36.6284 137.531 37.8223C136.993 38.3652 136.238 39.0174 135.107 39.5056ZM125.14 42.8176V51.0715H129.45C130.742 51.0715 131.928 50.9634 132.791 50.1484C133.652 49.3335 134.029 48.3024 134.029 46.9446C134.029 45.9134 133.76 44.9357 133.221 44.2301C132.305 43.0897 131.174 42.8176 129.235 42.8176H125.14ZM125.086 37.3875H128.588C129.665 37.3875 130.204 37.3875 130.742 37.2248C132.198 36.79 133.114 35.488 133.114 33.6954C133.114 31.5785 132.144 30.6543 130.742 30.2207C130.149 30.0579 129.558 30.0033 128.372 30.0033H125.086V37.3875ZM150.03 56.2307V30.1114H141.033V24.8452H166.032L164.254 30.1114H156.279V56.2307H150.03ZM167.971 56.2307V24.8452H188.228L186.451 30.1114H174.167V37.062H179.177C183.218 37.062 185.319 38.0397 186.774 39.2882C187.905 40.2659 189.844 42.4375 189.844 46.7283C189.844 50.9634 187.851 53.2977 186.181 54.4928C184.242 55.8494 182.195 56.2307 178.046 56.2307H167.971ZM174.167 50.9634H178.854C180.632 50.9634 181.709 50.5286 182.463 49.5509C182.841 49.0627 183.379 48.1931 183.379 46.5644C183.379 44.9357 182.841 43.7953 181.763 42.9804C181.117 42.4921 180.255 42.2213 178.8 42.2213H174.167V50.9634Z" fill="white"/>
</g>
</g>
<defs>
<clipPath id="clip0_597_5764">
<rect width="110.052" height="39.4751" fill="white" transform="translate(80 17.0625)"/>
</clipPath>
</defs>
</svg>
