<svg width="124" height="115" viewBox="0 0 124 115" fill="none" xmlns="http://www.w3.org/2000/svg">
<g id="Group 1">
<path id="Vector" d="M32.6291 81.151V31.9738H9.38816V0H0V81.151H32.6291Z" fill="white"/>
<path id="Vector_2" d="M42.0131 0H32.625V31.9738H42.0131V0Z" fill="white"/>
<path id="Vector_3" d="M65.2075 31.9727H42.0156V81.1498H65.2075V31.9727Z" fill="white"/>
<path id="Vector_4" d="M16.3186 0H0V34.2348H16.3186V0Z" fill="white"/>
<path id="Vector_5" d="M83.1551 0H78.4609V31.9738H83.1551V0Z" fill="white"/>
<path id="Vector_6" d="M94.7484 31.9727H83.1484V81.1498H94.7484V31.9727Z" fill="white"/>
<path id="Vector_7" d="M118.179 0H115.836V31.9738H118.179V0Z" fill="white"/>
<path id="Vector_8" d="M123.98 31.9727H118.18V81.1498H123.98V31.9727Z" fill="white"/>
<path id="Vector_9" d="M75.8333 102.082H80.2652L76.6935 92.3332V92.1694L78.8316 89.1875H78.2172L73.6378 95.6347V89.1875H69.8203V102.082H73.6378V96.4375L73.8263 96.1999L75.8333 102.082Z" fill="white"/>
<path id="Vector_10" d="M119.694 101.435H118.137V94.9711H119.669L119.694 101.435ZM114.353 102.082H119.694C122.07 102.082 123.978 100.951 123.978 98.2152C123.978 95.479 122.07 94.3485 119.694 94.3485H118.137V89.1875H114.328L114.353 102.082Z" fill="white"/>
<path id="Vector_11" d="M102.15 89.1875C102.15 96.7652 101.584 101.435 100.438 101.435V102.082C101.961 102.082 102.535 97.4042 102.535 89.8347H105.582V102.082H109.4V89.1875H102.15Z" fill="white"/>
<path id="Vector_12" d="M55.5547 102.082H59.0855L61.3711 91.2847V102.082H64.9019V89.1875H61.3711L59.0855 99.9847V89.1875H55.5547V102.082Z" fill="white"/>
<path id="Vector_13" d="M48.1196 89.8347H50.5937V89.1875H41.8281V89.8347H44.3022V102.082H48.1196V89.8347Z" fill="white"/>
<path id="Vector_14" d="M32.5909 96.9208H31.0671V89.8347H32.5909V96.9208ZM27.2578 102.082H31.0671V97.568H32.5909C34.9748 97.568 36.8835 96.4375 36.8835 93.3818C36.8835 90.3262 34.9748 89.1875 32.5909 89.1875H27.2578V102.082Z" fill="white"/>
<path id="Vector_15" d="M14.7656 102.082H22.2942V101.435H18.5749V95.6347H21.2456V94.9875H18.5749V89.8347H22.1057V89.1875H14.7656V102.082Z" fill="white"/>
<path id="Vector_16" d="M5.34049 101.435H3.81676V89.8347H5.34049V101.435ZM7.3967 95.1513C7.99945 94.9982 8.53151 94.643 8.90418 94.1451C9.27685 93.6472 9.46763 93.0367 9.44472 92.4152C9.44472 90.318 7.53597 89.1875 5.34868 89.1875H0.015625V102.082H5.34868C7.92919 102.082 9.82975 100.951 9.82975 98.5347C9.86679 97.8034 9.63855 97.0833 9.18702 96.5068C8.73549 95.9304 8.09102 95.5363 7.37212 95.3971L7.3967 95.1513Z" fill="white"/>
<path id="Vector_17" d="M88.4956 90.6375L91.3956 102.082H95.4917L92.3049 89.1875H88.4465L85.2188 102.082H85.6366L88.4956 90.6375Z" fill="white"/>
<path id="Vector_18" d="M91.5537 96.9287H86.5156V97.5759H91.5537V96.9287Z" fill="white"/>
<path id="Vector_19" d="M0 109.177H0.540681V111.684C0.540681 111.987 0.540681 112.249 0.540681 112.503V112.97L2.35933 109.193H3.03109V113.781H2.4904V111.323C2.4904 111.028 2.4904 110.594 2.54774 110.012L0.720908 113.813H0.0491631L0 109.177Z" fill="white"/>
<path id="Vector_20" d="M8.03031 113.764H7.4405V111.626H5.59728V113.764H5.01562V109.177H5.59728V111.11H7.4405V109.177H8.03031V113.764Z" fill="white"/>
<path id="Vector_21" d="M10.6211 111.625V113.264H11.5796C12.2349 113.264 12.5626 112.985 12.5626 112.444C12.5626 111.904 12.2185 111.625 11.5386 111.625H10.6211ZM10.6211 111.125H11.4976C11.7484 111.144 11.9985 111.081 12.2104 110.945C12.289 110.875 12.35 110.787 12.3884 110.689C12.4269 110.591 12.4416 110.485 12.4315 110.38C12.4413 110.277 12.4246 110.173 12.383 110.079C12.3415 109.984 12.2764 109.902 12.194 109.839C11.965 109.71 11.7023 109.653 11.4403 109.675H10.6211V111.125ZM10.0312 109.176H11.4157C11.8483 109.142 12.2814 109.236 12.6609 109.446C12.7946 109.551 12.9 109.687 12.9672 109.843C13.0345 109.999 13.0616 110.17 13.0459 110.339C13.0538 110.586 12.9657 110.827 12.8002 111.011C12.6263 111.196 12.3898 111.31 12.1366 111.33C12.833 111.445 13.177 111.805 13.177 112.403C13.1866 112.586 13.1556 112.767 13.0862 112.936C13.0167 113.105 12.9107 113.256 12.7756 113.378C12.4696 113.628 12.0806 113.754 11.6861 113.731H10.0476L10.0312 109.176Z" fill="white"/>
<path id="Vector_22" d="M17.9582 113.764H15.3203V109.177H17.9582V109.685H15.902V111.11H17.8353V111.626H15.902V113.248H17.9582V113.764Z" fill="white"/>
<path id="Vector_23" d="M23.1583 113.134V113.642C22.7996 113.775 22.4186 113.839 22.0359 113.83C21.7583 113.847 21.4804 113.801 21.2235 113.695C20.9665 113.588 20.7372 113.424 20.5532 113.216C20.1784 112.711 19.9954 112.09 20.0371 111.463C20.0054 110.84 20.2037 110.228 20.5941 109.742C20.7894 109.531 21.0285 109.366 21.2945 109.257C21.5605 109.148 21.8471 109.098 22.1343 109.111C22.5517 109.102 22.9652 109.195 23.3385 109.382L23.0927 109.873C22.7968 109.718 22.4686 109.633 22.1343 109.628C21.9282 109.62 21.7232 109.66 21.5355 109.746C21.3478 109.831 21.1826 109.959 21.0529 110.119C20.7701 110.511 20.6286 110.988 20.6515 111.471C20.6222 111.959 20.7547 112.442 21.0283 112.847C21.1638 113.005 21.3343 113.13 21.5262 113.211C21.7182 113.292 21.9263 113.327 22.1343 113.314C22.4824 113.303 22.8272 113.242 23.1583 113.134Z" fill="white"/>
<path id="Vector_24" d="M26.8846 113.764H26.303V109.685H24.9922V109.177H28.1953V109.685H26.8846V113.764Z" fill="white"/>
<path id="Vector_25" d="M30.1016 109.177H30.6422V111.684C30.6422 111.987 30.6422 112.249 30.6422 112.503V112.97L32.4609 109.193H33.1326V113.781H32.592V111.323C32.592 111.028 32.592 110.594 32.6493 110.012L30.8307 113.813H30.1589L30.1016 109.177Z" fill="white"/>
<path id="Vector_26" d="M37.9435 113.248H38.4923V114.977H37.9517V113.764H35.1172V109.177H35.6988V113.248H37.3537V109.177H37.9435V113.248Z" fill="white"/>
<path id="Vector_27" d="M40.1406 109.177H40.6813V111.684C40.6813 111.987 40.6813 112.249 40.6813 112.503V112.97L42.5 109.193H43.1717V113.781H42.631V111.323C42.631 111.028 42.631 110.594 42.6884 110.012L40.8697 113.813H40.198L40.1406 109.177Z" fill="white"/>
<path id="Vector_28" d="M45.1562 109.177H45.6969V111.684C45.6969 111.987 45.6969 112.249 45.6969 112.503V112.97L47.5156 109.193H48.1873V113.781H47.6466V111.323C47.6466 111.028 47.6466 110.594 47.704 110.012L45.8771 113.813H45.2054L45.1562 109.177Z" fill="white"/>
<path id="Vector_29" d="M52.8828 109.177H53.4235V111.684C53.4235 111.987 53.4235 112.249 53.4235 112.503V112.97L55.2421 109.193H55.8811V113.781H55.3404V111.323C55.3404 111.028 55.3404 110.594 55.3978 110.012L53.5709 113.813H52.9074L52.8828 109.177Z" fill="white"/>
<path id="Vector_30" d="M63.6973 113.134V113.642C63.3386 113.775 62.9577 113.839 62.575 113.83C62.2974 113.847 62.0195 113.801 61.7625 113.695C61.5056 113.588 61.2763 113.424 61.0922 113.216C60.7175 112.711 60.5345 112.09 60.5761 111.463C60.5444 110.84 60.7427 110.228 61.1332 109.742C61.3285 109.531 61.5675 109.366 61.8335 109.257C62.0995 109.148 62.3861 109.098 62.6733 109.111C63.0908 109.102 63.5042 109.195 63.8775 109.382L63.6318 109.873C63.3359 109.718 63.0076 109.633 62.6733 109.628C62.4673 109.62 62.2623 109.66 62.0746 109.746C61.8869 109.831 61.7216 109.959 61.592 110.119C61.3092 110.511 61.1676 110.988 61.1905 111.471C61.1613 111.959 61.2937 112.442 61.5674 112.847C61.7029 113.005 61.8733 113.13 62.0653 113.211C62.2572 113.292 62.4654 113.327 62.6733 113.314C63.0214 113.303 63.3662 113.242 63.6973 113.134Z" fill="white"/>
<path id="Vector_31" d="M67.408 113.764H66.8263V109.685H65.5156V109.177H68.7188V109.685H67.408V113.764Z" fill="white"/>
<path id="Vector_32" d="M71.3394 111.487H71.8719C72.1842 111.512 72.4957 111.431 72.7567 111.258C72.849 111.166 72.9202 111.056 72.9655 110.934C73.0108 110.813 73.029 110.682 73.0188 110.553C73.0188 109.963 72.6666 109.676 71.9702 109.676H71.3394V111.487ZM71.3394 111.978V113.764H70.7578V109.177H72.0276C73.1008 109.177 73.666 109.619 73.666 110.52C73.6765 110.72 73.643 110.92 73.568 111.105C73.493 111.29 73.3782 111.457 73.2318 111.593C72.871 111.875 72.4184 112.012 71.9621 111.978H71.3394Z" fill="white"/>
<path id="Vector_33" d="M77.1779 113.313C77.3441 113.33 77.5116 113.296 77.6581 113.216C77.8045 113.135 77.9228 113.012 77.9971 112.862C78.1952 112.423 78.2824 111.942 78.251 111.461C78.2834 110.983 78.1961 110.505 77.9971 110.069C77.9228 109.919 77.8045 109.796 77.6581 109.715C77.5116 109.635 77.3441 109.601 77.1779 109.618C76.4733 109.618 76.1211 110.233 76.1211 111.461C76.1211 112.698 76.4651 113.313 77.1697 113.313M77.1697 113.829C76.0555 113.829 75.5312 113.01 75.5312 111.461C75.5312 109.913 76.0883 109.102 77.1697 109.102C77.4099 109.091 77.6489 109.142 77.864 109.249C78.0791 109.357 78.2631 109.518 78.3985 109.716C78.6786 110.257 78.8248 110.857 78.8248 111.465C78.8248 112.074 78.6786 112.674 78.3985 113.214C78.2604 113.407 78.0766 113.563 77.8636 113.667C77.6505 113.772 77.4149 113.822 77.1779 113.813L77.1697 113.829Z" fill="white"/>
<path id="Vector_34" d="M80.6719 109.177H81.2126V111.684C81.2126 111.987 81.2126 112.249 81.2126 112.503V112.97L83.0312 109.193H83.703V113.781H83.1623V111.323C83.1623 111.028 83.1623 110.594 83.2196 110.012L81.401 113.813H80.7292L80.6719 109.177Z" fill="white"/>
<path id="Vector_35" d="M87.4708 113.764H86.8892V109.685H85.5703V109.177H88.7735V109.685H87.4708V113.764Z" fill="white"/>
<path id="Vector_36" d="M93.6148 113.764H90.9688V109.177H93.6148V109.685H91.5505V111.11H93.492V111.626H91.5505V113.248H93.6148V113.764Z" fill="white"/>
<path id="Vector_37" d="M98.7278 113.763H98.1462V109.667H97.327C97.2393 110.893 97.0139 112.105 96.6552 113.28C96.5788 113.445 96.4559 113.584 96.3017 113.68C96.1474 113.776 95.9685 113.825 95.7869 113.82C95.6301 113.823 95.4744 113.795 95.3281 113.739V113.272C95.4456 113.304 95.5668 113.32 95.6886 113.321C95.9016 113.321 96.0654 113.132 96.1801 112.755C96.4298 111.567 96.6185 110.367 96.7454 109.159H98.7524L98.7278 113.763Z" fill="white"/>
<path id="Vector_38" d="M101.433 113.265H102.064C102.76 113.265 103.113 112.986 103.113 112.445C103.122 112.33 103.101 112.214 103.054 112.108C103.007 112.002 102.934 111.91 102.842 111.839C102.575 111.692 102.27 111.627 101.966 111.651H101.433V113.265ZM100.852 113.764V109.177H101.433V111.11H102.031C103.162 111.11 103.727 111.544 103.727 112.421C103.74 112.608 103.71 112.795 103.639 112.968C103.568 113.142 103.458 113.296 103.317 113.42C102.971 113.671 102.548 113.793 102.121 113.764H100.852Z" fill="white"/>
<path id="Vector_39" d="M108.862 113.134V113.642C108.5 113.775 108.117 113.839 107.731 113.83C107.454 113.847 107.176 113.801 106.919 113.694C106.662 113.588 106.433 113.424 106.248 113.216C105.874 112.711 105.691 112.09 105.732 111.463C105.7 110.839 105.901 110.225 106.298 109.742C106.491 109.532 106.729 109.366 106.994 109.257C107.258 109.148 107.544 109.098 107.83 109.111C108.247 109.102 108.66 109.195 109.034 109.382L108.788 109.873C108.493 109.716 108.164 109.631 107.83 109.628C107.625 109.619 107.421 109.659 107.234 109.745C107.048 109.83 106.884 109.958 106.756 110.119C106.47 110.51 106.328 110.987 106.355 111.471C106.322 111.959 106.455 112.444 106.732 112.847C106.865 113.006 107.034 113.131 107.225 113.212C107.416 113.293 107.623 113.328 107.83 113.314C108.18 113.303 108.528 113.242 108.862 113.134Z" fill="white"/>
<path id="Vector_40" d="M112.556 113.764H111.975V109.685H110.664V109.177H113.867V109.685H112.556V113.764Z" fill="white"/>
<path id="Vector_41" d="M116.371 111.625V113.264H117.321C117.968 113.264 118.296 112.985 118.296 112.444C118.296 111.904 117.952 111.625 117.28 111.625H116.371ZM116.371 111.125H117.255C117.504 111.143 117.751 111.08 117.96 110.945C118.039 110.875 118.1 110.787 118.138 110.689C118.176 110.591 118.191 110.485 118.181 110.38C118.193 110.277 118.177 110.173 118.135 110.078C118.093 109.983 118.027 109.901 117.944 109.839C117.715 109.71 117.452 109.653 117.19 109.675H116.371V111.125ZM115.789 109.176H117.165C117.598 109.142 118.031 109.236 118.411 109.446C118.545 109.55 118.652 109.687 118.72 109.843C118.789 109.999 118.818 110.169 118.804 110.339C118.812 110.586 118.724 110.827 118.558 111.011C118.381 111.196 118.142 111.31 117.886 111.33C118.583 111.445 118.927 111.805 118.927 112.403C118.936 112.585 118.905 112.766 118.837 112.934C118.769 113.102 118.666 113.254 118.533 113.378C118.224 113.629 117.833 113.755 117.436 113.731H115.797L115.789 109.176Z" fill="white"/>
<path id="Vector_42" d="M122.303 113.313C122.469 113.33 122.637 113.297 122.783 113.216C122.93 113.136 123.048 113.012 123.122 112.862C123.32 112.423 123.407 111.942 123.376 111.462C123.408 110.983 123.321 110.505 123.122 110.069C123.048 109.919 122.93 109.796 122.783 109.715C122.637 109.635 122.469 109.601 122.303 109.618C121.598 109.618 121.246 110.233 121.246 111.462C121.246 112.699 121.598 113.313 122.295 113.313M122.295 113.829C121.181 113.829 120.656 113.01 120.656 111.462C120.656 109.913 121.222 109.102 122.336 109.102C122.576 109.091 122.815 109.141 123.031 109.248C123.246 109.356 123.43 109.517 123.564 109.717C123.849 110.256 123.998 110.856 123.998 111.466C123.998 112.075 123.849 112.676 123.564 113.215C123.424 113.415 123.233 113.575 123.012 113.68C122.791 113.785 122.547 113.83 122.303 113.813L122.295 113.829Z" fill="white"/>
</g>
</svg>
