<svg width="223" height="35" viewBox="0 0 223 35" fill="none" xmlns="http://www.w3.org/2000/svg">
<path d="M13.8386 34.4176V13.5607H3.98169V0H0V34.4176H13.8386Z" fill="white"/>
<path d="M17.8203 0H13.8386V13.5607H17.8203V0Z" fill="white"/>
<path d="M27.6564 13.5605H17.8203V34.4175H27.6564V13.5605Z" fill="white"/>
<path d="M6.92103 0H0V14.5196H6.92103V0Z" fill="white"/>
<path d="M35.2619 0H33.271V13.5607H35.2619V0Z" fill="white"/>
<path d="M40.181 13.5605H35.2612V34.4175H40.181V13.5605Z" fill="white"/>
<path d="M50.1221 0H49.1284V13.5607H50.1221V0Z" fill="white"/>
<path d="M52.5849 13.5605H50.125V34.4175H52.5849V13.5605Z" fill="white"/>
<path d="M163.622 16.2723H169.086L164.683 4.25297V4.05095L167.319 0.374512H166.561L160.915 8.3234V0.374512H156.208V16.2723H160.915V9.3132L161.148 9.02032L163.622 16.2723Z" fill="white"/>
<path d="M217.689 15.4744H215.77V7.50528H217.659L217.689 15.4744ZM211.104 16.2723H217.689C220.618 16.2723 222.971 14.8784 222.971 11.505C222.971 8.13149 220.618 6.73765 217.689 6.73765H215.77V0.374512H211.073L211.104 16.2723Z" fill="white"/>
<path d="M196.064 0.374512C196.064 9.71724 195.367 15.4744 193.953 15.4744V16.2723C195.831 16.2723 196.538 10.5051 196.538 1.17244H200.296V16.2723H205.002V0.374512H196.064Z" fill="white"/>
<path d="M138.593 16.2723H142.946L145.764 2.96017V16.2723H150.117V0.374512H145.764L142.946 13.6866V0.374512H138.593V16.2723Z" fill="white"/>
<path d="M129.443 1.17241H132.493V0.374512H121.686V1.17241H124.736V16.2723H129.443V1.17241Z" fill="white"/>
<path d="M110.282 9.90914H108.403V1.17244H110.282V9.90914ZM103.707 16.2723H108.403V10.7071H110.282C113.221 10.7071 115.575 9.31322 115.575 5.54583C115.575 1.77844 113.221 0.374512 110.282 0.374512H103.707V16.2723Z" fill="white"/>
<path d="M88.3237 16.2723H97.6059V15.4743H93.0203V8.3234H96.313V7.52544H93.0203V1.17241H97.3735V0.374512H88.3237V16.2723Z" fill="white"/>
<path d="M76.6882 15.4744H74.8096V1.17244H76.6882V15.4744ZM79.2234 7.72749C79.9665 7.53862 80.6225 7.10076 81.082 6.4869C81.5414 5.87304 81.7767 5.12027 81.7484 4.35401C81.7484 1.76835 79.3951 0.374512 76.6983 0.374512H70.123V16.2723H76.6983C79.8799 16.2723 82.2231 14.8785 82.2231 11.8989C82.2688 10.9972 81.9874 10.1094 81.4307 9.39868C80.874 8.68795 80.0794 8.2021 79.1931 8.03048L79.2234 7.72749Z" fill="white"/>
<path d="M179.226 2.16221L182.802 16.2723H187.852L183.923 0.374512H179.166L175.186 16.2723H175.701L179.226 2.16221Z" fill="white"/>
<path d="M182.993 9.91943H176.782V10.7174H182.993V9.91943Z" fill="white"/>
<path d="M70.1135 26.8921H70.7801V29.9828C70.7801 30.3565 70.7801 30.6797 70.7801 30.9928V31.5685L73.0224 26.9123H73.8506V32.5684H73.184V29.5383C73.184 29.1747 73.184 28.6394 73.2547 27.9223L71.0024 32.6088H70.1741L70.1135 26.8921Z" fill="white"/>
<path d="M80.0118 32.5483H79.2846V29.9121H77.0121V32.5483H76.2949V26.8921H77.0121V29.2757H79.2846V26.8921H80.0118V32.5483Z" fill="white"/>
<path d="M83.2035 29.9121V31.9322H84.3853C85.1933 31.9322 85.5973 31.5888 85.5973 30.9222C85.5973 30.2555 85.1731 29.9121 84.3348 29.9121H83.2035ZM83.2035 29.296H84.2843C84.5935 29.3189 84.9018 29.2409 85.163 29.0738C85.26 28.9872 85.3352 28.879 85.3825 28.7579C85.4299 28.6368 85.4481 28.5063 85.4357 28.3769C85.4478 28.25 85.4272 28.1222 85.3759 28.0055C85.3246 27.8888 85.2444 27.7872 85.1428 27.7103C84.8605 27.5507 84.5366 27.4803 84.2136 27.5083H83.2035V29.296ZM82.4763 26.8922H84.1833C84.7166 26.8503 85.2505 26.9662 85.7185 27.2255C85.8834 27.3547 86.0132 27.5231 86.0962 27.7155C86.1791 27.9078 86.2125 28.1178 86.1932 28.3264C86.2029 28.6312 86.0943 28.928 85.8902 29.1546C85.6758 29.3828 85.3842 29.5232 85.0721 29.5485C85.9306 29.6899 86.3548 30.1343 86.3548 30.8717C86.3667 31.0962 86.3284 31.3205 86.2428 31.5284C86.1572 31.7363 86.0264 31.9225 85.8599 32.0736C85.4826 32.382 85.003 32.5371 84.5166 32.5079H82.4965L82.4763 26.8922Z" fill="white"/>
<path d="M92.2428 32.5483H88.9905V26.8921H92.2428V27.5183H89.7076V29.2757H92.0913V29.9121H89.7076V31.9119H92.2428V32.5483Z" fill="white"/>
<path d="M98.6772 31.7709V32.3971C98.2349 32.562 97.7652 32.6408 97.2934 32.6294C96.9511 32.6507 96.6085 32.5935 96.2917 32.4622C95.9749 32.3309 95.6922 32.129 95.4653 31.8719C95.0032 31.2498 94.7776 30.4837 94.8289 29.7105C94.7899 28.9431 95.0343 28.1882 95.5158 27.5894C95.7566 27.3293 96.0513 27.125 96.3792 26.9907C96.7072 26.8564 97.0606 26.7953 97.4146 26.8117C97.9293 26.7998 98.4391 26.9143 98.8993 27.145L98.5963 27.751C98.2315 27.559 97.8268 27.4552 97.4146 27.448C97.1606 27.4385 96.9078 27.4883 96.6764 27.5935C96.445 27.6987 96.2413 27.8564 96.0814 28.054C95.7327 28.5376 95.5582 29.1251 95.5865 29.7206C95.5504 30.3219 95.7137 30.9183 96.0511 31.4174C96.2182 31.6125 96.4283 31.7661 96.665 31.866C96.9016 31.9659 97.1583 32.0095 97.4146 31.9931C97.8438 31.9791 98.2689 31.9043 98.6772 31.7709Z" fill="white"/>
<path d="M103.253 32.5483H102.536V27.5183H100.919V26.8921H104.869V27.5183H103.253V32.5483Z" fill="white"/>
<path d="M107.232 26.8921H107.899V29.9828C107.899 30.3565 107.899 30.6797 107.899 30.9928V31.5685L110.141 26.9123H110.969V32.5684H110.303V29.5383C110.303 29.1747 110.303 28.6394 110.373 27.9223L108.131 32.6088H107.303L107.232 26.8921Z" fill="white"/>
<path d="M116.898 31.9119H117.575V34.0431H116.908V32.5483H113.413V26.8921H114.13V31.9119H116.171V26.8921H116.898V31.9119Z" fill="white"/>
<path d="M119.605 26.8921H120.272V29.9828C120.272 30.3565 120.272 30.6797 120.272 30.9928V31.5685L122.514 26.9123H123.342V32.5684H122.676V29.5383C122.676 29.1747 122.676 28.6394 122.746 27.9223L120.504 32.6088H119.676L119.605 26.8921Z" fill="white"/>
<path d="M125.787 26.8921H126.453V29.9828C126.453 30.3565 126.453 30.6797 126.453 30.9928V31.5685L128.695 26.9123H129.524V32.5684H128.857V29.5383C128.857 29.1747 128.857 28.6394 128.928 27.9223L126.675 32.6088H125.847L125.787 26.8921Z" fill="white"/>
<path d="M135.311 26.8921H135.977V29.9828C135.977 30.3565 135.977 30.6797 135.977 30.9928V31.5685L138.219 26.9123H139.007V32.5684H138.341V29.5383C138.341 29.1747 138.341 28.6394 138.411 27.9223L136.159 32.6088H135.341L135.311 26.8921Z" fill="white"/>
<path d="M148.643 31.7709V32.3971C148.201 32.562 147.732 32.6408 147.26 32.6294C146.917 32.6507 146.575 32.5935 146.258 32.4622C145.941 32.3309 145.659 32.129 145.432 31.8719C144.97 31.2498 144.744 30.4837 144.795 29.7105C144.756 28.9431 145.001 28.1882 145.482 27.5894C145.723 27.3293 146.018 27.125 146.346 26.9907C146.674 26.8564 147.027 26.7953 147.381 26.8117C147.896 26.7998 148.405 26.9143 148.866 27.145L148.563 27.751C148.198 27.559 147.793 27.4552 147.381 27.448C147.127 27.4385 146.874 27.4883 146.643 27.5935C146.411 27.6987 146.208 27.8564 146.048 28.054C145.699 28.5376 145.525 29.1251 145.553 29.7206C145.517 30.3219 145.68 30.9183 146.017 31.4174C146.184 31.6125 146.395 31.7661 146.631 31.866C146.868 31.9659 147.125 32.0095 147.381 31.9931C147.81 31.9791 148.235 31.9043 148.643 31.7709Z" fill="white"/>
<path d="M153.218 32.5483H152.501V27.5183H150.885V26.8921H154.834V27.5183H153.218V32.5483Z" fill="white"/>
<path d="M158.066 29.7404H158.722C159.107 29.7707 159.491 29.6711 159.813 29.4576C159.927 29.345 160.015 29.2089 160.071 29.0589C160.126 28.9089 160.149 28.7485 160.136 28.5889C160.136 27.8617 159.702 27.5082 158.843 27.5082H158.066V29.7404ZM158.066 30.3464V32.5482H157.349V26.8921H158.914C160.237 26.8921 160.934 27.4375 160.934 28.5485C160.947 28.7948 160.906 29.0409 160.813 29.2695C160.721 29.4981 160.579 29.7037 160.399 29.8717C159.954 30.2188 159.396 30.388 158.833 30.3464H158.066Z" fill="white"/>
<path d="M165.268 31.9927C165.473 32.0141 165.68 31.9724 165.86 31.8731C166.041 31.7738 166.187 31.6217 166.278 31.4371C166.522 30.8957 166.63 30.3027 166.591 29.71C166.631 29.1205 166.524 28.5304 166.278 27.9929C166.187 27.8084 166.041 27.6562 165.86 27.5569C165.68 27.4576 165.473 27.416 165.268 27.4374C164.4 27.4374 163.965 28.195 163.965 29.71C163.965 31.2351 164.389 31.9927 165.258 31.9927M165.258 32.629C163.884 32.629 163.238 31.6189 163.238 29.71C163.238 27.8011 163.925 26.8011 165.258 26.8011C165.554 26.7876 165.849 26.8501 166.114 26.9827C166.379 27.1153 166.606 27.3136 166.773 27.5586C167.118 28.225 167.299 28.9645 167.299 29.7151C167.299 30.4656 167.118 31.2051 166.773 31.8714C166.603 32.1093 166.376 32.3011 166.114 32.4298C165.851 32.5585 165.56 32.62 165.268 32.6088L165.258 32.629Z" fill="white"/>
<path d="M169.571 26.8921H170.237V29.9828C170.237 30.3565 170.237 30.6797 170.237 30.9928V31.5685L172.479 26.9123H173.308V32.5684H172.641V29.5383C172.641 29.1747 172.641 28.6394 172.712 27.9223L170.469 32.6088H169.641L169.571 26.8921Z" fill="white"/>
<path d="M177.963 32.5483H177.246V27.5183H175.62V26.8921H179.569V27.5183H177.963V32.5483Z" fill="white"/>
<path d="M185.519 32.5483H182.257V26.8921H185.519V27.5183H182.974V29.2757H185.368V29.9121H182.974V31.9119H185.519V32.5483Z" fill="white"/>
<path d="M191.832 32.5484H191.115V27.4983H190.105C189.996 29.0094 189.719 30.5035 189.276 31.9525C189.182 32.1557 189.031 32.327 188.84 32.4454C188.65 32.5638 188.43 32.6242 188.206 32.6191C188.012 32.6218 187.821 32.5875 187.64 32.5181V31.9424C187.785 31.9823 187.934 32.0027 188.085 32.003C188.347 32.003 188.549 31.7707 188.691 31.3061C188.998 29.8409 189.231 28.361 189.387 26.8721H191.862L191.832 32.5484Z" fill="white"/>
<path d="M195.184 31.9321H195.962C196.821 31.9321 197.255 31.5887 197.255 30.9221C197.266 30.7796 197.241 30.6366 197.183 30.5061C197.125 30.3756 197.035 30.2617 196.922 30.1747C196.592 29.9935 196.216 29.9127 195.841 29.9424H195.184V31.9321ZM194.467 32.5482V26.8921H195.184V29.2758H195.922C197.316 29.2758 198.012 29.8111 198.012 30.8918C198.028 31.1221 197.991 31.3531 197.904 31.5668C197.816 31.7805 197.681 31.9711 197.507 32.124C197.081 32.4337 196.559 32.5838 196.033 32.5482H194.467Z" fill="white"/>
<path d="M204.326 31.7709V32.3971C203.88 32.562 203.407 32.6408 202.932 32.6294C202.59 32.6506 202.247 32.5934 201.93 32.4622C201.613 32.3309 201.331 32.129 201.104 31.8719C200.642 31.2498 200.416 30.4836 200.467 29.7104C200.427 28.9413 200.676 28.1849 201.164 27.5894C201.403 27.3296 201.696 27.1253 202.022 26.9909C202.349 26.8565 202.7 26.7954 203.053 26.8117C203.568 26.7998 204.078 26.9142 204.538 27.145L204.235 27.751C203.871 27.5564 203.466 27.4525 203.053 27.448C202.8 27.4377 202.549 27.4872 202.319 27.5925C202.089 27.6978 201.887 27.8559 201.73 28.054C201.377 28.5353 201.202 29.1245 201.235 29.7205C201.194 30.3223 201.358 30.9203 201.7 31.4174C201.864 31.6129 202.072 31.767 202.308 31.867C202.543 31.967 202.798 32.0102 203.053 31.9931C203.486 31.9792 203.914 31.9044 204.326 31.7709Z" fill="white"/>
<path d="M208.891 32.5483H208.174V27.5183H206.558V26.8921H210.507V27.5183H208.891V32.5483Z" fill="white"/>
<path d="M213.588 29.9121V31.9322H214.759C215.557 31.9322 215.961 31.5888 215.961 30.9222C215.961 30.2555 215.537 29.9121 214.709 29.9121H213.588ZM213.588 29.296H214.679C214.984 29.3174 215.289 29.2395 215.547 29.0738C215.644 28.9872 215.719 28.879 215.767 28.7579C215.814 28.6368 215.832 28.5063 215.82 28.3769C215.834 28.2498 215.814 28.1213 215.763 28.0043C215.711 27.8873 215.63 27.7858 215.527 27.7103C215.245 27.5507 214.921 27.4803 214.598 27.5083H213.588V29.296ZM212.871 26.8922H214.567C215.101 26.8503 215.635 26.9662 216.103 27.2255C216.269 27.3542 216.4 27.5222 216.485 27.7145C216.569 27.9067 216.605 28.1171 216.587 28.3264C216.597 28.6312 216.489 28.928 216.284 29.1546C216.066 29.3835 215.771 29.5238 215.456 29.5485C216.315 29.6899 216.739 30.1343 216.739 30.8717C216.75 31.0952 216.712 31.3184 216.629 31.5259C216.545 31.7334 216.417 31.9203 216.254 32.0736C215.873 32.3827 215.39 32.5376 214.901 32.5079H212.881L212.871 26.8922Z" fill="white"/>
<path d="M220.91 31.9929C221.115 32.0144 221.321 31.9727 221.502 31.8734C221.682 31.7741 221.828 31.6219 221.92 31.4374C222.164 30.896 222.272 30.3029 222.233 29.7103C222.273 29.1208 222.165 28.5306 221.92 27.9932C221.828 27.8086 221.682 27.6565 221.502 27.5572C221.321 27.4579 221.115 27.4162 220.91 27.4377C220.041 27.4377 219.607 28.1952 219.607 29.7103C219.607 31.2354 220.041 31.9929 220.9 31.9929M220.9 32.6292C219.526 32.6292 218.88 31.6192 218.88 29.7103C218.88 27.8013 219.577 26.8014 220.95 26.8014C221.247 26.7869 221.542 26.849 221.807 26.9817C222.072 27.1143 222.299 27.3131 222.465 27.5589C222.816 28.2234 223 28.9637 223 29.7153C223 30.4669 222.816 31.2071 222.465 31.8717C222.292 32.1184 222.057 32.316 221.785 32.4452C221.512 32.5744 221.211 32.6308 220.91 32.609L220.9 32.6292Z" fill="white"/>
</svg>
