<svg width="46" height="47" viewBox="0 0 46 47" fill="none" xmlns="http://www.w3.org/2000/svg">
<g id="27dd12ce7b0075fd72324dcb17460c18 1" opacity="0.6" clip-path="url(#clip0_305_1848)">
<path id="Vector" fill-rule="evenodd" clip-rule="evenodd" d="M38.0054 19.7761L35.918 16.4701L38.0054 13.1641L40.0315 16.4701L38.0054 19.7761Z" fill="#2E2E2E"/>
<path id="Vector_2" fill-rule="evenodd" clip-rule="evenodd" d="M13.0144 13.1642L10.9883 9.91832L13.0144 6.6123L15.1018 9.91832L13.0144 13.1642Z" fill="#2E2E2E"/>
<path id="Vector_3" fill-rule="evenodd" clip-rule="evenodd" d="M32.9675 26.3874L30.9414 23.0814L32.9675 19.7754L35.055 23.0814L32.9675 26.3874Z" fill="#2E2E2E"/>
<path id="Vector_4" fill-rule="evenodd" clip-rule="evenodd" d="M17.987 26.3874L15.9609 23.0814L17.987 19.7754L20.0745 23.0814L17.987 26.3874Z" fill="#2E2E2E"/>
<path id="Vector_5" fill-rule="evenodd" clip-rule="evenodd" d="M23.021 19.7761L20.9336 16.4701L23.021 13.1641L25.0471 16.4701L23.021 19.7761Z" fill="#2E2E2E"/>
<path id="Vector_6" fill-rule="evenodd" clip-rule="evenodd" d="M13.0144 26.3884L10.9883 23.0824L13.0144 19.7764L15.1018 23.0824L13.0144 26.3884Z" fill="#2E2E2E"/>
<path id="Vector_7" fill-rule="evenodd" clip-rule="evenodd" d="M27.9976 26.3874L25.9102 23.0814L27.9976 19.7754L30.0237 23.0814L27.9976 26.3874Z" fill="#2E2E2E"/>
<path id="Vector_8" fill-rule="evenodd" clip-rule="evenodd" d="M32.9675 19.7761L30.9414 16.4701L32.9675 13.1641L35.0549 16.4701L32.9675 19.7761Z" fill="#2E2E2E"/>
<path id="Vector_9" fill-rule="evenodd" clip-rule="evenodd" d="M23.021 13.1642L20.9336 9.91832L23.021 6.6123L25.0471 9.91832L23.021 13.1642Z" fill="#2E2E2E"/>
<path id="Vector_10" fill-rule="evenodd" clip-rule="evenodd" d="M8.04449 26.3874L5.95703 23.0814L8.04449 19.7754L10.0705 23.0814L8.04449 26.3874Z" fill="#2E2E2E"/>
<path id="Vector_11" fill-rule="evenodd" clip-rule="evenodd" d="M32.9675 13.1641L30.9414 9.91832L32.9675 6.6123L35.0549 9.91832L32.9675 13.1641Z" fill="#2E2E2E"/>
<path id="Vector_12" fill-rule="evenodd" clip-rule="evenodd" d="M17.991 19.7761L15.9648 16.4701L17.991 13.1641L20.0784 16.4701L17.991 19.7761Z" fill="#2E2E2E"/>
<path id="Vector_13" fill-rule="evenodd" clip-rule="evenodd" d="M8.04449 19.7761L5.95703 16.4701L8.04449 13.1641L10.0705 16.4701L8.04449 19.7761Z" fill="#2E2E2E"/>
<path id="Vector_14" fill-rule="evenodd" clip-rule="evenodd" d="M38.0054 26.3884L35.918 23.0824L38.0054 19.7764L40.0315 23.0824L38.0054 26.3884Z" fill="#2E2E2E"/>
<path id="Vector_15" fill-rule="evenodd" clip-rule="evenodd" d="M23.021 26.3874L20.9336 23.0814L23.021 19.7754L25.0471 23.0814L23.021 26.3874Z" fill="#2E2E2E"/>
<path id="Vector_16" fill-rule="evenodd" clip-rule="evenodd" d="M23.021 6.61202L20.9336 3.30601L23.021 0L25.0471 3.30601L23.021 6.61202Z" fill="#2E2E2E"/>
<path id="Vector_17" fill-rule="evenodd" clip-rule="evenodd" d="M0.121094 33.5414V28.5523H2.08576V33.4813C2.08576 34.9239 2.82251 35.6452 3.98904 35.6452C5.21696 35.6452 5.89231 34.9239 5.89231 33.5414V28.4922H7.857V33.4211C7.857 36.0659 6.32209 37.3884 3.92764 37.3884C1.5946 37.3884 0.121094 36.066 0.121094 33.5414Z" fill="#2E2E2E"/>
<path id="Vector_18" fill-rule="evenodd" clip-rule="evenodd" d="M13.7535 32.7599C14.7359 32.7599 15.2885 32.2791 15.2885 31.4977C15.2885 30.6561 14.6745 30.2354 13.7535 30.2354H11.7889V32.7599H13.7535ZM9.82422 28.4922H13.9377C15.1043 28.4922 15.9638 28.7928 16.5164 29.3939C17.0075 29.8747 17.3145 30.596 17.3145 31.4376C17.3145 32.8802 16.5164 33.7217 15.4113 34.1425L17.6215 37.2681H15.3499L13.3851 34.443H11.8503V37.2681H9.82422V28.4922Z" fill="#2E2E2E"/>
<path id="Vector_19" fill-rule="evenodd" clip-rule="evenodd" d="M23.3915 35.5851C24.251 35.5851 24.8036 35.2846 24.8036 34.6233C24.8036 34.0222 24.3738 33.6616 23.3301 33.6616H21.0585V35.5851H23.3915ZM22.8389 32.0387C23.6985 32.0387 24.251 31.7381 24.251 31.0769C24.251 30.4758 23.8213 30.1753 22.9617 30.1753H20.9971V32.0387H22.8389ZM19.0938 28.4922H23.2687C24.3124 28.4922 25.1106 28.7928 25.6017 29.2736C26.0315 29.6944 26.2157 30.1753 26.2157 30.7763C26.2157 31.7381 25.6631 32.3392 25.0492 32.6398C26.0929 33.0004 26.7069 33.6015 26.7069 34.8037C26.7069 36.4266 25.3561 37.208 23.3301 37.208H19.0938V28.4922Z" fill="#2E2E2E"/>
<path id="Vector_20" fill-rule="evenodd" clip-rule="evenodd" d="M37.9414 28.4922H39.7219L43.9582 33.902V28.4922H45.8615V37.2681H44.2038L39.8447 31.678V37.2681H37.9414V28.4922Z" fill="#2E2E2E"/>
<path id="Vector_21" fill-rule="evenodd" clip-rule="evenodd" d="M4.72749 43.1583L3.74515 40.8742L2.82422 43.1583H4.72749ZM3.0698 39.0107H4.5433L7.61309 46.0435H5.95541L5.28006 44.4807H2.27165L1.5963 46.0435H0L3.0698 39.0107Z" fill="#2E2E2E"/>
<path id="Vector_22" fill-rule="evenodd" clip-rule="evenodd" d="M6.9375 39.0107H8.59524L10.0687 43.7594L11.7264 39.0107H13.0157L14.6734 43.7594L16.1469 39.0107H17.7432L15.3488 46.0435H13.9366L12.3404 41.4753L10.7441 46.0435H9.39338L6.9375 39.0107Z" fill="#2E2E2E"/>
<path id="Vector_23" fill-rule="evenodd" clip-rule="evenodd" d="M21.8563 43.1583L20.874 40.8742L19.9531 43.1583H21.8563ZM20.1987 39.0107H21.6722L24.742 46.0435H23.0843L22.4089 44.4807H19.4005L18.7252 46.0435H17.1289L20.1987 39.0107Z" fill="#2E2E2E"/>
<path id="Vector_24" fill-rule="evenodd" clip-rule="evenodd" d="M28.7465 42.4327C29.5337 42.4327 29.9765 42.0474 29.9765 41.4212C29.9765 40.7468 29.4845 40.4096 28.7465 40.4096H27.1721V42.4327H28.7465ZM25.5977 39.0127H28.8941C29.8289 39.0127 30.5177 39.2535 30.9605 39.7352C31.3541 40.1206 31.6001 40.6986 31.6001 41.373C31.6001 42.529 30.9605 43.2034 30.0749 43.5406L31.8461 46.0455H30.0257L28.4513 43.7815H27.2212V46.0455H25.5977V39.0127Z" fill="#2E2E2E"/>
<path id="Vector_25" fill-rule="evenodd" clip-rule="evenodd" d="M35.7941 44.661C37.0834 44.661 37.9429 43.8195 37.9429 42.5572C37.9429 41.2949 37.0834 40.4534 35.7941 40.4534H34.5662V44.661H35.7941ZM33.0312 39.0107H35.8555C38.1271 39.0107 39.6621 40.5135 39.6621 42.5572C39.6621 44.5408 38.1271 46.1036 35.8555 46.1036H33.0312V39.0107Z" fill="#2E2E2E"/>
<path id="Vector_26" fill-rule="evenodd" clip-rule="evenodd" d="M40.3359 45.0221L41.2569 43.9402C41.8708 44.4812 42.5462 44.7817 43.4058 44.7817C44.0197 44.7817 44.4495 44.5413 44.4495 44.1205C44.4495 43.7599 44.2039 43.5194 43.0374 43.2189C41.6252 42.8582 40.6429 42.4976 40.6429 41.055C40.6429 39.7927 41.6866 38.9512 43.1602 38.9512C44.2039 38.9512 45.0634 39.2517 45.8002 39.8528L45.002 40.9949C44.3881 40.5741 43.7741 40.3337 43.1602 40.3337C42.5462 40.3337 42.2392 40.5741 42.2392 40.9348C42.2392 41.4156 42.5462 41.5359 43.7741 41.8364C45.2476 42.1971 46.0458 42.7381 46.0458 43.9402C46.0458 45.3227 44.9407 46.1041 43.4058 46.1041C42.3006 46.1642 41.1955 45.8036 40.3359 45.0221Z" fill="#2E2E2E"/>
<path id="Vector_27" fill-rule="evenodd" clip-rule="evenodd" d="M33.1557 33.6616L31.9892 30.8365L30.8227 33.6616H33.1557ZM31.1297 28.4922H32.9715L36.7167 37.2681H34.6292L33.8311 35.3447H30.086L29.2878 37.2681H27.2617L31.1297 28.4922Z" fill="#2E2E2E"/>
</g>
<defs>
<clipPath id="clip0_305_1848">
<rect width="46" height="47" fill="white"/>
</clipPath>
</defs>
</svg>
