<svg width="21" height="20" viewBox="0 0 21 20" fill="none" xmlns="http://www.w3.org/2000/svg">
<g id="Group">
<path id="Path" fill-rule="evenodd" clip-rule="evenodd" d="M12.1663 11.6667H13.833C14.293 11.6667 14.6663 12.04 14.6663 12.5V15.8334C14.6663 16.2934 14.293 16.6667 13.833 16.6667H12.1663C11.7063 16.6667 11.333 16.2934 11.333 15.8334V12.5C11.333 12.04 11.7063 11.6667 12.1663 11.6667Z" stroke="white" stroke-linecap="round" stroke-linejoin="round"/>
<path id="Path_2" d="M18.0003 14.1667H14.667" stroke="white" stroke-linecap="round" stroke-linejoin="round"/>
<g id="Group_2">
<path id="Path_3" d="M11.3333 14.167H3" stroke="white" stroke-linecap="round" stroke-linejoin="round"/>
<path id="Path_4" fill-rule="evenodd" clip-rule="evenodd" d="M8.83301 8.33368H7.16634C6.70634 8.33368 6.33301 7.96035 6.33301 7.50035V4.16701C6.33301 3.70701 6.70634 3.33368 7.16634 3.33368H8.83301C9.29301 3.33368 9.66634 3.70701 9.66634 4.16701V7.50035C9.66634 7.96035 9.29301 8.33368 8.83301 8.33368Z" stroke="white" stroke-linecap="round" stroke-linejoin="round"/>
<path id="Path_5" d="M3 5.83366H6.33333" stroke="white" stroke-linecap="round" stroke-linejoin="round"/>
<path id="Path_6" d="M9.66699 5.83366H18.0003" stroke="white" stroke-linecap="round" stroke-linejoin="round"/>
</g>
</g>
</svg>
