<svg width="21" height="20" viewBox="0 0 21 20" fill="none" xmlns="http://www.w3.org/2000/svg">
<g id="Group">
<path id="Path" fill-rule="evenodd" clip-rule="evenodd" d="M12.1668 11.6667H13.8335C14.2935 11.6667 14.6668 12.04 14.6668 12.5V15.8333C14.6668 16.2933 14.2935 16.6667 13.8335 16.6667H12.1668C11.7068 16.6667 11.3335 16.2933 11.3335 15.8333V12.5C11.3335 12.04 11.7068 11.6667 12.1668 11.6667Z" stroke="#2E2E2E" stroke-linecap="round" stroke-linejoin="round"/>
<path id="Path_2" d="M17.9998 14.1667H14.6665" stroke="#2E2E2E" stroke-linecap="round" stroke-linejoin="round"/>
<g id="Group_2">
<path id="Path_3" d="M11.3333 14.167H3" stroke="#2E2E2E" stroke-linecap="round" stroke-linejoin="round"/>
<path id="Path_4" fill-rule="evenodd" clip-rule="evenodd" d="M8.8335 8.33366H7.16683C6.70683 8.33366 6.3335 7.96033 6.3335 7.50033V4.16699C6.3335 3.70699 6.70683 3.33366 7.16683 3.33366H8.8335C9.2935 3.33366 9.66683 3.70699 9.66683 4.16699V7.50033C9.66683 7.96033 9.2935 8.33366 8.8335 8.33366Z" stroke="#2E2E2E" stroke-linecap="round" stroke-linejoin="round"/>
<path id="Path_5" d="M3 5.83366H6.33333" stroke="#2E2E2E" stroke-linecap="round" stroke-linejoin="round"/>
<path id="Path_6" d="M9.6665 5.83366H17.9998" stroke="#2E2E2E" stroke-linecap="round" stroke-linejoin="round"/>
</g>
</g>
</svg>
