<svg width="24" height="24" viewBox="0 0 24 24" fill="none" xmlns="http://www.w3.org/2000/svg">
<path fill-rule="evenodd" clip-rule="evenodd" d="M11.3329 12.6672C10.6504 11.9847 10.1359 11.2206 9.79408 10.4453C9.72175 10.2814 9.76433 10.0895 9.89091 9.96288L10.3687 9.48572C10.7601 9.0943 10.7601 8.54072 10.4182 8.19888L9.73341 7.51405C9.27783 7.05847 8.53933 7.05847 8.08375 7.51405L7.70341 7.89438C7.27116 8.32663 7.09091 8.95022 7.20758 9.56855C7.49575 11.0928 8.38125 12.7617 9.80983 14.1903C11.2384 15.6189 12.9073 16.5044 14.4316 16.7926C15.0499 16.9092 15.6735 16.729 16.1057 16.2967L16.4855 15.917C16.9411 15.4614 16.9411 14.7229 16.4855 14.2673L15.8012 13.5831C15.4594 13.2412 14.9052 13.2412 14.564 13.5831L14.0372 14.1104C13.9107 14.237 13.7187 14.2796 13.5548 14.2072C12.7796 13.8648 12.0154 13.3497 11.3329 12.6672Z" fill="white"/>
<rect x="0.5" y="0.5" width="23" height="23" rx="11.5" stroke="white"/>
</svg>
