<svg width="20" height="20" viewBox="0 0 14 14" fill="none" xmlns="http://www.w3.org/2000/svg">
<g id="Group">
<path id="Path" d="M10.8839 7.00315L11.9978 5.88919C12.71 5.19829 12.9946 4.17729 12.7427 3.2176C12.4907 2.25791 11.7412 1.50842 10.7815 1.25646C9.82184 1.00449 8.80084 1.28914 8.10994 2.00128L5.72749 4.38374C5.21168 4.89918 4.92188 5.59849 4.92188 6.32769C4.92188 7.05689 5.21168 7.7562 5.72749 8.27164L5.72041 8.27873C5.94232 8.49641 6.19998 8.67436 6.48215 8.8048" stroke="#2E2E2E" stroke-width="1.2" stroke-linecap="round" stroke-linejoin="round"/>
<path id="Path_2" d="M7.5269 5.18311C7.8091 5.31377 8.06676 5.49193 8.28864 5.70982C8.80445 6.22526 9.09426 6.92457 9.09426 7.65377C9.09426 8.38298 8.80445 9.08228 8.28864 9.59773L5.90619 11.9802C4.82797 13.0262 3.10975 13.0132 2.04749 11.951C0.985229 10.8887 0.972224 9.17049 2.01828 8.09227L3.13224 6.97832" stroke="#2E2E2E" stroke-width="1.2" stroke-linecap="round" stroke-linejoin="round"/>
</g>
</svg>
