<svg width="14" height="14" viewBox="0 0 14 14" fill="none" xmlns="http://www.w3.org/2000/svg">
<g id="Group">
<path id="Path" d="M10.8858 7.00339L11.9998 5.88943C12.7119 5.19853 12.9966 4.17753 12.7446 3.21784C12.4927 2.25815 11.7432 1.50867 10.7835 1.2567C9.8238 1.00474 8.8028 1.28939 8.1119 2.00153L5.72944 4.38398C5.21364 4.89942 4.92383 5.59873 4.92383 6.32793C4.92383 7.05714 5.21364 7.75644 5.72944 8.27189L5.72236 8.27897C5.94427 8.49666 6.20193 8.6746 6.4841 8.80504" stroke="#2E2E2E" stroke-width="1.2" stroke-linecap="round" stroke-linejoin="round"/>
<path id="Path_2" d="M7.52885 5.18359C7.81105 5.31426 8.06871 5.49242 8.2906 5.71031C8.8064 6.22575 9.09621 6.92506 9.09621 7.65426C9.09621 8.38346 8.8064 9.08277 8.2906 9.59821L5.90814 11.9807C4.82992 13.0267 3.11171 13.0137 2.04944 11.9515C0.987182 10.8892 0.974177 9.17098 2.02024 8.09276L3.1342 6.9788" stroke="#2E2E2E" stroke-width="1.2" stroke-linecap="round" stroke-linejoin="round"/>
</g>
</svg>
