<svg width="24" height="24" viewBox="0 0 24 24" fill="none" xmlns="http://www.w3.org/2000/svg">
<g id="icon/ TG">
<path id="Path-3" fill-rule="evenodd" clip-rule="evenodd" d="M4.96843 11.1889C8.74998 9.54138 11.2716 8.4552 12.5333 7.93042C16.1357 6.43205 16.8843 6.17177 17.3721 6.16318C17.4795 6.16129 17.7194 6.18788 17.8748 6.31399C18.006 6.42048 18.0421 6.56432 18.0594 6.66528C18.0767 6.76624 18.0982 6.99623 18.0811 7.17594C17.8859 9.22709 17.0412 14.2047 16.6115 16.502C16.4296 17.4741 16.0716 17.8 15.725 17.8319C14.9717 17.9012 14.3997 17.3341 13.67 16.8558C12.5284 16.1074 11.8834 15.6416 10.7752 14.9113C9.49445 14.0673 10.3247 13.6034 11.0546 12.8453C11.2456 12.6469 14.5646 9.62802 14.6289 9.35416C14.6369 9.31991 14.6444 9.19223 14.5685 9.12482C14.4927 9.0574 14.3807 9.08046 14.2999 9.09879C14.1854 9.12478 12.3616 10.3303 8.82835 12.7153C8.31066 13.0708 7.84174 13.244 7.42161 13.2349C6.95845 13.2249 6.06752 12.973 5.4052 12.7578C4.59284 12.4937 3.94719 12.3541 4.00341 11.9056C4.0327 11.672 4.35437 11.4331 4.96843 11.1889Z" fill="#2E2E2E"/>
</g>
</svg>
