<svg width="24" height="24" viewBox="0 0 24 24" fill="none" xmlns="http://www.w3.org/2000/svg">
<g id="icon/ WP">
<path id="Subtract" fill-rule="evenodd" clip-rule="evenodd" d="M5.28906 18.7415L6.23726 15.2796C5.65147 14.264 5.34378 13.1119 5.3452 11.9395C5.34674 8.2557 8.34456 5.25879 12.0284 5.25879C13.8161 5.2597 15.494 5.95538 16.756 7.21822C18.0179 8.48106 18.7122 10.1596 18.7116 11.9448C18.71 15.6284 15.7117 18.6258 12.0283 18.6258H12.0254C10.907 18.6254 9.80805 18.3448 8.83188 17.8125L5.28906 18.7415ZM9.98267 8.8584C10.1016 8.86321 10.2333 8.86884 10.3584 9.14688V9.14697C10.4437 9.33666 10.587 9.68982 10.7015 9.97192C10.7863 10.181 10.8553 10.351 10.8731 10.3866C10.9149 10.47 10.9426 10.5678 10.887 10.679C10.8784 10.6961 10.8706 10.7123 10.863 10.7277C10.8216 10.8124 10.791 10.875 10.7202 10.9574C10.6919 10.9904 10.6627 11.0259 10.6335 11.0615C10.5763 11.131 10.5192 11.2004 10.4696 11.2499C10.3859 11.3331 10.2987 11.4236 10.3962 11.5906C10.4938 11.7577 10.8289 12.3043 11.3253 12.7469C11.8595 13.2233 12.3235 13.4245 12.5584 13.5263C12.604 13.5461 12.6409 13.5621 12.6681 13.5757C12.8352 13.6591 12.9325 13.6452 13.03 13.5337C13.1275 13.4223 13.4471 13.0463 13.5585 12.8792C13.67 12.712 13.7813 12.7397 13.9343 12.7955C14.0874 12.8513 14.9082 13.2552 15.0753 13.3388C15.1082 13.3552 15.1389 13.37 15.1674 13.3837C15.2836 13.4398 15.362 13.4776 15.3955 13.5337C15.4372 13.6036 15.4371 13.9376 15.2981 14.3276C15.159 14.7175 14.4773 15.0937 14.171 15.1214C14.1415 15.1241 14.1122 15.1276 14.0821 15.1311C13.7991 15.1644 13.4419 15.2063 12.1672 14.7036C10.5971 14.0845 9.56223 12.5494 9.34987 12.2344C9.33266 12.2089 9.32085 12.1914 9.3146 12.183L9.31262 12.1804C9.2222 12.0595 8.63281 11.2714 8.63281 10.456C8.63281 9.68741 9.01053 9.28433 9.18446 9.09872C9.19645 9.08593 9.20746 9.07418 9.21732 9.06341C9.37028 8.89627 9.55122 8.85449 9.66258 8.85449L9.98267 8.8584Z" fill="#2E2E2E"/>
</g>
</svg>
